ISO-10303-21;
HEADER;
FILE_DESCRIPTION(('FreeCAD Model'),'2;1');
FILE_NAME('Open CASCADE Shape Model','2026-09-03T14:16:23',(''),(''),
  'Open CASCADE STEP processor 7.8','FreeCAD','Unknown');
FILE_SCHEMA(('AUTOMOTIVE_DESIGN { 1 0 10303 214 1 1 1 1 }'));
ENDSEC;
DATA;
#1 = APPLICATION_PROTOCOL_DEFINITION('international standard',
  'automotive_design',2000,#2);
#2 = APPLICATION_CONTEXT(
  'core data for automotive mechanical design processes');
#3 = SHAPE_DEFINITION_REPRESENTATION(#4,#10);
#4 = PRODUCT_DEFINITION_SHAPE('','',#5);
#5 = PRODUCT_DEFINITION('design','',#6,#9);
#6 = PRODUCT_DEFINITION_FORMATION('','',#7);
#7 = PRODUCT('SMDY13225Y5P471K0','SMDY13225Y5P471K0','',(#8));
#8 = PRODUCT_CONTEXT('',#2,'mechanical');
#9 = PRODUCT_DEFINITION_CONTEXT('part definition',#2,'design');
#10 = SHAPE_REPRESENTATION('',(#11,#15,#19),#23);
#11 = AXIS2_PLACEMENT_3D('',#12,#13,#14);
#12 = CARTESIAN_POINT('',(0.,0.,0.));
#13 = DIRECTION('',(0.,0.,1.));
#14 = DIRECTION('',(1.,0.,-0.));
#15 = AXIS2_PLACEMENT_3D('',#16,#17,#18);
#16 = CARTESIAN_POINT('',(0.,0.,0.));
#17 = DIRECTION('',(0.,0.,1.));
#18 = DIRECTION('',(1.,0.,0.));
#19 = AXIS2_PLACEMENT_3D('',#20,#21,#22);
#20 = CARTESIAN_POINT('',(0.,0.,0.));
#21 = DIRECTION('',(0.,0.,1.));
#22 = DIRECTION('',(1.,0.,0.));
#23 = ( GEOMETRIC_REPRESENTATION_CONTEXT(3) 
GLOBAL_UNCERTAINTY_ASSIGNED_CONTEXT((#27)) GLOBAL_UNIT_ASSIGNED_CONTEXT(
(#24,#25,#26)) REPRESENTATION_CONTEXT('Context #1',
  '3D Context with UNIT and UNCERTAINTY') );
#24 = ( LENGTH_UNIT() NAMED_UNIT(*) SI_UNIT(.MILLI.,.METRE.) );
#25 = ( NAMED_UNIT(*) PLANE_ANGLE_UNIT() SI_UNIT($,.RADIAN.) );
#26 = ( NAMED_UNIT(*) SI_UNIT($,.STERADIAN.) SOLID_ANGLE_UNIT() );
#27 = UNCERTAINTY_MEASURE_WITH_UNIT(LENGTH_MEASURE(2.E-06),#24,
  'distance_accuracy_value','confusion accuracy');
#28 = PRODUCT_RELATED_PRODUCT_CATEGORY('part',$,(#7));
#29 = SHAPE_DEFINITION_REPRESENTATION(#30,#36);
#30 = PRODUCT_DEFINITION_SHAPE('','',#31);
#31 = PRODUCT_DEFINITION('design','',#32,#35);
#32 = PRODUCT_DEFINITION_FORMATION('','',#33);
#33 = PRODUCT('Body','Body','',(#34));
#34 = PRODUCT_CONTEXT('',#2,'mechanical');
#35 = PRODUCT_DEFINITION_CONTEXT('part definition',#2,'design');
#36 = ADVANCED_BREP_SHAPE_REPRESENTATION('',(#11,#37),#915);
#37 = MANIFOLD_SOLID_BREP('',#38);
#38 = CLOSED_SHELL('',(#39,#77,#109,#142,#171,#203,#233,#259,#283,#309,
    #360,#393,#417,#447,#479,#497,#520,#546,#564,#590,#613,#625,#651,
    #702,#725,#749,#766,#790,#808,#826,#852,#875,#887,#903));
#39 = ADVANCED_FACE('',(#40),#72,.T.);
#40 = FACE_BOUND('',#41,.T.);
#41 = EDGE_LOOP('',(#42,#51,#59,#66));
#42 = ORIENTED_EDGE('',*,*,#43,.T.);
#43 = EDGE_CURVE('',#44,#46,#48,.T.);
#44 = VERTEX_POINT('',#45);
#45 = CARTESIAN_POINT('',(4.05,2.5,0.));
#46 = VERTEX_POINT('',#47);
#47 = CARTESIAN_POINT('',(4.009719243357,2.5,1.15348994967));
#48 = B_SPLINE_CURVE_WITH_KNOTS('',1,(#49,#50),.UNSPECIFIED.,.F.,.F.,(2,
    2),(0.,1.),.PIECEWISE_BEZIER_KNOTS.);
#49 = CARTESIAN_POINT('',(4.05,2.5,0.));
#50 = CARTESIAN_POINT('',(4.006349038135,2.5,1.25));
#51 = ORIENTED_EDGE('',*,*,#52,.F.);
#52 = EDGE_CURVE('',#53,#46,#55,.T.);
#53 = VERTEX_POINT('',#54);
#54 = CARTESIAN_POINT('',(4.009719243357,-2.5,1.15348994967));
#55 = LINE('',#56,#57);
#56 = CARTESIAN_POINT('',(4.009719243357,-2.5,1.15348994967));
#57 = VECTOR('',#58,1.);
#58 = DIRECTION('',(0.,1.,0.));
#59 = ORIENTED_EDGE('',*,*,#60,.F.);
#60 = EDGE_CURVE('',#61,#53,#63,.T.);
#61 = VERTEX_POINT('',#62);
#62 = CARTESIAN_POINT('',(4.05,-2.5,0.));
#63 = B_SPLINE_CURVE_WITH_KNOTS('',1,(#64,#65),.UNSPECIFIED.,.F.,.F.,(2,
    2),(0.,1.),.PIECEWISE_BEZIER_KNOTS.);
#64 = CARTESIAN_POINT('',(4.05,-2.5,0.));
#65 = CARTESIAN_POINT('',(4.006349038135,-2.5,1.25));
#66 = ORIENTED_EDGE('',*,*,#67,.T.);
#67 = EDGE_CURVE('',#61,#44,#68,.T.);
#68 = LINE('',#69,#70);
#69 = CARTESIAN_POINT('',(4.05,-2.5,0.));
#70 = VECTOR('',#71,1.);
#71 = DIRECTION('',(0.,1.,0.));
#72 = PLANE('',#73);
#73 = AXIS2_PLACEMENT_3D('',#74,#75,#76);
#74 = CARTESIAN_POINT('',(4.006349038135,-2.5,1.25));
#75 = DIRECTION('',(0.999390827019,0.,3.48994967025E-02));
#76 = DIRECTION('',(0.,1.,0.));
#77 = ADVANCED_FACE('',(#78),#104,.T.);
#78 = FACE_BOUND('',#79,.T.);
#79 = EDGE_LOOP('',(#80,#89,#96,#97));
#80 = ORIENTED_EDGE('',*,*,#81,.T.);
#81 = EDGE_CURVE('',#82,#84,#86,.T.);
#82 = VERTEX_POINT('',#83);
#83 = CARTESIAN_POINT('',(3.55,3.,0.));
#84 = VERTEX_POINT('',#85);
#85 = CARTESIAN_POINT('',(3.55,2.959719243357,1.15348994967));
#86 = B_SPLINE_CURVE_WITH_KNOTS('',1,(#87,#88),.UNSPECIFIED.,.F.,.F.,(2,
    2),(0.,1.),.PIECEWISE_BEZIER_KNOTS.);
#87 = CARTESIAN_POINT('',(3.55,3.,0.));
#88 = CARTESIAN_POINT('',(3.55,2.956349038135,1.25));
#89 = ORIENTED_EDGE('',*,*,#90,.F.);
#90 = EDGE_CURVE('',#46,#84,#91,.T.);
#91 = CIRCLE('',#92,0.459719243357);
#92 = AXIS2_PLACEMENT_3D('',#93,#94,#95);
#93 = CARTESIAN_POINT('',(3.55,2.5,1.15348994967));
#94 = DIRECTION('',(0.,0.,1.));
#95 = DIRECTION('',(1.,0.,-0.));
#96 = ORIENTED_EDGE('',*,*,#43,.F.);
#97 = ORIENTED_EDGE('',*,*,#98,.T.);
#98 = EDGE_CURVE('',#44,#82,#99,.T.);
#99 = CIRCLE('',#100,0.5);
#100 = AXIS2_PLACEMENT_3D('',#101,#102,#103);
#101 = CARTESIAN_POINT('',(3.55,2.5,0.));
#102 = DIRECTION('',(0.,0.,1.));
#103 = DIRECTION('',(1.,0.,0.));
#104 = CONICAL_SURFACE('',#105,0.5,3.490658503989E-02);
#105 = AXIS2_PLACEMENT_3D('',#106,#107,#108);
#106 = CARTESIAN_POINT('',(3.55,2.5,0.));
#107 = DIRECTION('',(-0.,-0.,-1.));
#108 = DIRECTION('',(1.,0.,0.));
#109 = ADVANCED_FACE('',(#110),#137,.T.);
#110 = FACE_BOUND('',#111,.T.);
#111 = EDGE_LOOP('',(#112,#121,#122,#131));
#112 = ORIENTED_EDGE('',*,*,#113,.T.);
#113 = EDGE_CURVE('',#114,#53,#116,.T.);
#114 = VERTEX_POINT('',#115);
#115 = CARTESIAN_POINT('',(3.909780160655,-2.5,1.25));
#116 = CIRCLE('',#117,0.1);
#117 = AXIS2_PLACEMENT_3D('',#118,#119,#120);
#118 = CARTESIAN_POINT('',(3.909780160655,-2.5,1.15));
#119 = DIRECTION('',(6.E-17,1.,0.));
#120 = DIRECTION('',(1.,-6.E-17,0.));
#121 = ORIENTED_EDGE('',*,*,#52,.T.);
#122 = ORIENTED_EDGE('',*,*,#123,.F.);
#123 = EDGE_CURVE('',#124,#46,#126,.T.);
#124 = VERTEX_POINT('',#125);
#125 = CARTESIAN_POINT('',(3.909780160655,2.5,1.25));
#126 = CIRCLE('',#127,0.1);
#127 = AXIS2_PLACEMENT_3D('',#128,#129,#130);
#128 = CARTESIAN_POINT('',(3.909780160655,2.5,1.15));
#129 = DIRECTION('',(0.,1.,0.));
#130 = DIRECTION('',(0.,-0.,1.));
#131 = ORIENTED_EDGE('',*,*,#132,.F.);
#132 = EDGE_CURVE('',#114,#124,#133,.T.);
#133 = LINE('',#134,#135);
#134 = CARTESIAN_POINT('',(3.909780160655,-2.5,1.25));
#135 = VECTOR('',#136,1.);
#136 = DIRECTION('',(0.,1.,0.));
#137 = CYLINDRICAL_SURFACE('',#138,0.1);
#138 = AXIS2_PLACEMENT_3D('',#139,#140,#141);
#139 = CARTESIAN_POINT('',(3.909780160655,-2.5,1.15));
#140 = DIRECTION('',(0.,1.,0.));
#141 = DIRECTION('',(0.,-0.,1.));
#142 = ADVANCED_FACE('',(#143),#166,.F.);
#143 = FACE_BOUND('',#144,.F.);
#144 = EDGE_LOOP('',(#145,#152,#160,#165));
#145 = ORIENTED_EDGE('',*,*,#146,.T.);
#146 = EDGE_CURVE('',#44,#147,#149,.T.);
#147 = VERTEX_POINT('',#148);
#148 = CARTESIAN_POINT('',(4.009719243357,2.5,-1.15348994967));
#149 = B_SPLINE_CURVE_WITH_KNOTS('',1,(#150,#151),.UNSPECIFIED.,.F.,.F.,
  (2,2),(0.,1.),.PIECEWISE_BEZIER_KNOTS.);
#150 = CARTESIAN_POINT('',(4.05,2.5,0.));
#151 = CARTESIAN_POINT('',(4.006349038135,2.5,-1.25));
#152 = ORIENTED_EDGE('',*,*,#153,.F.);
#153 = EDGE_CURVE('',#154,#147,#156,.T.);
#154 = VERTEX_POINT('',#155);
#155 = CARTESIAN_POINT('',(4.009719243357,-2.5,-1.15348994967));
#156 = LINE('',#157,#158);
#157 = CARTESIAN_POINT('',(4.009719243357,-2.5,-1.15348994967));
#158 = VECTOR('',#159,1.);
#159 = DIRECTION('',(0.,1.,0.));
#160 = ORIENTED_EDGE('',*,*,#161,.F.);
#161 = EDGE_CURVE('',#61,#154,#162,.T.);
#162 = B_SPLINE_CURVE_WITH_KNOTS('',1,(#163,#164),.UNSPECIFIED.,.F.,.F.,
  (2,2),(0.,1.),.PIECEWISE_BEZIER_KNOTS.);
#163 = CARTESIAN_POINT('',(4.05,-2.5,0.));
#164 = CARTESIAN_POINT('',(4.006349038135,-2.5,-1.25));
#165 = ORIENTED_EDGE('',*,*,#67,.T.);
#166 = PLANE('',#167);
#167 = AXIS2_PLACEMENT_3D('',#168,#169,#170);
#168 = CARTESIAN_POINT('',(4.006349038135,-2.5,-1.25));
#169 = DIRECTION('',(-0.999390827019,0.,3.48994967025E-02));
#170 = DIRECTION('',(0.,1.,0.));
#171 = ADVANCED_FACE('',(#172),#198,.T.);
#172 = FACE_BOUND('',#173,.T.);
#173 = EDGE_LOOP('',(#174,#175,#184,#191));
#174 = ORIENTED_EDGE('',*,*,#60,.T.);
#175 = ORIENTED_EDGE('',*,*,#176,.F.);
#176 = EDGE_CURVE('',#177,#53,#179,.T.);
#177 = VERTEX_POINT('',#178);
#178 = CARTESIAN_POINT('',(3.55,-2.959719243357,1.15348994967));
#179 = CIRCLE('',#180,0.459719243357);
#180 = AXIS2_PLACEMENT_3D('',#181,#182,#183);
#181 = CARTESIAN_POINT('',(3.55,-2.5,1.15348994967));
#182 = DIRECTION('',(-0.,0.,1.));
#183 = DIRECTION('',(0.,-1.,0.));
#184 = ORIENTED_EDGE('',*,*,#185,.F.);
#185 = EDGE_CURVE('',#186,#177,#188,.T.);
#186 = VERTEX_POINT('',#187);
#187 = CARTESIAN_POINT('',(3.55,-3.,0.));
#188 = B_SPLINE_CURVE_WITH_KNOTS('',1,(#189,#190),.UNSPECIFIED.,.F.,.F.,
  (2,2),(0.,1.),.PIECEWISE_BEZIER_KNOTS.);
#189 = CARTESIAN_POINT('',(3.55,-3.,0.));
#190 = CARTESIAN_POINT('',(3.55,-2.956349038135,1.25));
#191 = ORIENTED_EDGE('',*,*,#192,.T.);
#192 = EDGE_CURVE('',#186,#61,#193,.T.);
#193 = CIRCLE('',#194,0.5);
#194 = AXIS2_PLACEMENT_3D('',#195,#196,#197);
#195 = CARTESIAN_POINT('',(3.55,-2.5,0.));
#196 = DIRECTION('',(0.,0.,1.));
#197 = DIRECTION('',(1.,0.,0.));
#198 = CONICAL_SURFACE('',#199,0.5,3.490658503989E-02);
#199 = AXIS2_PLACEMENT_3D('',#200,#201,#202);
#200 = CARTESIAN_POINT('',(3.55,-2.5,0.));
#201 = DIRECTION('',(-0.,-0.,-1.));
#202 = DIRECTION('',(1.,0.,0.));
#203 = ADVANCED_FACE('',(#204),#228,.T.);
#204 = FACE_BOUND('',#205,.T.);
#205 = EDGE_LOOP('',(#206,#215,#221,#222));
#206 = ORIENTED_EDGE('',*,*,#207,.T.);
#207 = EDGE_CURVE('',#208,#210,#212,.T.);
#208 = VERTEX_POINT('',#209);
#209 = CARTESIAN_POINT('',(-3.55,3.,0.));
#210 = VERTEX_POINT('',#211);
#211 = CARTESIAN_POINT('',(-3.55,2.959719243357,1.15348994967));
#212 = B_SPLINE_CURVE_WITH_KNOTS('',1,(#213,#214),.UNSPECIFIED.,.F.,.F.,
  (2,2),(0.,1.),.PIECEWISE_BEZIER_KNOTS.);
#213 = CARTESIAN_POINT('',(-3.55,3.,0.));
#214 = CARTESIAN_POINT('',(-3.55,2.956349038135,1.25));
#215 = ORIENTED_EDGE('',*,*,#216,.F.);
#216 = EDGE_CURVE('',#84,#210,#217,.T.);
#217 = LINE('',#218,#219);
#218 = CARTESIAN_POINT('',(3.55,2.959719243357,1.15348994967));
#219 = VECTOR('',#220,1.);
#220 = DIRECTION('',(-1.,0.,0.));
#221 = ORIENTED_EDGE('',*,*,#81,.F.);
#222 = ORIENTED_EDGE('',*,*,#223,.T.);
#223 = EDGE_CURVE('',#82,#208,#224,.T.);
#224 = LINE('',#225,#226);
#225 = CARTESIAN_POINT('',(3.55,3.,0.));
#226 = VECTOR('',#227,1.);
#227 = DIRECTION('',(-1.,0.,0.));
#228 = PLANE('',#229);
#229 = AXIS2_PLACEMENT_3D('',#230,#231,#232);
#230 = CARTESIAN_POINT('',(3.55,2.956349038135,1.25));
#231 = DIRECTION('',(0.,0.999390827019,3.48994967025E-02));
#232 = DIRECTION('',(-1.,0.,0.));
#233 = ADVANCED_FACE('',(#234),#254,.T.);
#234 = FACE_BOUND('',#235,.F.);
#235 = EDGE_LOOP('',(#236,#237,#246,#253));
#236 = ORIENTED_EDGE('',*,*,#123,.F.);
#237 = ORIENTED_EDGE('',*,*,#238,.T.);
#238 = EDGE_CURVE('',#124,#239,#241,.T.);
#239 = VERTEX_POINT('',#240);
#240 = CARTESIAN_POINT('',(3.55,2.859780160655,1.25));
#241 = CIRCLE('',#242,0.359780160655);
#242 = AXIS2_PLACEMENT_3D('',#243,#244,#245);
#243 = CARTESIAN_POINT('',(3.55,2.5,1.25));
#244 = DIRECTION('',(0.,0.,1.));
#245 = DIRECTION('',(1.,0.,-0.));
#246 = ORIENTED_EDGE('',*,*,#247,.T.);
#247 = EDGE_CURVE('',#239,#84,#248,.T.);
#248 = CIRCLE('',#249,0.1);
#249 = AXIS2_PLACEMENT_3D('',#250,#251,#252);
#250 = CARTESIAN_POINT('',(3.55,2.859780160655,1.15));
#251 = DIRECTION('',(-1.,2.8E-16,0.));
#252 = DIRECTION('',(2.8E-16,1.,0.));
#253 = ORIENTED_EDGE('',*,*,#90,.F.);
#254 = TOROIDAL_SURFACE('',#255,0.359780160655,0.1);
#255 = AXIS2_PLACEMENT_3D('',#256,#257,#258);
#256 = CARTESIAN_POINT('',(3.55,2.5,1.15));
#257 = DIRECTION('',(-0.,-0.,-1.));
#258 = DIRECTION('',(1.,0.,0.));
#259 = ADVANCED_FACE('',(#260),#278,.T.);
#260 = FACE_BOUND('',#261,.F.);
#261 = EDGE_LOOP('',(#262,#269,#276,#277));
#262 = ORIENTED_EDGE('',*,*,#263,.T.);
#263 = EDGE_CURVE('',#82,#264,#266,.T.);
#264 = VERTEX_POINT('',#265);
#265 = CARTESIAN_POINT('',(3.55,2.959719243357,-1.15348994967));
#266 = B_SPLINE_CURVE_WITH_KNOTS('',1,(#267,#268),.UNSPECIFIED.,.F.,.F.,
  (2,2),(0.,1.),.PIECEWISE_BEZIER_KNOTS.);
#267 = CARTESIAN_POINT('',(3.55,3.,0.));
#268 = CARTESIAN_POINT('',(3.55,2.956349038135,-1.25));
#269 = ORIENTED_EDGE('',*,*,#270,.F.);
#270 = EDGE_CURVE('',#147,#264,#271,.T.);
#271 = CIRCLE('',#272,0.459719243357);
#272 = AXIS2_PLACEMENT_3D('',#273,#274,#275);
#273 = CARTESIAN_POINT('',(3.55,2.5,-1.15348994967));
#274 = DIRECTION('',(0.,0.,1.));
#275 = DIRECTION('',(1.,0.,-0.));
#276 = ORIENTED_EDGE('',*,*,#146,.F.);
#277 = ORIENTED_EDGE('',*,*,#98,.T.);
#278 = CONICAL_SURFACE('',#279,0.5,3.490658503989E-02);
#279 = AXIS2_PLACEMENT_3D('',#280,#281,#282);
#280 = CARTESIAN_POINT('',(3.55,2.5,0.));
#281 = DIRECTION('',(0.,0.,1.));
#282 = DIRECTION('',(1.,0.,0.));
#283 = ADVANCED_FACE('',(#284),#304,.T.);
#284 = FACE_BOUND('',#285,.F.);
#285 = EDGE_LOOP('',(#286,#295,#302,#303));
#286 = ORIENTED_EDGE('',*,*,#287,.F.);
#287 = EDGE_CURVE('',#288,#177,#290,.T.);
#288 = VERTEX_POINT('',#289);
#289 = CARTESIAN_POINT('',(3.55,-2.859780160655,1.25));
#290 = CIRCLE('',#291,0.1);
#291 = AXIS2_PLACEMENT_3D('',#292,#293,#294);
#292 = CARTESIAN_POINT('',(3.55,-2.859780160655,1.15));
#293 = DIRECTION('',(1.,0.,-0.));
#294 = DIRECTION('',(0.,0.,1.));
#295 = ORIENTED_EDGE('',*,*,#296,.T.);
#296 = EDGE_CURVE('',#288,#114,#297,.T.);
#297 = CIRCLE('',#298,0.359780160655);
#298 = AXIS2_PLACEMENT_3D('',#299,#300,#301);
#299 = CARTESIAN_POINT('',(3.55,-2.5,1.25));
#300 = DIRECTION('',(-0.,0.,1.));
#301 = DIRECTION('',(0.,-1.,0.));
#302 = ORIENTED_EDGE('',*,*,#113,.T.);
#303 = ORIENTED_EDGE('',*,*,#176,.F.);
#304 = TOROIDAL_SURFACE('',#305,0.359780160655,0.1);
#305 = AXIS2_PLACEMENT_3D('',#306,#307,#308);
#306 = CARTESIAN_POINT('',(3.55,-2.5,1.15));
#307 = DIRECTION('',(-0.,-0.,-1.));
#308 = DIRECTION('',(0.,-1.,0.));
#309 = ADVANCED_FACE('',(#310),#355,.T.);
#310 = FACE_BOUND('',#311,.T.);
#311 = EDGE_LOOP('',(#312,#320,#321,#322,#323,#331,#340,#348));
#312 = ORIENTED_EDGE('',*,*,#313,.T.);
#313 = EDGE_CURVE('',#314,#288,#316,.T.);
#314 = VERTEX_POINT('',#315);
#315 = CARTESIAN_POINT('',(-3.55,-2.859780160655,1.25));
#316 = LINE('',#317,#318);
#317 = CARTESIAN_POINT('',(-3.55,-2.859780160655,1.25));
#318 = VECTOR('',#319,1.);
#319 = DIRECTION('',(1.,0.,0.));
#320 = ORIENTED_EDGE('',*,*,#296,.T.);
#321 = ORIENTED_EDGE('',*,*,#132,.T.);
#322 = ORIENTED_EDGE('',*,*,#238,.T.);
#323 = ORIENTED_EDGE('',*,*,#324,.T.);
#324 = EDGE_CURVE('',#239,#325,#327,.T.);
#325 = VERTEX_POINT('',#326);
#326 = CARTESIAN_POINT('',(-3.55,2.859780160655,1.25));
#327 = LINE('',#328,#329);
#328 = CARTESIAN_POINT('',(3.55,2.859780160655,1.25));
#329 = VECTOR('',#330,1.);
#330 = DIRECTION('',(-1.,0.,0.));
#331 = ORIENTED_EDGE('',*,*,#332,.T.);
#332 = EDGE_CURVE('',#325,#333,#335,.T.);
#333 = VERTEX_POINT('',#334);
#334 = CARTESIAN_POINT('',(-3.909780160655,2.5,1.25));
#335 = CIRCLE('',#336,0.359780160655);
#336 = AXIS2_PLACEMENT_3D('',#337,#338,#339);
#337 = CARTESIAN_POINT('',(-3.55,2.5,1.25));
#338 = DIRECTION('',(0.,0.,1.));
#339 = DIRECTION('',(-9.7E-16,1.,0.));
#340 = ORIENTED_EDGE('',*,*,#341,.T.);
#341 = EDGE_CURVE('',#333,#342,#344,.T.);
#342 = VERTEX_POINT('',#343);
#343 = CARTESIAN_POINT('',(-3.909780160655,-2.5,1.25));
#344 = LINE('',#345,#346);
#345 = CARTESIAN_POINT('',(-3.909780160655,2.5,1.25));
#346 = VECTOR('',#347,1.);
#347 = DIRECTION('',(0.,-1.,0.));
#348 = ORIENTED_EDGE('',*,*,#349,.T.);
#349 = EDGE_CURVE('',#342,#314,#350,.T.);
#350 = CIRCLE('',#351,0.359780160655);
#351 = AXIS2_PLACEMENT_3D('',#352,#353,#354);
#352 = CARTESIAN_POINT('',(-3.55,-2.5,1.25));
#353 = DIRECTION('',(0.,0.,1.));
#354 = DIRECTION('',(-1.,0.,0.));
#355 = PLANE('',#356);
#356 = AXIS2_PLACEMENT_3D('',#357,#358,#359);
#357 = CARTESIAN_POINT('',(3.55,2.5,1.25));
#358 = DIRECTION('',(0.,0.,1.));
#359 = DIRECTION('',(1.,0.,0.));
#360 = ADVANCED_FACE('',(#361),#388,.T.);
#361 = FACE_BOUND('',#362,.F.);
#362 = EDGE_LOOP('',(#363,#372,#373,#382));
#363 = ORIENTED_EDGE('',*,*,#364,.T.);
#364 = EDGE_CURVE('',#365,#154,#367,.T.);
#365 = VERTEX_POINT('',#366);
#366 = CARTESIAN_POINT('',(3.909780160655,-2.5,-1.25));
#367 = CIRCLE('',#368,0.1);
#368 = AXIS2_PLACEMENT_3D('',#369,#370,#371);
#369 = CARTESIAN_POINT('',(3.909780160655,-2.5,-1.15));
#370 = DIRECTION('',(-6.E-17,-1.,0.));
#371 = DIRECTION('',(1.,-6.E-17,0.));
#372 = ORIENTED_EDGE('',*,*,#153,.T.);
#373 = ORIENTED_EDGE('',*,*,#374,.F.);
#374 = EDGE_CURVE('',#375,#147,#377,.T.);
#375 = VERTEX_POINT('',#376);
#376 = CARTESIAN_POINT('',(3.909780160655,2.5,-1.25));
#377 = CIRCLE('',#378,0.1);
#378 = AXIS2_PLACEMENT_3D('',#379,#380,#381);
#379 = CARTESIAN_POINT('',(3.909780160655,2.5,-1.15));
#380 = DIRECTION('',(0.,-1.,0.));
#381 = DIRECTION('',(0.,0.,-1.));
#382 = ORIENTED_EDGE('',*,*,#383,.F.);
#383 = EDGE_CURVE('',#365,#375,#384,.T.);
#384 = LINE('',#385,#386);
#385 = CARTESIAN_POINT('',(3.909780160655,-2.5,-1.25));
#386 = VECTOR('',#387,1.);
#387 = DIRECTION('',(0.,1.,0.));
#388 = CYLINDRICAL_SURFACE('',#389,0.1);
#389 = AXIS2_PLACEMENT_3D('',#390,#391,#392);
#390 = CARTESIAN_POINT('',(3.909780160655,-2.5,-1.15));
#391 = DIRECTION('',(0.,1.,0.));
#392 = DIRECTION('',(0.,0.,-1.));
#393 = ADVANCED_FACE('',(#394),#412,.T.);
#394 = FACE_BOUND('',#395,.F.);
#395 = EDGE_LOOP('',(#396,#397,#406,#411));
#396 = ORIENTED_EDGE('',*,*,#161,.T.);
#397 = ORIENTED_EDGE('',*,*,#398,.F.);
#398 = EDGE_CURVE('',#399,#154,#401,.T.);
#399 = VERTEX_POINT('',#400);
#400 = CARTESIAN_POINT('',(3.55,-2.959719243357,-1.15348994967));
#401 = CIRCLE('',#402,0.459719243357);
#402 = AXIS2_PLACEMENT_3D('',#403,#404,#405);
#403 = CARTESIAN_POINT('',(3.55,-2.5,-1.15348994967));
#404 = DIRECTION('',(-0.,0.,1.));
#405 = DIRECTION('',(0.,-1.,0.));
#406 = ORIENTED_EDGE('',*,*,#407,.F.);
#407 = EDGE_CURVE('',#186,#399,#408,.T.);
#408 = B_SPLINE_CURVE_WITH_KNOTS('',1,(#409,#410),.UNSPECIFIED.,.F.,.F.,
  (2,2),(0.,1.),.PIECEWISE_BEZIER_KNOTS.);
#409 = CARTESIAN_POINT('',(3.55,-3.,0.));
#410 = CARTESIAN_POINT('',(3.55,-2.956349038135,-1.25));
#411 = ORIENTED_EDGE('',*,*,#192,.T.);
#412 = CONICAL_SURFACE('',#413,0.5,3.490658503989E-02);
#413 = AXIS2_PLACEMENT_3D('',#414,#415,#416);
#414 = CARTESIAN_POINT('',(3.55,-2.5,0.));
#415 = DIRECTION('',(0.,0.,1.));
#416 = DIRECTION('',(1.,0.,0.));
#417 = ADVANCED_FACE('',(#418),#442,.T.);
#418 = FACE_BOUND('',#419,.T.);
#419 = EDGE_LOOP('',(#420,#421,#429,#436));
#420 = ORIENTED_EDGE('',*,*,#185,.T.);
#421 = ORIENTED_EDGE('',*,*,#422,.F.);
#422 = EDGE_CURVE('',#423,#177,#425,.T.);
#423 = VERTEX_POINT('',#424);
#424 = CARTESIAN_POINT('',(-3.55,-2.959719243357,1.15348994967));
#425 = LINE('',#426,#427);
#426 = CARTESIAN_POINT('',(-3.55,-2.959719243357,1.15348994967));
#427 = VECTOR('',#428,1.);
#428 = DIRECTION('',(1.,0.,0.));
#429 = ORIENTED_EDGE('',*,*,#430,.F.);
#430 = EDGE_CURVE('',#431,#423,#433,.T.);
#431 = VERTEX_POINT('',#432);
#432 = CARTESIAN_POINT('',(-3.55,-3.,0.));
#433 = B_SPLINE_CURVE_WITH_KNOTS('',1,(#434,#435),.UNSPECIFIED.,.F.,.F.,
  (2,2),(0.,1.),.PIECEWISE_BEZIER_KNOTS.);
#434 = CARTESIAN_POINT('',(-3.55,-3.,0.));
#435 = CARTESIAN_POINT('',(-3.55,-2.956349038135,1.25));
#436 = ORIENTED_EDGE('',*,*,#437,.T.);
#437 = EDGE_CURVE('',#431,#186,#438,.T.);
#438 = LINE('',#439,#440);
#439 = CARTESIAN_POINT('',(-3.55,-3.,0.));
#440 = VECTOR('',#441,1.);
#441 = DIRECTION('',(1.,0.,0.));
#442 = PLANE('',#443);
#443 = AXIS2_PLACEMENT_3D('',#444,#445,#446);
#444 = CARTESIAN_POINT('',(-3.55,-2.956349038135,1.25));
#445 = DIRECTION('',(0.,-0.999390827019,3.48994967025E-02));
#446 = DIRECTION('',(1.,0.,0.));
#447 = ADVANCED_FACE('',(#448),#474,.T.);
#448 = FACE_BOUND('',#449,.T.);
#449 = EDGE_LOOP('',(#450,#459,#466,#467));
#450 = ORIENTED_EDGE('',*,*,#451,.T.);
#451 = EDGE_CURVE('',#452,#454,#456,.T.);
#452 = VERTEX_POINT('',#453);
#453 = CARTESIAN_POINT('',(-4.05,2.5,0.));
#454 = VERTEX_POINT('',#455);
#455 = CARTESIAN_POINT('',(-4.009719243357,2.5,1.15348994967));
#456 = B_SPLINE_CURVE_WITH_KNOTS('',1,(#457,#458),.UNSPECIFIED.,.F.,.F.,
  (2,2),(0.,1.),.PIECEWISE_BEZIER_KNOTS.);
#457 = CARTESIAN_POINT('',(-4.05,2.5,0.));
#458 = CARTESIAN_POINT('',(-4.006349038135,2.5,1.25));
#459 = ORIENTED_EDGE('',*,*,#460,.F.);
#460 = EDGE_CURVE('',#210,#454,#461,.T.);
#461 = CIRCLE('',#462,0.459719243357);
#462 = AXIS2_PLACEMENT_3D('',#463,#464,#465);
#463 = CARTESIAN_POINT('',(-3.55,2.5,1.15348994967));
#464 = DIRECTION('',(0.,0.,1.));
#465 = DIRECTION('',(-9.7E-16,1.,0.));
#466 = ORIENTED_EDGE('',*,*,#207,.F.);
#467 = ORIENTED_EDGE('',*,*,#468,.T.);
#468 = EDGE_CURVE('',#208,#452,#469,.T.);
#469 = CIRCLE('',#470,0.5);
#470 = AXIS2_PLACEMENT_3D('',#471,#472,#473);
#471 = CARTESIAN_POINT('',(-3.55,2.5,0.));
#472 = DIRECTION('',(0.,0.,1.));
#473 = DIRECTION('',(1.,0.,0.));
#474 = CONICAL_SURFACE('',#475,0.5,3.490658503989E-02);
#475 = AXIS2_PLACEMENT_3D('',#476,#477,#478);
#476 = CARTESIAN_POINT('',(-3.55,2.5,0.));
#477 = DIRECTION('',(-0.,-0.,-1.));
#478 = DIRECTION('',(1.,0.,0.));
#479 = ADVANCED_FACE('',(#480),#492,.T.);
#480 = FACE_BOUND('',#481,.T.);
#481 = EDGE_LOOP('',(#482,#483,#484,#491));
#482 = ORIENTED_EDGE('',*,*,#247,.T.);
#483 = ORIENTED_EDGE('',*,*,#216,.T.);
#484 = ORIENTED_EDGE('',*,*,#485,.F.);
#485 = EDGE_CURVE('',#325,#210,#486,.T.);
#486 = CIRCLE('',#487,0.1);
#487 = AXIS2_PLACEMENT_3D('',#488,#489,#490);
#488 = CARTESIAN_POINT('',(-3.55,2.859780160655,1.15));
#489 = DIRECTION('',(-1.,0.,0.));
#490 = DIRECTION('',(0.,0.,1.));
#491 = ORIENTED_EDGE('',*,*,#324,.F.);
#492 = CYLINDRICAL_SURFACE('',#493,0.1);
#493 = AXIS2_PLACEMENT_3D('',#494,#495,#496);
#494 = CARTESIAN_POINT('',(3.55,2.859780160655,1.15));
#495 = DIRECTION('',(-1.,0.,0.));
#496 = DIRECTION('',(0.,0.,1.));
#497 = ADVANCED_FACE('',(#498),#515,.F.);
#498 = FACE_BOUND('',#499,.F.);
#499 = EDGE_LOOP('',(#500,#507,#513,#514));
#500 = ORIENTED_EDGE('',*,*,#501,.T.);
#501 = EDGE_CURVE('',#208,#502,#504,.T.);
#502 = VERTEX_POINT('',#503);
#503 = CARTESIAN_POINT('',(-3.55,2.959719243357,-1.15348994967));
#504 = B_SPLINE_CURVE_WITH_KNOTS('',1,(#505,#506),.UNSPECIFIED.,.F.,.F.,
  (2,2),(0.,1.),.PIECEWISE_BEZIER_KNOTS.);
#505 = CARTESIAN_POINT('',(-3.55,3.,0.));
#506 = CARTESIAN_POINT('',(-3.55,2.956349038135,-1.25));
#507 = ORIENTED_EDGE('',*,*,#508,.F.);
#508 = EDGE_CURVE('',#264,#502,#509,.T.);
#509 = LINE('',#510,#511);
#510 = CARTESIAN_POINT('',(3.55,2.959719243357,-1.15348994967));
#511 = VECTOR('',#512,1.);
#512 = DIRECTION('',(-1.,0.,0.));
#513 = ORIENTED_EDGE('',*,*,#263,.F.);
#514 = ORIENTED_EDGE('',*,*,#223,.T.);
#515 = PLANE('',#516);
#516 = AXIS2_PLACEMENT_3D('',#517,#518,#519);
#517 = CARTESIAN_POINT('',(3.55,2.956349038135,-1.25));
#518 = DIRECTION('',(0.,-0.999390827019,3.48994967025E-02));
#519 = DIRECTION('',(-1.,0.,0.));
#520 = ADVANCED_FACE('',(#521),#541,.T.);
#521 = FACE_BOUND('',#522,.T.);
#522 = EDGE_LOOP('',(#523,#524,#533,#540));
#523 = ORIENTED_EDGE('',*,*,#374,.F.);
#524 = ORIENTED_EDGE('',*,*,#525,.T.);
#525 = EDGE_CURVE('',#375,#526,#528,.T.);
#526 = VERTEX_POINT('',#527);
#527 = CARTESIAN_POINT('',(3.55,2.859780160655,-1.25));
#528 = CIRCLE('',#529,0.359780160655);
#529 = AXIS2_PLACEMENT_3D('',#530,#531,#532);
#530 = CARTESIAN_POINT('',(3.55,2.5,-1.25));
#531 = DIRECTION('',(0.,0.,1.));
#532 = DIRECTION('',(1.,0.,-0.));
#533 = ORIENTED_EDGE('',*,*,#534,.T.);
#534 = EDGE_CURVE('',#526,#264,#535,.T.);
#535 = CIRCLE('',#536,0.1);
#536 = AXIS2_PLACEMENT_3D('',#537,#538,#539);
#537 = CARTESIAN_POINT('',(3.55,2.859780160655,-1.15));
#538 = DIRECTION('',(1.,-2.8E-16,0.));
#539 = DIRECTION('',(2.8E-16,1.,0.));
#540 = ORIENTED_EDGE('',*,*,#270,.F.);
#541 = TOROIDAL_SURFACE('',#542,0.359780160655,0.1);
#542 = AXIS2_PLACEMENT_3D('',#543,#544,#545);
#543 = CARTESIAN_POINT('',(3.55,2.5,-1.15));
#544 = DIRECTION('',(0.,0.,1.));
#545 = DIRECTION('',(1.,0.,-0.));
#546 = ADVANCED_FACE('',(#547),#559,.T.);
#547 = FACE_BOUND('',#548,.T.);
#548 = EDGE_LOOP('',(#549,#556,#557,#558));
#549 = ORIENTED_EDGE('',*,*,#550,.T.);
#550 = EDGE_CURVE('',#314,#423,#551,.T.);
#551 = CIRCLE('',#552,0.1);
#552 = AXIS2_PLACEMENT_3D('',#553,#554,#555);
#553 = CARTESIAN_POINT('',(-3.55,-2.859780160655,1.15));
#554 = DIRECTION('',(1.,0.,-0.));
#555 = DIRECTION('',(0.,0.,1.));
#556 = ORIENTED_EDGE('',*,*,#422,.T.);
#557 = ORIENTED_EDGE('',*,*,#287,.F.);
#558 = ORIENTED_EDGE('',*,*,#313,.F.);
#559 = CYLINDRICAL_SURFACE('',#560,0.1);
#560 = AXIS2_PLACEMENT_3D('',#561,#562,#563);
#561 = CARTESIAN_POINT('',(-3.55,-2.859780160655,1.15));
#562 = DIRECTION('',(1.,0.,0.));
#563 = DIRECTION('',(0.,0.,1.));
#564 = ADVANCED_FACE('',(#565),#585,.T.);
#565 = FACE_BOUND('',#566,.F.);
#566 = EDGE_LOOP('',(#567,#576,#577,#578));
#567 = ORIENTED_EDGE('',*,*,#568,.F.);
#568 = EDGE_CURVE('',#342,#569,#571,.T.);
#569 = VERTEX_POINT('',#570);
#570 = CARTESIAN_POINT('',(-4.009719243357,-2.5,1.15348994967));
#571 = CIRCLE('',#572,0.1);
#572 = AXIS2_PLACEMENT_3D('',#573,#574,#575);
#573 = CARTESIAN_POINT('',(-3.909780160655,-2.5,1.15));
#574 = DIRECTION('',(0.,-1.,0.));
#575 = DIRECTION('',(0.,0.,1.));
#576 = ORIENTED_EDGE('',*,*,#349,.T.);
#577 = ORIENTED_EDGE('',*,*,#550,.T.);
#578 = ORIENTED_EDGE('',*,*,#579,.F.);
#579 = EDGE_CURVE('',#569,#423,#580,.T.);
#580 = CIRCLE('',#581,0.459719243357);
#581 = AXIS2_PLACEMENT_3D('',#582,#583,#584);
#582 = CARTESIAN_POINT('',(-3.55,-2.5,1.15348994967));
#583 = DIRECTION('',(0.,0.,1.));
#584 = DIRECTION('',(-1.,0.,0.));
#585 = TOROIDAL_SURFACE('',#586,0.359780160655,0.1);
#586 = AXIS2_PLACEMENT_3D('',#587,#588,#589);
#587 = CARTESIAN_POINT('',(-3.55,-2.5,1.15));
#588 = DIRECTION('',(-0.,-0.,-1.));
#589 = DIRECTION('',(-1.,0.,0.));
#590 = ADVANCED_FACE('',(#591),#608,.T.);
#591 = FACE_BOUND('',#592,.T.);
#592 = EDGE_LOOP('',(#593,#600,#606,#607));
#593 = ORIENTED_EDGE('',*,*,#594,.T.);
#594 = EDGE_CURVE('',#333,#454,#595,.T.);
#595 = CIRCLE('',#596,0.1);
#596 = AXIS2_PLACEMENT_3D('',#597,#598,#599);
#597 = CARTESIAN_POINT('',(-3.909780160655,2.5,1.15));
#598 = DIRECTION('',(1.36E-15,-1.,0.));
#599 = DIRECTION('',(-1.,-1.36E-15,0.));
#600 = ORIENTED_EDGE('',*,*,#601,.T.);
#601 = EDGE_CURVE('',#454,#569,#602,.T.);
#602 = LINE('',#603,#604);
#603 = CARTESIAN_POINT('',(-4.009719243357,2.5,1.15348994967));
#604 = VECTOR('',#605,1.);
#605 = DIRECTION('',(0.,-1.,0.));
#606 = ORIENTED_EDGE('',*,*,#568,.F.);
#607 = ORIENTED_EDGE('',*,*,#341,.F.);
#608 = CYLINDRICAL_SURFACE('',#609,0.1);
#609 = AXIS2_PLACEMENT_3D('',#610,#611,#612);
#610 = CARTESIAN_POINT('',(-3.909780160655,2.5,1.15));
#611 = DIRECTION('',(0.,-1.,0.));
#612 = DIRECTION('',(0.,0.,1.));
#613 = ADVANCED_FACE('',(#614),#620,.T.);
#614 = FACE_BOUND('',#615,.F.);
#615 = EDGE_LOOP('',(#616,#617,#618,#619));
#616 = ORIENTED_EDGE('',*,*,#485,.F.);
#617 = ORIENTED_EDGE('',*,*,#332,.T.);
#618 = ORIENTED_EDGE('',*,*,#594,.T.);
#619 = ORIENTED_EDGE('',*,*,#460,.F.);
#620 = TOROIDAL_SURFACE('',#621,0.359780160655,0.1);
#621 = AXIS2_PLACEMENT_3D('',#622,#623,#624);
#622 = CARTESIAN_POINT('',(-3.55,2.5,1.15));
#623 = DIRECTION('',(-0.,-0.,-1.));
#624 = DIRECTION('',(-9.7E-16,1.,0.));
#625 = ADVANCED_FACE('',(#626),#646,.T.);
#626 = FACE_BOUND('',#627,.T.);
#627 = EDGE_LOOP('',(#628,#637,#644,#645));
#628 = ORIENTED_EDGE('',*,*,#629,.F.);
#629 = EDGE_CURVE('',#630,#399,#632,.T.);
#630 = VERTEX_POINT('',#631);
#631 = CARTESIAN_POINT('',(3.55,-2.859780160655,-1.25));
#632 = CIRCLE('',#633,0.1);
#633 = AXIS2_PLACEMENT_3D('',#634,#635,#636);
#634 = CARTESIAN_POINT('',(3.55,-2.859780160655,-1.15));
#635 = DIRECTION('',(-1.,-0.,-0.));
#636 = DIRECTION('',(0.,0.,-1.));
#637 = ORIENTED_EDGE('',*,*,#638,.T.);
#638 = EDGE_CURVE('',#630,#365,#639,.T.);
#639 = CIRCLE('',#640,0.359780160655);
#640 = AXIS2_PLACEMENT_3D('',#641,#642,#643);
#641 = CARTESIAN_POINT('',(3.55,-2.5,-1.25));
#642 = DIRECTION('',(-0.,0.,1.));
#643 = DIRECTION('',(0.,-1.,0.));
#644 = ORIENTED_EDGE('',*,*,#364,.T.);
#645 = ORIENTED_EDGE('',*,*,#398,.F.);
#646 = TOROIDAL_SURFACE('',#647,0.359780160655,0.1);
#647 = AXIS2_PLACEMENT_3D('',#648,#649,#650);
#648 = CARTESIAN_POINT('',(3.55,-2.5,-1.15));
#649 = DIRECTION('',(0.,0.,1.));
#650 = DIRECTION('',(0.,-1.,0.));
#651 = ADVANCED_FACE('',(#652),#697,.F.);
#652 = FACE_BOUND('',#653,.F.);
#653 = EDGE_LOOP('',(#654,#662,#663,#664,#665,#673,#682,#690));
#654 = ORIENTED_EDGE('',*,*,#655,.T.);
#655 = EDGE_CURVE('',#656,#630,#658,.T.);
#656 = VERTEX_POINT('',#657);
#657 = CARTESIAN_POINT('',(-3.55,-2.859780160655,-1.25));
#658 = LINE('',#659,#660);
#659 = CARTESIAN_POINT('',(-3.55,-2.859780160655,-1.25));
#660 = VECTOR('',#661,1.);
#661 = DIRECTION('',(1.,0.,0.));
#662 = ORIENTED_EDGE('',*,*,#638,.T.);
#663 = ORIENTED_EDGE('',*,*,#383,.T.);
#664 = ORIENTED_EDGE('',*,*,#525,.T.);
#665 = ORIENTED_EDGE('',*,*,#666,.T.);
#666 = EDGE_CURVE('',#526,#667,#669,.T.);
#667 = VERTEX_POINT('',#668);
#668 = CARTESIAN_POINT('',(-3.55,2.859780160655,-1.25));
#669 = LINE('',#670,#671);
#670 = CARTESIAN_POINT('',(3.55,2.859780160655,-1.25));
#671 = VECTOR('',#672,1.);
#672 = DIRECTION('',(-1.,0.,0.));
#673 = ORIENTED_EDGE('',*,*,#674,.T.);
#674 = EDGE_CURVE('',#667,#675,#677,.T.);
#675 = VERTEX_POINT('',#676);
#676 = CARTESIAN_POINT('',(-3.909780160655,2.5,-1.25));
#677 = CIRCLE('',#678,0.359780160655);
#678 = AXIS2_PLACEMENT_3D('',#679,#680,#681);
#679 = CARTESIAN_POINT('',(-3.55,2.5,-1.25));
#680 = DIRECTION('',(0.,0.,1.));
#681 = DIRECTION('',(-9.7E-16,1.,0.));
#682 = ORIENTED_EDGE('',*,*,#683,.T.);
#683 = EDGE_CURVE('',#675,#684,#686,.T.);
#684 = VERTEX_POINT('',#685);
#685 = CARTESIAN_POINT('',(-3.909780160655,-2.5,-1.25));
#686 = LINE('',#687,#688);
#687 = CARTESIAN_POINT('',(-3.909780160655,2.5,-1.25));
#688 = VECTOR('',#689,1.);
#689 = DIRECTION('',(0.,-1.,0.));
#690 = ORIENTED_EDGE('',*,*,#691,.T.);
#691 = EDGE_CURVE('',#684,#656,#692,.T.);
#692 = CIRCLE('',#693,0.359780160655);
#693 = AXIS2_PLACEMENT_3D('',#694,#695,#696);
#694 = CARTESIAN_POINT('',(-3.55,-2.5,-1.25));
#695 = DIRECTION('',(0.,0.,1.));
#696 = DIRECTION('',(-1.,0.,0.));
#697 = PLANE('',#698);
#698 = AXIS2_PLACEMENT_3D('',#699,#700,#701);
#699 = CARTESIAN_POINT('',(3.55,2.5,-1.25));
#700 = DIRECTION('',(0.,0.,1.));
#701 = DIRECTION('',(1.,0.,0.));
#702 = ADVANCED_FACE('',(#703),#720,.F.);
#703 = FACE_BOUND('',#704,.F.);
#704 = EDGE_LOOP('',(#705,#706,#714,#719));
#705 = ORIENTED_EDGE('',*,*,#407,.T.);
#706 = ORIENTED_EDGE('',*,*,#707,.F.);
#707 = EDGE_CURVE('',#708,#399,#710,.T.);
#708 = VERTEX_POINT('',#709);
#709 = CARTESIAN_POINT('',(-3.55,-2.959719243357,-1.15348994967));
#710 = LINE('',#711,#712);
#711 = CARTESIAN_POINT('',(-3.55,-2.959719243357,-1.15348994967));
#712 = VECTOR('',#713,1.);
#713 = DIRECTION('',(1.,0.,0.));
#714 = ORIENTED_EDGE('',*,*,#715,.F.);
#715 = EDGE_CURVE('',#431,#708,#716,.T.);
#716 = B_SPLINE_CURVE_WITH_KNOTS('',1,(#717,#718),.UNSPECIFIED.,.F.,.F.,
  (2,2),(0.,1.),.PIECEWISE_BEZIER_KNOTS.);
#717 = CARTESIAN_POINT('',(-3.55,-3.,0.));
#718 = CARTESIAN_POINT('',(-3.55,-2.956349038135,-1.25));
#719 = ORIENTED_EDGE('',*,*,#437,.T.);
#720 = PLANE('',#721);
#721 = AXIS2_PLACEMENT_3D('',#722,#723,#724);
#722 = CARTESIAN_POINT('',(-3.55,-2.956349038135,-1.25));
#723 = DIRECTION('',(0.,0.999390827019,3.48994967025E-02));
#724 = DIRECTION('',(1.,0.,0.));
#725 = ADVANCED_FACE('',(#726),#744,.T.);
#726 = FACE_BOUND('',#727,.T.);
#727 = EDGE_LOOP('',(#728,#729,#730,#737));
#728 = ORIENTED_EDGE('',*,*,#430,.T.);
#729 = ORIENTED_EDGE('',*,*,#579,.F.);
#730 = ORIENTED_EDGE('',*,*,#731,.F.);
#731 = EDGE_CURVE('',#732,#569,#734,.T.);
#732 = VERTEX_POINT('',#733);
#733 = CARTESIAN_POINT('',(-4.05,-2.5,0.));
#734 = B_SPLINE_CURVE_WITH_KNOTS('',1,(#735,#736),.UNSPECIFIED.,.F.,.F.,
  (2,2),(0.,1.),.PIECEWISE_BEZIER_KNOTS.);
#735 = CARTESIAN_POINT('',(-4.05,-2.5,0.));
#736 = CARTESIAN_POINT('',(-4.006349038135,-2.5,1.25));
#737 = ORIENTED_EDGE('',*,*,#738,.T.);
#738 = EDGE_CURVE('',#732,#431,#739,.T.);
#739 = CIRCLE('',#740,0.5);
#740 = AXIS2_PLACEMENT_3D('',#741,#742,#743);
#741 = CARTESIAN_POINT('',(-3.55,-2.5,0.));
#742 = DIRECTION('',(0.,0.,1.));
#743 = DIRECTION('',(1.,0.,0.));
#744 = CONICAL_SURFACE('',#745,0.5,3.490658503989E-02);
#745 = AXIS2_PLACEMENT_3D('',#746,#747,#748);
#746 = CARTESIAN_POINT('',(-3.55,-2.5,0.));
#747 = DIRECTION('',(-0.,-0.,-1.));
#748 = DIRECTION('',(1.,0.,0.));
#749 = ADVANCED_FACE('',(#750),#761,.T.);
#750 = FACE_BOUND('',#751,.T.);
#751 = EDGE_LOOP('',(#752,#753,#754,#755));
#752 = ORIENTED_EDGE('',*,*,#731,.T.);
#753 = ORIENTED_EDGE('',*,*,#601,.F.);
#754 = ORIENTED_EDGE('',*,*,#451,.F.);
#755 = ORIENTED_EDGE('',*,*,#756,.T.);
#756 = EDGE_CURVE('',#452,#732,#757,.T.);
#757 = LINE('',#758,#759);
#758 = CARTESIAN_POINT('',(-4.05,2.5,0.));
#759 = VECTOR('',#760,1.);
#760 = DIRECTION('',(0.,-1.,0.));
#761 = PLANE('',#762);
#762 = AXIS2_PLACEMENT_3D('',#763,#764,#765);
#763 = CARTESIAN_POINT('',(-4.006349038135,2.5,1.25));
#764 = DIRECTION('',(-0.999390827019,0.,3.48994967025E-02));
#765 = DIRECTION('',(0.,-1.,0.));
#766 = ADVANCED_FACE('',(#767),#785,.T.);
#767 = FACE_BOUND('',#768,.F.);
#768 = EDGE_LOOP('',(#769,#776,#783,#784));
#769 = ORIENTED_EDGE('',*,*,#770,.T.);
#770 = EDGE_CURVE('',#452,#771,#773,.T.);
#771 = VERTEX_POINT('',#772);
#772 = CARTESIAN_POINT('',(-4.009719243357,2.5,-1.15348994967));
#773 = B_SPLINE_CURVE_WITH_KNOTS('',1,(#774,#775),.UNSPECIFIED.,.F.,.F.,
  (2,2),(0.,1.),.PIECEWISE_BEZIER_KNOTS.);
#774 = CARTESIAN_POINT('',(-4.05,2.5,0.));
#775 = CARTESIAN_POINT('',(-4.006349038135,2.5,-1.25));
#776 = ORIENTED_EDGE('',*,*,#777,.F.);
#777 = EDGE_CURVE('',#502,#771,#778,.T.);
#778 = CIRCLE('',#779,0.459719243357);
#779 = AXIS2_PLACEMENT_3D('',#780,#781,#782);
#780 = CARTESIAN_POINT('',(-3.55,2.5,-1.15348994967));
#781 = DIRECTION('',(0.,0.,1.));
#782 = DIRECTION('',(-9.7E-16,1.,0.));
#783 = ORIENTED_EDGE('',*,*,#501,.F.);
#784 = ORIENTED_EDGE('',*,*,#468,.T.);
#785 = CONICAL_SURFACE('',#786,0.5,3.490658503989E-02);
#786 = AXIS2_PLACEMENT_3D('',#787,#788,#789);
#787 = CARTESIAN_POINT('',(-3.55,2.5,0.));
#788 = DIRECTION('',(0.,0.,1.));
#789 = DIRECTION('',(1.,0.,0.));
#790 = ADVANCED_FACE('',(#791),#803,.T.);
#791 = FACE_BOUND('',#792,.F.);
#792 = EDGE_LOOP('',(#793,#794,#795,#802));
#793 = ORIENTED_EDGE('',*,*,#534,.T.);
#794 = ORIENTED_EDGE('',*,*,#508,.T.);
#795 = ORIENTED_EDGE('',*,*,#796,.F.);
#796 = EDGE_CURVE('',#667,#502,#797,.T.);
#797 = CIRCLE('',#798,0.1);
#798 = AXIS2_PLACEMENT_3D('',#799,#800,#801);
#799 = CARTESIAN_POINT('',(-3.55,2.859780160655,-1.15));
#800 = DIRECTION('',(1.,-0.,0.));
#801 = DIRECTION('',(0.,0.,-1.));
#802 = ORIENTED_EDGE('',*,*,#666,.F.);
#803 = CYLINDRICAL_SURFACE('',#804,0.1);
#804 = AXIS2_PLACEMENT_3D('',#805,#806,#807);
#805 = CARTESIAN_POINT('',(3.55,2.859780160655,-1.15));
#806 = DIRECTION('',(-1.,0.,0.));
#807 = DIRECTION('',(0.,0.,-1.));
#808 = ADVANCED_FACE('',(#809),#821,.T.);
#809 = FACE_BOUND('',#810,.F.);
#810 = EDGE_LOOP('',(#811,#818,#819,#820));
#811 = ORIENTED_EDGE('',*,*,#812,.T.);
#812 = EDGE_CURVE('',#656,#708,#813,.T.);
#813 = CIRCLE('',#814,0.1);
#814 = AXIS2_PLACEMENT_3D('',#815,#816,#817);
#815 = CARTESIAN_POINT('',(-3.55,-2.859780160655,-1.15));
#816 = DIRECTION('',(-1.,-0.,-0.));
#817 = DIRECTION('',(0.,0.,-1.));
#818 = ORIENTED_EDGE('',*,*,#707,.T.);
#819 = ORIENTED_EDGE('',*,*,#629,.F.);
#820 = ORIENTED_EDGE('',*,*,#655,.F.);
#821 = CYLINDRICAL_SURFACE('',#822,0.1);
#822 = AXIS2_PLACEMENT_3D('',#823,#824,#825);
#823 = CARTESIAN_POINT('',(-3.55,-2.859780160655,-1.15));
#824 = DIRECTION('',(1.,0.,0.));
#825 = DIRECTION('',(0.,0.,-1.));
#826 = ADVANCED_FACE('',(#827),#847,.T.);
#827 = FACE_BOUND('',#828,.T.);
#828 = EDGE_LOOP('',(#829,#838,#839,#840));
#829 = ORIENTED_EDGE('',*,*,#830,.F.);
#830 = EDGE_CURVE('',#684,#831,#833,.T.);
#831 = VERTEX_POINT('',#832);
#832 = CARTESIAN_POINT('',(-4.009719243357,-2.5,-1.15348994967));
#833 = CIRCLE('',#834,0.1);
#834 = AXIS2_PLACEMENT_3D('',#835,#836,#837);
#835 = CARTESIAN_POINT('',(-3.909780160655,-2.5,-1.15));
#836 = DIRECTION('',(0.,1.,0.));
#837 = DIRECTION('',(0.,0.,-1.));
#838 = ORIENTED_EDGE('',*,*,#691,.T.);
#839 = ORIENTED_EDGE('',*,*,#812,.T.);
#840 = ORIENTED_EDGE('',*,*,#841,.F.);
#841 = EDGE_CURVE('',#831,#708,#842,.T.);
#842 = CIRCLE('',#843,0.459719243357);
#843 = AXIS2_PLACEMENT_3D('',#844,#845,#846);
#844 = CARTESIAN_POINT('',(-3.55,-2.5,-1.15348994967));
#845 = DIRECTION('',(0.,0.,1.));
#846 = DIRECTION('',(-1.,0.,0.));
#847 = TOROIDAL_SURFACE('',#848,0.359780160655,0.1);
#848 = AXIS2_PLACEMENT_3D('',#849,#850,#851);
#849 = CARTESIAN_POINT('',(-3.55,-2.5,-1.15));
#850 = DIRECTION('',(0.,0.,1.));
#851 = DIRECTION('',(-1.,0.,0.));
#852 = ADVANCED_FACE('',(#853),#870,.T.);
#853 = FACE_BOUND('',#854,.F.);
#854 = EDGE_LOOP('',(#855,#862,#868,#869));
#855 = ORIENTED_EDGE('',*,*,#856,.T.);
#856 = EDGE_CURVE('',#675,#771,#857,.T.);
#857 = CIRCLE('',#858,0.1);
#858 = AXIS2_PLACEMENT_3D('',#859,#860,#861);
#859 = CARTESIAN_POINT('',(-3.909780160655,2.5,-1.15));
#860 = DIRECTION('',(-1.36E-15,1.,0.));
#861 = DIRECTION('',(-1.,-1.36E-15,0.));
#862 = ORIENTED_EDGE('',*,*,#863,.T.);
#863 = EDGE_CURVE('',#771,#831,#864,.T.);
#864 = LINE('',#865,#866);
#865 = CARTESIAN_POINT('',(-4.009719243357,2.5,-1.15348994967));
#866 = VECTOR('',#867,1.);
#867 = DIRECTION('',(0.,-1.,0.));
#868 = ORIENTED_EDGE('',*,*,#830,.F.);
#869 = ORIENTED_EDGE('',*,*,#683,.F.);
#870 = CYLINDRICAL_SURFACE('',#871,0.1);
#871 = AXIS2_PLACEMENT_3D('',#872,#873,#874);
#872 = CARTESIAN_POINT('',(-3.909780160655,2.5,-1.15));
#873 = DIRECTION('',(0.,-1.,0.));
#874 = DIRECTION('',(-0.,-0.,-1.));
#875 = ADVANCED_FACE('',(#876),#882,.T.);
#876 = FACE_BOUND('',#877,.T.);
#877 = EDGE_LOOP('',(#878,#879,#880,#881));
#878 = ORIENTED_EDGE('',*,*,#796,.F.);
#879 = ORIENTED_EDGE('',*,*,#674,.T.);
#880 = ORIENTED_EDGE('',*,*,#856,.T.);
#881 = ORIENTED_EDGE('',*,*,#777,.F.);
#882 = TOROIDAL_SURFACE('',#883,0.359780160655,0.1);
#883 = AXIS2_PLACEMENT_3D('',#884,#885,#886);
#884 = CARTESIAN_POINT('',(-3.55,2.5,-1.15));
#885 = DIRECTION('',(0.,0.,1.));
#886 = DIRECTION('',(-9.7E-16,1.,0.));
#887 = ADVANCED_FACE('',(#888),#898,.T.);
#888 = FACE_BOUND('',#889,.F.);
#889 = EDGE_LOOP('',(#890,#891,#892,#897));
#890 = ORIENTED_EDGE('',*,*,#715,.T.);
#891 = ORIENTED_EDGE('',*,*,#841,.F.);
#892 = ORIENTED_EDGE('',*,*,#893,.F.);
#893 = EDGE_CURVE('',#732,#831,#894,.T.);
#894 = B_SPLINE_CURVE_WITH_KNOTS('',1,(#895,#896),.UNSPECIFIED.,.F.,.F.,
  (2,2),(0.,1.),.PIECEWISE_BEZIER_KNOTS.);
#895 = CARTESIAN_POINT('',(-4.05,-2.5,0.));
#896 = CARTESIAN_POINT('',(-4.006349038135,-2.5,-1.25));
#897 = ORIENTED_EDGE('',*,*,#738,.T.);
#898 = CONICAL_SURFACE('',#899,0.5,3.490658503989E-02);
#899 = AXIS2_PLACEMENT_3D('',#900,#901,#902);
#900 = CARTESIAN_POINT('',(-3.55,-2.5,0.));
#901 = DIRECTION('',(0.,0.,1.));
#902 = DIRECTION('',(1.,0.,0.));
#903 = ADVANCED_FACE('',(#904),#910,.F.);
#904 = FACE_BOUND('',#905,.F.);
#905 = EDGE_LOOP('',(#906,#907,#908,#909));
#906 = ORIENTED_EDGE('',*,*,#893,.T.);
#907 = ORIENTED_EDGE('',*,*,#863,.F.);
#908 = ORIENTED_EDGE('',*,*,#770,.F.);
#909 = ORIENTED_EDGE('',*,*,#756,.T.);
#910 = PLANE('',#911);
#911 = AXIS2_PLACEMENT_3D('',#912,#913,#914);
#912 = CARTESIAN_POINT('',(-4.006349038135,2.5,-1.25));
#913 = DIRECTION('',(0.999390827019,0.,3.48994967025E-02));
#914 = DIRECTION('',(0.,-1.,0.));
#915 = ( GEOMETRIC_REPRESENTATION_CONTEXT(3) 
GLOBAL_UNCERTAINTY_ASSIGNED_CONTEXT((#919)) GLOBAL_UNIT_ASSIGNED_CONTEXT
((#916,#917,#918)) REPRESENTATION_CONTEXT('Context #1',
  '3D Context with UNIT and UNCERTAINTY') );
#916 = ( LENGTH_UNIT() NAMED_UNIT(*) SI_UNIT(.MILLI.,.METRE.) );
#917 = ( NAMED_UNIT(*) PLANE_ANGLE_UNIT() SI_UNIT($,.RADIAN.) );
#918 = ( NAMED_UNIT(*) SI_UNIT($,.STERADIAN.) SOLID_ANGLE_UNIT() );
#919 = UNCERTAINTY_MEASURE_WITH_UNIT(LENGTH_MEASURE(1.E-07),#916,
  'distance_accuracy_value','confusion accuracy');
#920 = CONTEXT_DEPENDENT_SHAPE_REPRESENTATION(#921,#923);
#921 = ( REPRESENTATION_RELATIONSHIP('','',#36,#10) 
REPRESENTATION_RELATIONSHIP_WITH_TRANSFORMATION(#922) 
SHAPE_REPRESENTATION_RELATIONSHIP() );
#922 = ITEM_DEFINED_TRANSFORMATION('','',#11,#15);
#923 = PRODUCT_DEFINITION_SHAPE('Placement','Placement of an item',#924
  );
#924 = NEXT_ASSEMBLY_USAGE_OCCURRENCE('1','Body','',#5,#31,$);
#925 = PRODUCT_RELATED_PRODUCT_CATEGORY('part',$,(#33));
#926 = SHAPE_DEFINITION_REPRESENTATION(#927,#933);
#927 = PRODUCT_DEFINITION_SHAPE('','',#928);
#928 = PRODUCT_DEFINITION('design','',#929,#932);
#929 = PRODUCT_DEFINITION_FORMATION('','',#930);
#930 = PRODUCT('Body001','Body001','',(#931));
#931 = PRODUCT_CONTEXT('',#2,'mechanical');
#932 = PRODUCT_DEFINITION_CONTEXT('part definition',#2,'design');
#933 = ADVANCED_BREP_SHAPE_REPRESENTATION('',(#11,#934),#1752);
#934 = MANIFOLD_SOLID_BREP('',#935);
#935 = CLOSED_SHELL('',(#936,#976,#1007,#1038,#1119,#1200,#1267,#1334,
    #1358,#1423,#1440,#1457,#1474,#1541,#1558,#1575,#1592,#1609,#1626,
    #1643,#1660,#1672,#1689,#1706,#1723,#1740));
#936 = ADVANCED_FACE('',(#937),#971,.T.);
#937 = FACE_BOUND('',#938,.T.);
#938 = EDGE_LOOP('',(#939,#949,#957,#965));
#939 = ORIENTED_EDGE('',*,*,#940,.T.);
#940 = EDGE_CURVE('',#941,#943,#945,.T.);
#941 = VERTEX_POINT('',#942);
#942 = CARTESIAN_POINT('',(-4.680175376545,-1.25,-0.150000000003));
#943 = VERTEX_POINT('',#944);
#944 = CARTESIAN_POINT('',(-4.680175376545,1.25,-0.150000000003));
#945 = LINE('',#946,#947);
#946 = CARTESIAN_POINT('',(-4.680175376545,-1.25,-0.150000000003));
#947 = VECTOR('',#948,1.);
#948 = DIRECTION('',(0.,1.,-2.2E-16));
#949 = ORIENTED_EDGE('',*,*,#950,.T.);
#950 = EDGE_CURVE('',#943,#951,#953,.T.);
#951 = VERTEX_POINT('',#952);
#952 = CARTESIAN_POINT('',(4.680175376544,1.25,-0.150000000003));
#953 = LINE('',#954,#955);
#954 = CARTESIAN_POINT('',(-4.680175376545,1.25,-0.150000000003));
#955 = VECTOR('',#956,1.);
#956 = DIRECTION('',(1.,0.,0.));
#957 = ORIENTED_EDGE('',*,*,#958,.F.);
#958 = EDGE_CURVE('',#959,#951,#961,.T.);
#959 = VERTEX_POINT('',#960);
#960 = CARTESIAN_POINT('',(4.680175376544,-1.25,-0.150000000003));
#961 = LINE('',#962,#963);
#962 = CARTESIAN_POINT('',(4.680175376544,-1.25,-0.150000000003));
#963 = VECTOR('',#964,1.);
#964 = DIRECTION('',(0.,1.,-2.2E-16));
#965 = ORIENTED_EDGE('',*,*,#966,.F.);
#966 = EDGE_CURVE('',#941,#959,#967,.T.);
#967 = LINE('',#968,#969);
#968 = CARTESIAN_POINT('',(-4.680175376545,-1.25,-0.150000000003));
#969 = VECTOR('',#970,1.);
#970 = DIRECTION('',(1.,0.,0.));
#971 = PLANE('',#972);
#972 = AXIS2_PLACEMENT_3D('',#973,#974,#975);
#973 = CARTESIAN_POINT('',(-4.680175376545,-1.25,-0.150000000003));
#974 = DIRECTION('',(0.,-2.2E-16,-1.));
#975 = DIRECTION('',(1.,0.,0.));
#976 = ADVANCED_FACE('',(#977),#1002,.F.);
#977 = FACE_BOUND('',#978,.F.);
#978 = EDGE_LOOP('',(#979,#980,#988,#996));
#979 = ORIENTED_EDGE('',*,*,#940,.T.);
#980 = ORIENTED_EDGE('',*,*,#981,.T.);
#981 = EDGE_CURVE('',#943,#982,#984,.T.);
#982 = VERTEX_POINT('',#983);
#983 = CARTESIAN_POINT('',(-4.874135055323,1.25,-1.25));
#984 = LINE('',#985,#986);
#985 = CARTESIAN_POINT('',(-4.680175376545,1.25,-0.150000000003));
#986 = VECTOR('',#987,1.);
#987 = DIRECTION('',(-0.173648177667,-0.,-0.984807753012));
#988 = ORIENTED_EDGE('',*,*,#989,.F.);
#989 = EDGE_CURVE('',#990,#982,#992,.T.);
#990 = VERTEX_POINT('',#991);
#991 = CARTESIAN_POINT('',(-4.874135055323,-1.25,-1.25));
#992 = LINE('',#993,#994);
#993 = CARTESIAN_POINT('',(-4.874135055323,-1.25,-1.25));
#994 = VECTOR('',#995,1.);
#995 = DIRECTION('',(0.,1.,-2.2E-16));
#996 = ORIENTED_EDGE('',*,*,#997,.F.);
#997 = EDGE_CURVE('',#941,#990,#998,.T.);
#998 = LINE('',#999,#1000);
#999 = CARTESIAN_POINT('',(-4.680175376545,-1.25,-0.150000000003));
#1000 = VECTOR('',#1001,1.);
#1001 = DIRECTION('',(-0.173648177667,-0.,-0.984807753012));
#1002 = PLANE('',#1003);
#1003 = AXIS2_PLACEMENT_3D('',#1004,#1005,#1006);
#1004 = CARTESIAN_POINT('',(-4.680175376545,-1.25,-0.150000000003));
#1005 = DIRECTION('',(-0.984807753012,4.E-17,0.173648177667));
#1006 = DIRECTION('',(-0.173648177667,-2.2E-16,-0.984807753012));
#1007 = ADVANCED_FACE('',(#1008),#1033,.T.);
#1008 = FACE_BOUND('',#1009,.T.);
#1009 = EDGE_LOOP('',(#1010,#1011,#1019,#1027));
#1010 = ORIENTED_EDGE('',*,*,#958,.T.);
#1011 = ORIENTED_EDGE('',*,*,#1012,.T.);
#1012 = EDGE_CURVE('',#951,#1013,#1015,.T.);
#1013 = VERTEX_POINT('',#1014);
#1014 = CARTESIAN_POINT('',(4.874135055323,1.25,-1.25));
#1015 = LINE('',#1016,#1017);
#1016 = CARTESIAN_POINT('',(4.680175376544,1.25,-0.150000000003));
#1017 = VECTOR('',#1018,1.);
#1018 = DIRECTION('',(0.173648177667,0.,-0.984807753012));
#1019 = ORIENTED_EDGE('',*,*,#1020,.F.);
#1020 = EDGE_CURVE('',#1021,#1013,#1023,.T.);
#1021 = VERTEX_POINT('',#1022);
#1022 = CARTESIAN_POINT('',(4.874135055323,-1.25,-1.25));
#1023 = LINE('',#1024,#1025);
#1024 = CARTESIAN_POINT('',(4.874135055323,-1.25,-1.25));
#1025 = VECTOR('',#1026,1.);
#1026 = DIRECTION('',(0.,1.,-2.2E-16));
#1027 = ORIENTED_EDGE('',*,*,#1028,.F.);
#1028 = EDGE_CURVE('',#959,#1021,#1029,.T.);
#1029 = LINE('',#1030,#1031);
#1030 = CARTESIAN_POINT('',(4.680175376544,-1.25,-0.150000000003));
#1031 = VECTOR('',#1032,1.);
#1032 = DIRECTION('',(0.173648177667,0.,-0.984807753012));
#1033 = PLANE('',#1034);
#1034 = AXIS2_PLACEMENT_3D('',#1035,#1036,#1037);
#1035 = CARTESIAN_POINT('',(4.680175376544,-1.25,-0.150000000003));
#1036 = DIRECTION('',(-0.984807753012,-4.E-17,-0.173648177667));
#1037 = DIRECTION('',(0.173648177667,-2.2E-16,-0.984807753012));
#1038 = ADVANCED_FACE('',(#1039),#1114,.F.);
#1039 = FACE_BOUND('',#1040,.T.);
#1040 = EDGE_LOOP('',(#1041,#1042,#1043,#1051,#1059,#1067,#1075,#1083,
    #1091,#1099,#1107,#1113));
#1041 = ORIENTED_EDGE('',*,*,#966,.T.);
#1042 = ORIENTED_EDGE('',*,*,#1028,.T.);
#1043 = ORIENTED_EDGE('',*,*,#1044,.T.);
#1044 = EDGE_CURVE('',#1021,#1045,#1047,.T.);
#1045 = VERTEX_POINT('',#1046);
#1046 = CARTESIAN_POINT('',(5.7,-1.25,-1.25));
#1047 = LINE('',#1048,#1049);
#1048 = CARTESIAN_POINT('',(4.874135055323,-1.25,-1.25));
#1049 = VECTOR('',#1050,1.);
#1050 = DIRECTION('',(1.,0.,0.));
#1051 = ORIENTED_EDGE('',*,*,#1052,.T.);
#1052 = EDGE_CURVE('',#1045,#1053,#1055,.T.);
#1053 = VERTEX_POINT('',#1054);
#1054 = CARTESIAN_POINT('',(5.7,-1.25,-1.1));
#1055 = LINE('',#1056,#1057);
#1056 = CARTESIAN_POINT('',(5.7,-1.25,-1.25));
#1057 = VECTOR('',#1058,1.);
#1058 = DIRECTION('',(0.,0.,1.));
#1059 = ORIENTED_EDGE('',*,*,#1060,.T.);
#1060 = EDGE_CURVE('',#1053,#1061,#1063,.T.);
#1061 = VERTEX_POINT('',#1062);
#1062 = CARTESIAN_POINT('',(5.,-1.25,-1.1));
#1063 = LINE('',#1064,#1065);
#1064 = CARTESIAN_POINT('',(5.7,-1.25,-1.1));
#1065 = VECTOR('',#1066,1.);
#1066 = DIRECTION('',(-1.,0.,0.));
#1067 = ORIENTED_EDGE('',*,*,#1068,.F.);
#1068 = EDGE_CURVE('',#1069,#1061,#1071,.T.);
#1069 = VERTEX_POINT('',#1070);
#1070 = CARTESIAN_POINT('',(4.806040321221,-1.25,0.));
#1071 = LINE('',#1072,#1073);
#1072 = CARTESIAN_POINT('',(4.806040321221,-1.25,0.));
#1073 = VECTOR('',#1074,1.);
#1074 = DIRECTION('',(0.173648177667,0.,-0.984807753012));
#1075 = ORIENTED_EDGE('',*,*,#1076,.T.);
#1076 = EDGE_CURVE('',#1069,#1077,#1079,.T.);
#1077 = VERTEX_POINT('',#1078);
#1078 = CARTESIAN_POINT('',(-4.806040321221,-1.25,0.));
#1079 = LINE('',#1080,#1081);
#1080 = CARTESIAN_POINT('',(4.806040321221,-1.25,2.8E-16));
#1081 = VECTOR('',#1082,1.);
#1082 = DIRECTION('',(-1.,0.,0.));
#1083 = ORIENTED_EDGE('',*,*,#1084,.T.);
#1084 = EDGE_CURVE('',#1077,#1085,#1087,.T.);
#1085 = VERTEX_POINT('',#1086);
#1086 = CARTESIAN_POINT('',(-5.,-1.25,-1.1));
#1087 = LINE('',#1088,#1089);
#1088 = CARTESIAN_POINT('',(-4.806040321221,-1.25,0.));
#1089 = VECTOR('',#1090,1.);
#1090 = DIRECTION('',(-0.173648177667,-0.,-0.984807753012));
#1091 = ORIENTED_EDGE('',*,*,#1092,.T.);
#1092 = EDGE_CURVE('',#1085,#1093,#1095,.T.);
#1093 = VERTEX_POINT('',#1094);
#1094 = CARTESIAN_POINT('',(-5.7,-1.25,-1.1));
#1095 = LINE('',#1096,#1097);
#1096 = CARTESIAN_POINT('',(-5.,-1.25,-1.1));
#1097 = VECTOR('',#1098,1.);
#1098 = DIRECTION('',(-1.,0.,0.));
#1099 = ORIENTED_EDGE('',*,*,#1100,.T.);
#1100 = EDGE_CURVE('',#1093,#1101,#1103,.T.);
#1101 = VERTEX_POINT('',#1102);
#1102 = CARTESIAN_POINT('',(-5.7,-1.25,-1.25));
#1103 = LINE('',#1104,#1105);
#1104 = CARTESIAN_POINT('',(-5.7,-1.25,-1.1));
#1105 = VECTOR('',#1106,1.);
#1106 = DIRECTION('',(0.,0.,-1.));
#1107 = ORIENTED_EDGE('',*,*,#1108,.F.);
#1108 = EDGE_CURVE('',#990,#1101,#1109,.T.);
#1109 = LINE('',#1110,#1111);
#1110 = CARTESIAN_POINT('',(-4.874135055323,-1.25,-1.25));
#1111 = VECTOR('',#1112,1.);
#1112 = DIRECTION('',(-1.,0.,0.));
#1113 = ORIENTED_EDGE('',*,*,#997,.F.);
#1114 = PLANE('',#1115);
#1115 = AXIS2_PLACEMENT_3D('',#1116,#1117,#1118);
#1116 = CARTESIAN_POINT('',(-2.576E-14,-1.25,-0.304330638923));
#1117 = DIRECTION('',(0.,1.,0.));
#1118 = DIRECTION('',(0.,0.,1.));
#1119 = ADVANCED_FACE('',(#1120),#1195,.T.);
#1120 = FACE_BOUND('',#1121,.F.);
#1121 = EDGE_LOOP('',(#1122,#1123,#1124,#1132,#1140,#1148,#1156,#1164,
    #1172,#1180,#1188,#1194));
#1122 = ORIENTED_EDGE('',*,*,#950,.T.);
#1123 = ORIENTED_EDGE('',*,*,#1012,.T.);
#1124 = ORIENTED_EDGE('',*,*,#1125,.T.);
#1125 = EDGE_CURVE('',#1013,#1126,#1128,.T.);
#1126 = VERTEX_POINT('',#1127);
#1127 = CARTESIAN_POINT('',(5.7,1.25,-1.25));
#1128 = LINE('',#1129,#1130);
#1129 = CARTESIAN_POINT('',(4.874135055323,1.25,-1.25));
#1130 = VECTOR('',#1131,1.);
#1131 = DIRECTION('',(1.,0.,0.));
#1132 = ORIENTED_EDGE('',*,*,#1133,.T.);
#1133 = EDGE_CURVE('',#1126,#1134,#1136,.T.);
#1134 = VERTEX_POINT('',#1135);
#1135 = CARTESIAN_POINT('',(5.7,1.25,-1.1));
#1136 = LINE('',#1137,#1138);
#1137 = CARTESIAN_POINT('',(5.7,1.25,-1.25));
#1138 = VECTOR('',#1139,1.);
#1139 = DIRECTION('',(0.,0.,1.));
#1140 = ORIENTED_EDGE('',*,*,#1141,.T.);
#1141 = EDGE_CURVE('',#1134,#1142,#1144,.T.);
#1142 = VERTEX_POINT('',#1143);
#1143 = CARTESIAN_POINT('',(5.,1.25,-1.1));
#1144 = LINE('',#1145,#1146);
#1145 = CARTESIAN_POINT('',(5.7,1.25,-1.1));
#1146 = VECTOR('',#1147,1.);
#1147 = DIRECTION('',(-1.,0.,0.));
#1148 = ORIENTED_EDGE('',*,*,#1149,.F.);
#1149 = EDGE_CURVE('',#1150,#1142,#1152,.T.);
#1150 = VERTEX_POINT('',#1151);
#1151 = CARTESIAN_POINT('',(4.806040321221,1.25,0.));
#1152 = LINE('',#1153,#1154);
#1153 = CARTESIAN_POINT('',(4.806040321221,1.25,-1.E-15));
#1154 = VECTOR('',#1155,1.);
#1155 = DIRECTION('',(0.173648177667,0.,-0.984807753012));
#1156 = ORIENTED_EDGE('',*,*,#1157,.T.);
#1157 = EDGE_CURVE('',#1150,#1158,#1160,.T.);
#1158 = VERTEX_POINT('',#1159);
#1159 = CARTESIAN_POINT('',(-4.806040321221,1.25,0.));
#1160 = LINE('',#1161,#1162);
#1161 = CARTESIAN_POINT('',(0.,1.25,-2.8E-16));
#1162 = VECTOR('',#1163,1.);
#1163 = DIRECTION('',(-1.,0.,0.));
#1164 = ORIENTED_EDGE('',*,*,#1165,.T.);
#1165 = EDGE_CURVE('',#1158,#1166,#1168,.T.);
#1166 = VERTEX_POINT('',#1167);
#1167 = CARTESIAN_POINT('',(-5.,1.25,-1.1));
#1168 = LINE('',#1169,#1170);
#1169 = CARTESIAN_POINT('',(-4.806040321221,1.25,-1.E-15));
#1170 = VECTOR('',#1171,1.);
#1171 = DIRECTION('',(-0.173648177667,-0.,-0.984807753012));
#1172 = ORIENTED_EDGE('',*,*,#1173,.T.);
#1173 = EDGE_CURVE('',#1166,#1174,#1176,.T.);
#1174 = VERTEX_POINT('',#1175);
#1175 = CARTESIAN_POINT('',(-5.7,1.25,-1.1));
#1176 = LINE('',#1177,#1178);
#1177 = CARTESIAN_POINT('',(-5.,1.25,-1.1));
#1178 = VECTOR('',#1179,1.);
#1179 = DIRECTION('',(-1.,0.,0.));
#1180 = ORIENTED_EDGE('',*,*,#1181,.T.);
#1181 = EDGE_CURVE('',#1174,#1182,#1184,.T.);
#1182 = VERTEX_POINT('',#1183);
#1183 = CARTESIAN_POINT('',(-5.7,1.25,-1.25));
#1184 = LINE('',#1185,#1186);
#1185 = CARTESIAN_POINT('',(-5.7,1.25,-1.1));
#1186 = VECTOR('',#1187,1.);
#1187 = DIRECTION('',(0.,0.,-1.));
#1188 = ORIENTED_EDGE('',*,*,#1189,.F.);
#1189 = EDGE_CURVE('',#982,#1182,#1190,.T.);
#1190 = LINE('',#1191,#1192);
#1191 = CARTESIAN_POINT('',(-4.874135055323,1.25,-1.25));
#1192 = VECTOR('',#1193,1.);
#1193 = DIRECTION('',(-1.,0.,0.));
#1194 = ORIENTED_EDGE('',*,*,#981,.F.);
#1195 = PLANE('',#1196);
#1196 = AXIS2_PLACEMENT_3D('',#1197,#1198,#1199);
#1197 = CARTESIAN_POINT('',(-2.576E-14,1.25,-0.304330638923));
#1198 = DIRECTION('',(0.,1.,0.));
#1199 = DIRECTION('',(0.,0.,1.));
#1200 = ADVANCED_FACE('',(#1201),#1262,.F.);
#1201 = FACE_BOUND('',#1202,.F.);
#1202 = EDGE_LOOP('',(#1203,#1204,#1205,#1206,#1214,#1222,#1231,#1239,
    #1248,#1256));
#1203 = ORIENTED_EDGE('',*,*,#1108,.F.);
#1204 = ORIENTED_EDGE('',*,*,#989,.T.);
#1205 = ORIENTED_EDGE('',*,*,#1189,.T.);
#1206 = ORIENTED_EDGE('',*,*,#1207,.F.);
#1207 = EDGE_CURVE('',#1208,#1182,#1210,.T.);
#1208 = VERTEX_POINT('',#1209);
#1209 = CARTESIAN_POINT('',(-5.7,0.5,-1.25));
#1210 = LINE('',#1211,#1212);
#1211 = CARTESIAN_POINT('',(-5.7,-1.25,-1.25));
#1212 = VECTOR('',#1213,1.);
#1213 = DIRECTION('',(0.,1.,-2.2E-16));
#1214 = ORIENTED_EDGE('',*,*,#1215,.F.);
#1215 = EDGE_CURVE('',#1216,#1208,#1218,.T.);
#1216 = VERTEX_POINT('',#1217);
#1217 = CARTESIAN_POINT('',(-5.45,0.5,-1.25));
#1218 = LINE('',#1219,#1220);
#1219 = CARTESIAN_POINT('',(-5.162067527662,0.5,-1.25));
#1220 = VECTOR('',#1221,1.);
#1221 = DIRECTION('',(-1.,0.,0.));
#1222 = ORIENTED_EDGE('',*,*,#1223,.F.);
#1223 = EDGE_CURVE('',#1224,#1216,#1226,.T.);
#1224 = VERTEX_POINT('',#1225);
#1225 = CARTESIAN_POINT('',(-5.2,0.25,-1.25));
#1226 = CIRCLE('',#1227,0.25);
#1227 = AXIS2_PLACEMENT_3D('',#1228,#1229,#1230);
#1228 = CARTESIAN_POINT('',(-5.45,0.25,-1.25));
#1229 = DIRECTION('',(0.,0.,1.));
#1230 = DIRECTION('',(1.,0.,-0.));
#1231 = ORIENTED_EDGE('',*,*,#1232,.F.);
#1232 = EDGE_CURVE('',#1233,#1224,#1235,.T.);
#1233 = VERTEX_POINT('',#1234);
#1234 = CARTESIAN_POINT('',(-5.2,-0.25,-1.25));
#1235 = LINE('',#1236,#1237);
#1236 = CARTESIAN_POINT('',(-5.2,-0.75,-1.25));
#1237 = VECTOR('',#1238,1.);
#1238 = DIRECTION('',(0.,1.,-2.2E-16));
#1239 = ORIENTED_EDGE('',*,*,#1240,.F.);
#1240 = EDGE_CURVE('',#1241,#1233,#1243,.T.);
#1241 = VERTEX_POINT('',#1242);
#1242 = CARTESIAN_POINT('',(-5.45,-0.5,-1.25));
#1243 = CIRCLE('',#1244,0.25);
#1244 = AXIS2_PLACEMENT_3D('',#1245,#1246,#1247);
#1245 = CARTESIAN_POINT('',(-5.45,-0.25,-1.25));
#1246 = DIRECTION('',(0.,0.,1.));
#1247 = DIRECTION('',(1.,0.,-0.));
#1248 = ORIENTED_EDGE('',*,*,#1249,.F.);
#1249 = EDGE_CURVE('',#1250,#1241,#1252,.T.);
#1250 = VERTEX_POINT('',#1251);
#1251 = CARTESIAN_POINT('',(-5.7,-0.5,-1.25));
#1252 = LINE('',#1253,#1254);
#1253 = CARTESIAN_POINT('',(-5.537067527662,-0.5,-1.25));
#1254 = VECTOR('',#1255,1.);
#1255 = DIRECTION('',(1.,0.,0.));
#1256 = ORIENTED_EDGE('',*,*,#1257,.F.);
#1257 = EDGE_CURVE('',#1101,#1250,#1258,.T.);
#1258 = LINE('',#1259,#1260);
#1259 = CARTESIAN_POINT('',(-5.7,-1.25,-1.25));
#1260 = VECTOR('',#1261,1.);
#1261 = DIRECTION('',(0.,1.,-2.2E-16));
#1262 = PLANE('',#1263);
#1263 = AXIS2_PLACEMENT_3D('',#1264,#1265,#1266);
#1264 = CARTESIAN_POINT('',(-4.874135055323,-1.25,-1.25));
#1265 = DIRECTION('',(0.,2.2E-16,1.));
#1266 = DIRECTION('',(-1.,0.,0.));
#1267 = ADVANCED_FACE('',(#1268),#1329,.T.);
#1268 = FACE_BOUND('',#1269,.T.);
#1269 = EDGE_LOOP('',(#1270,#1271,#1272,#1273,#1281,#1289,#1298,#1306,
    #1315,#1323));
#1270 = ORIENTED_EDGE('',*,*,#1044,.F.);
#1271 = ORIENTED_EDGE('',*,*,#1020,.T.);
#1272 = ORIENTED_EDGE('',*,*,#1125,.T.);
#1273 = ORIENTED_EDGE('',*,*,#1274,.F.);
#1274 = EDGE_CURVE('',#1275,#1126,#1277,.T.);
#1275 = VERTEX_POINT('',#1276);
#1276 = CARTESIAN_POINT('',(5.7,0.5,-1.25));
#1277 = LINE('',#1278,#1279);
#1278 = CARTESIAN_POINT('',(5.7,-1.25,-1.25));
#1279 = VECTOR('',#1280,1.);
#1280 = DIRECTION('',(0.,1.,-2.2E-16));
#1281 = ORIENTED_EDGE('',*,*,#1282,.F.);
#1282 = EDGE_CURVE('',#1283,#1275,#1285,.T.);
#1283 = VERTEX_POINT('',#1284);
#1284 = CARTESIAN_POINT('',(5.450000000002,0.5,-1.25));
#1285 = LINE('',#1286,#1287);
#1286 = CARTESIAN_POINT('',(5.537067527662,0.5,-1.25));
#1287 = VECTOR('',#1288,1.);
#1288 = DIRECTION('',(1.,0.,0.));
#1289 = ORIENTED_EDGE('',*,*,#1290,.T.);
#1290 = EDGE_CURVE('',#1283,#1291,#1293,.T.);
#1291 = VERTEX_POINT('',#1292);
#1292 = CARTESIAN_POINT('',(5.200000000002,0.25,-1.25));
#1293 = CIRCLE('',#1294,0.25);
#1294 = AXIS2_PLACEMENT_3D('',#1295,#1296,#1297);
#1295 = CARTESIAN_POINT('',(5.450000000002,0.25,-1.25));
#1296 = DIRECTION('',(0.,0.,1.));
#1297 = DIRECTION('',(1.,0.,-0.));
#1298 = ORIENTED_EDGE('',*,*,#1299,.F.);
#1299 = EDGE_CURVE('',#1300,#1291,#1302,.T.);
#1300 = VERTEX_POINT('',#1301);
#1301 = CARTESIAN_POINT('',(5.200000000002,-0.25,-1.25));
#1302 = LINE('',#1303,#1304);
#1303 = CARTESIAN_POINT('',(5.200000000002,-0.5,-1.25));
#1304 = VECTOR('',#1305,1.);
#1305 = DIRECTION('',(0.,1.,-2.2E-16));
#1306 = ORIENTED_EDGE('',*,*,#1307,.T.);
#1307 = EDGE_CURVE('',#1300,#1308,#1310,.T.);
#1308 = VERTEX_POINT('',#1309);
#1309 = CARTESIAN_POINT('',(5.450000000002,-0.5,-1.25));
#1310 = CIRCLE('',#1311,0.25);
#1311 = AXIS2_PLACEMENT_3D('',#1312,#1313,#1314);
#1312 = CARTESIAN_POINT('',(5.450000000002,-0.25,-1.25));
#1313 = DIRECTION('',(0.,0.,1.));
#1314 = DIRECTION('',(1.,0.,-0.));
#1315 = ORIENTED_EDGE('',*,*,#1316,.F.);
#1316 = EDGE_CURVE('',#1317,#1308,#1319,.T.);
#1317 = VERTEX_POINT('',#1318);
#1318 = CARTESIAN_POINT('',(5.7,-0.5,-1.25));
#1319 = LINE('',#1320,#1321);
#1320 = CARTESIAN_POINT('',(5.162067527662,-0.5,-1.25));
#1321 = VECTOR('',#1322,1.);
#1322 = DIRECTION('',(-1.,0.,0.));
#1323 = ORIENTED_EDGE('',*,*,#1324,.F.);
#1324 = EDGE_CURVE('',#1045,#1317,#1325,.T.);
#1325 = LINE('',#1326,#1327);
#1326 = CARTESIAN_POINT('',(5.7,-1.25,-1.25));
#1327 = VECTOR('',#1328,1.);
#1328 = DIRECTION('',(0.,1.,-2.2E-16));
#1329 = PLANE('',#1330);
#1330 = AXIS2_PLACEMENT_3D('',#1331,#1332,#1333);
#1331 = CARTESIAN_POINT('',(4.874135055323,-1.25,-1.25));
#1332 = DIRECTION('',(0.,-2.2E-16,-1.));
#1333 = DIRECTION('',(1.,0.,0.));
#1334 = ADVANCED_FACE('',(#1335),#1353,.T.);
#1335 = FACE_BOUND('',#1336,.T.);
#1336 = EDGE_LOOP('',(#1337,#1338,#1339,#1347));
#1337 = ORIENTED_EDGE('',*,*,#1052,.F.);
#1338 = ORIENTED_EDGE('',*,*,#1324,.T.);
#1339 = ORIENTED_EDGE('',*,*,#1340,.F.);
#1340 = EDGE_CURVE('',#1341,#1317,#1343,.T.);
#1341 = VERTEX_POINT('',#1342);
#1342 = CARTESIAN_POINT('',(5.7,-0.5,-1.1));
#1343 = LINE('',#1344,#1345);
#1344 = CARTESIAN_POINT('',(5.7,-0.5,-1.175));
#1345 = VECTOR('',#1346,1.);
#1346 = DIRECTION('',(0.,0.,-1.));
#1347 = ORIENTED_EDGE('',*,*,#1348,.F.);
#1348 = EDGE_CURVE('',#1053,#1341,#1349,.T.);
#1349 = LINE('',#1350,#1351);
#1350 = CARTESIAN_POINT('',(5.7,-1.25,-1.1));
#1351 = VECTOR('',#1352,1.);
#1352 = DIRECTION('',(0.,1.,-2.2E-16));
#1353 = PLANE('',#1354);
#1354 = AXIS2_PLACEMENT_3D('',#1355,#1356,#1357);
#1355 = CARTESIAN_POINT('',(5.7,-1.25,-1.25));
#1356 = DIRECTION('',(1.,0.,0.));
#1357 = DIRECTION('',(0.,2.2E-16,1.));
#1358 = ADVANCED_FACE('',(#1359),#1418,.T.);
#1359 = FACE_BOUND('',#1360,.T.);
#1360 = EDGE_LOOP('',(#1361,#1362,#1363,#1371,#1380,#1388,#1397,#1405,
    #1411,#1412));
#1361 = ORIENTED_EDGE('',*,*,#1060,.F.);
#1362 = ORIENTED_EDGE('',*,*,#1348,.T.);
#1363 = ORIENTED_EDGE('',*,*,#1364,.F.);
#1364 = EDGE_CURVE('',#1365,#1341,#1367,.T.);
#1365 = VERTEX_POINT('',#1366);
#1366 = CARTESIAN_POINT('',(5.450000000002,-0.5,-1.1));
#1367 = LINE('',#1368,#1369);
#1368 = CARTESIAN_POINT('',(5.450000000002,-0.5,-1.1));
#1369 = VECTOR('',#1370,1.);
#1370 = DIRECTION('',(1.,0.,0.));
#1371 = ORIENTED_EDGE('',*,*,#1372,.F.);
#1372 = EDGE_CURVE('',#1373,#1365,#1375,.T.);
#1373 = VERTEX_POINT('',#1374);
#1374 = CARTESIAN_POINT('',(5.200000000002,-0.25,-1.1));
#1375 = CIRCLE('',#1376,0.25);
#1376 = AXIS2_PLACEMENT_3D('',#1377,#1378,#1379);
#1377 = CARTESIAN_POINT('',(5.450000000002,-0.25,-1.1));
#1378 = DIRECTION('',(0.,0.,1.));
#1379 = DIRECTION('',(1.,0.,0.));
#1380 = ORIENTED_EDGE('',*,*,#1381,.F.);
#1381 = EDGE_CURVE('',#1382,#1373,#1384,.T.);
#1382 = VERTEX_POINT('',#1383);
#1383 = CARTESIAN_POINT('',(5.200000000002,0.25,-1.1));
#1384 = LINE('',#1385,#1386);
#1385 = CARTESIAN_POINT('',(5.200000000002,0.25,-1.1));
#1386 = VECTOR('',#1387,1.);
#1387 = DIRECTION('',(0.,-1.,0.));
#1388 = ORIENTED_EDGE('',*,*,#1389,.F.);
#1389 = EDGE_CURVE('',#1390,#1382,#1392,.T.);
#1390 = VERTEX_POINT('',#1391);
#1391 = CARTESIAN_POINT('',(5.450000000002,0.5,-1.1));
#1392 = CIRCLE('',#1393,0.25);
#1393 = AXIS2_PLACEMENT_3D('',#1394,#1395,#1396);
#1394 = CARTESIAN_POINT('',(5.450000000002,0.25,-1.1));
#1395 = DIRECTION('',(0.,0.,1.));
#1396 = DIRECTION('',(1.,0.,0.));
#1397 = ORIENTED_EDGE('',*,*,#1398,.F.);
#1398 = EDGE_CURVE('',#1399,#1390,#1401,.T.);
#1399 = VERTEX_POINT('',#1400);
#1400 = CARTESIAN_POINT('',(5.7,0.5,-1.1));
#1401 = LINE('',#1402,#1403);
#1402 = CARTESIAN_POINT('',(6.200000000002,0.5,-1.1));
#1403 = VECTOR('',#1404,1.);
#1404 = DIRECTION('',(-1.,0.,0.));
#1405 = ORIENTED_EDGE('',*,*,#1406,.T.);
#1406 = EDGE_CURVE('',#1399,#1134,#1407,.T.);
#1407 = LINE('',#1408,#1409);
#1408 = CARTESIAN_POINT('',(5.7,-1.25,-1.1));
#1409 = VECTOR('',#1410,1.);
#1410 = DIRECTION('',(0.,1.,-2.2E-16));
#1411 = ORIENTED_EDGE('',*,*,#1141,.T.);
#1412 = ORIENTED_EDGE('',*,*,#1413,.F.);
#1413 = EDGE_CURVE('',#1061,#1142,#1414,.T.);
#1414 = LINE('',#1415,#1416);
#1415 = CARTESIAN_POINT('',(5.,-1.25,-1.1));
#1416 = VECTOR('',#1417,1.);
#1417 = DIRECTION('',(0.,1.,-2.2E-16));
#1418 = PLANE('',#1419);
#1419 = AXIS2_PLACEMENT_3D('',#1420,#1421,#1422);
#1420 = CARTESIAN_POINT('',(5.7,-1.25,-1.1));
#1421 = DIRECTION('',(0.,2.2E-16,1.));
#1422 = DIRECTION('',(-1.,0.,0.));
#1423 = ADVANCED_FACE('',(#1424),#1435,.F.);
#1424 = FACE_BOUND('',#1425,.F.);
#1425 = EDGE_LOOP('',(#1426,#1432,#1433,#1434));
#1426 = ORIENTED_EDGE('',*,*,#1427,.T.);
#1427 = EDGE_CURVE('',#1069,#1150,#1428,.T.);
#1428 = LINE('',#1429,#1430);
#1429 = CARTESIAN_POINT('',(4.806040321221,-1.25,2.8E-16));
#1430 = VECTOR('',#1431,1.);
#1431 = DIRECTION('',(0.,1.,-2.2E-16));
#1432 = ORIENTED_EDGE('',*,*,#1149,.T.);
#1433 = ORIENTED_EDGE('',*,*,#1413,.F.);
#1434 = ORIENTED_EDGE('',*,*,#1068,.F.);
#1435 = PLANE('',#1436);
#1436 = AXIS2_PLACEMENT_3D('',#1437,#1438,#1439);
#1437 = CARTESIAN_POINT('',(4.806040321221,-1.25,2.8E-16));
#1438 = DIRECTION('',(-0.984807753012,-4.E-17,-0.173648177667));
#1439 = DIRECTION('',(0.173648177667,-2.2E-16,-0.984807753012));
#1440 = ADVANCED_FACE('',(#1441),#1452,.T.);
#1441 = FACE_BOUND('',#1442,.T.);
#1442 = EDGE_LOOP('',(#1443,#1444,#1445,#1451));
#1443 = ORIENTED_EDGE('',*,*,#1427,.T.);
#1444 = ORIENTED_EDGE('',*,*,#1157,.T.);
#1445 = ORIENTED_EDGE('',*,*,#1446,.F.);
#1446 = EDGE_CURVE('',#1077,#1158,#1447,.T.);
#1447 = LINE('',#1448,#1449);
#1448 = CARTESIAN_POINT('',(-4.806040321221,-1.25,2.8E-16));
#1449 = VECTOR('',#1450,1.);
#1450 = DIRECTION('',(0.,1.,-2.2E-16));
#1451 = ORIENTED_EDGE('',*,*,#1076,.F.);
#1452 = PLANE('',#1453);
#1453 = AXIS2_PLACEMENT_3D('',#1454,#1455,#1456);
#1454 = CARTESIAN_POINT('',(7.E-17,-4.E-17,0.));
#1455 = DIRECTION('',(0.,0.,1.));
#1456 = DIRECTION('',(1.,0.,0.));
#1457 = ADVANCED_FACE('',(#1458),#1469,.T.);
#1458 = FACE_BOUND('',#1459,.T.);
#1459 = EDGE_LOOP('',(#1460,#1461,#1462,#1468));
#1460 = ORIENTED_EDGE('',*,*,#1446,.T.);
#1461 = ORIENTED_EDGE('',*,*,#1165,.T.);
#1462 = ORIENTED_EDGE('',*,*,#1463,.F.);
#1463 = EDGE_CURVE('',#1085,#1166,#1464,.T.);
#1464 = LINE('',#1465,#1466);
#1465 = CARTESIAN_POINT('',(-5.,-1.25,-1.1));
#1466 = VECTOR('',#1467,1.);
#1467 = DIRECTION('',(0.,1.,-2.2E-16));
#1468 = ORIENTED_EDGE('',*,*,#1084,.F.);
#1469 = PLANE('',#1470);
#1470 = AXIS2_PLACEMENT_3D('',#1471,#1472,#1473);
#1471 = CARTESIAN_POINT('',(-4.806040321221,-1.25,2.8E-16));
#1472 = DIRECTION('',(-0.984807753012,4.E-17,0.173648177667));
#1473 = DIRECTION('',(-0.173648177667,-2.2E-16,-0.984807753012));
#1474 = ADVANCED_FACE('',(#1475),#1536,.T.);
#1475 = FACE_BOUND('',#1476,.T.);
#1476 = EDGE_LOOP('',(#1477,#1478,#1479,#1480,#1488,#1496,#1505,#1513,
    #1522,#1530));
#1477 = ORIENTED_EDGE('',*,*,#1092,.F.);
#1478 = ORIENTED_EDGE('',*,*,#1463,.T.);
#1479 = ORIENTED_EDGE('',*,*,#1173,.T.);
#1480 = ORIENTED_EDGE('',*,*,#1481,.F.);
#1481 = EDGE_CURVE('',#1482,#1174,#1484,.T.);
#1482 = VERTEX_POINT('',#1483);
#1483 = CARTESIAN_POINT('',(-5.7,0.5,-1.1));
#1484 = LINE('',#1485,#1486);
#1485 = CARTESIAN_POINT('',(-5.7,-1.25,-1.1));
#1486 = VECTOR('',#1487,1.);
#1487 = DIRECTION('',(0.,1.,-2.2E-16));
#1488 = ORIENTED_EDGE('',*,*,#1489,.F.);
#1489 = EDGE_CURVE('',#1490,#1482,#1492,.T.);
#1490 = VERTEX_POINT('',#1491);
#1491 = CARTESIAN_POINT('',(-5.45,0.5,-1.1));
#1492 = LINE('',#1493,#1494);
#1493 = CARTESIAN_POINT('',(-5.45,0.5,-1.1));
#1494 = VECTOR('',#1495,1.);
#1495 = DIRECTION('',(-1.,0.,0.));
#1496 = ORIENTED_EDGE('',*,*,#1497,.F.);
#1497 = EDGE_CURVE('',#1498,#1490,#1500,.T.);
#1498 = VERTEX_POINT('',#1499);
#1499 = CARTESIAN_POINT('',(-5.2,0.25,-1.1));
#1500 = CIRCLE('',#1501,0.25);
#1501 = AXIS2_PLACEMENT_3D('',#1502,#1503,#1504);
#1502 = CARTESIAN_POINT('',(-5.45,0.25,-1.1));
#1503 = DIRECTION('',(0.,0.,1.));
#1504 = DIRECTION('',(1.,0.,0.));
#1505 = ORIENTED_EDGE('',*,*,#1506,.F.);
#1506 = EDGE_CURVE('',#1507,#1498,#1509,.T.);
#1507 = VERTEX_POINT('',#1508);
#1508 = CARTESIAN_POINT('',(-5.2,-0.25,-1.1));
#1509 = LINE('',#1510,#1511);
#1510 = CARTESIAN_POINT('',(-5.2,-0.25,-1.1));
#1511 = VECTOR('',#1512,1.);
#1512 = DIRECTION('',(0.,1.,0.));
#1513 = ORIENTED_EDGE('',*,*,#1514,.F.);
#1514 = EDGE_CURVE('',#1515,#1507,#1517,.T.);
#1515 = VERTEX_POINT('',#1516);
#1516 = CARTESIAN_POINT('',(-5.45,-0.5,-1.1));
#1517 = CIRCLE('',#1518,0.25);
#1518 = AXIS2_PLACEMENT_3D('',#1519,#1520,#1521);
#1519 = CARTESIAN_POINT('',(-5.45,-0.25,-1.1));
#1520 = DIRECTION('',(0.,0.,1.));
#1521 = DIRECTION('',(1.,0.,0.));
#1522 = ORIENTED_EDGE('',*,*,#1523,.F.);
#1523 = EDGE_CURVE('',#1524,#1515,#1526,.T.);
#1524 = VERTEX_POINT('',#1525);
#1525 = CARTESIAN_POINT('',(-5.7,-0.5,-1.1));
#1526 = LINE('',#1527,#1528);
#1527 = CARTESIAN_POINT('',(-6.2,-0.5,-1.1));
#1528 = VECTOR('',#1529,1.);
#1529 = DIRECTION('',(1.,0.,0.));
#1530 = ORIENTED_EDGE('',*,*,#1531,.F.);
#1531 = EDGE_CURVE('',#1093,#1524,#1532,.T.);
#1532 = LINE('',#1533,#1534);
#1533 = CARTESIAN_POINT('',(-5.7,-1.25,-1.1));
#1534 = VECTOR('',#1535,1.);
#1535 = DIRECTION('',(0.,1.,-2.2E-16));
#1536 = PLANE('',#1537);
#1537 = AXIS2_PLACEMENT_3D('',#1538,#1539,#1540);
#1538 = CARTESIAN_POINT('',(-5.,-1.25,-1.1));
#1539 = DIRECTION('',(0.,2.2E-16,1.));
#1540 = DIRECTION('',(-1.,0.,0.));
#1541 = ADVANCED_FACE('',(#1542),#1553,.T.);
#1542 = FACE_BOUND('',#1543,.T.);
#1543 = EDGE_LOOP('',(#1544,#1545,#1546,#1552));
#1544 = ORIENTED_EDGE('',*,*,#1100,.F.);
#1545 = ORIENTED_EDGE('',*,*,#1531,.T.);
#1546 = ORIENTED_EDGE('',*,*,#1547,.F.);
#1547 = EDGE_CURVE('',#1250,#1524,#1548,.T.);
#1548 = LINE('',#1549,#1550);
#1549 = CARTESIAN_POINT('',(-5.7,-0.5,-1.1));
#1550 = VECTOR('',#1551,1.);
#1551 = DIRECTION('',(0.,0.,1.));
#1552 = ORIENTED_EDGE('',*,*,#1257,.F.);
#1553 = PLANE('',#1554);
#1554 = AXIS2_PLACEMENT_3D('',#1555,#1556,#1557);
#1555 = CARTESIAN_POINT('',(-5.7,-1.25,-1.1));
#1556 = DIRECTION('',(-1.,0.,0.));
#1557 = DIRECTION('',(-0.,-2.2E-16,-1.));
#1558 = ADVANCED_FACE('',(#1559),#1570,.T.);
#1559 = FACE_BOUND('',#1560,.T.);
#1560 = EDGE_LOOP('',(#1561,#1567,#1568,#1569));
#1561 = ORIENTED_EDGE('',*,*,#1562,.F.);
#1562 = EDGE_CURVE('',#1275,#1399,#1563,.T.);
#1563 = LINE('',#1564,#1565);
#1564 = CARTESIAN_POINT('',(5.7,0.5,-1.175));
#1565 = VECTOR('',#1566,1.);
#1566 = DIRECTION('',(0.,0.,1.));
#1567 = ORIENTED_EDGE('',*,*,#1274,.T.);
#1568 = ORIENTED_EDGE('',*,*,#1133,.T.);
#1569 = ORIENTED_EDGE('',*,*,#1406,.F.);
#1570 = PLANE('',#1571);
#1571 = AXIS2_PLACEMENT_3D('',#1572,#1573,#1574);
#1572 = CARTESIAN_POINT('',(5.7,-1.25,-1.25));
#1573 = DIRECTION('',(1.,0.,0.));
#1574 = DIRECTION('',(0.,2.2E-16,1.));
#1575 = ADVANCED_FACE('',(#1576),#1587,.T.);
#1576 = FACE_BOUND('',#1577,.T.);
#1577 = EDGE_LOOP('',(#1578,#1584,#1585,#1586));
#1578 = ORIENTED_EDGE('',*,*,#1579,.F.);
#1579 = EDGE_CURVE('',#1482,#1208,#1580,.T.);
#1580 = LINE('',#1581,#1582);
#1581 = CARTESIAN_POINT('',(-5.7,0.5,-1.1));
#1582 = VECTOR('',#1583,1.);
#1583 = DIRECTION('',(0.,0.,-1.));
#1584 = ORIENTED_EDGE('',*,*,#1481,.T.);
#1585 = ORIENTED_EDGE('',*,*,#1181,.T.);
#1586 = ORIENTED_EDGE('',*,*,#1207,.F.);
#1587 = PLANE('',#1588);
#1588 = AXIS2_PLACEMENT_3D('',#1589,#1590,#1591);
#1589 = CARTESIAN_POINT('',(-5.7,-1.25,-1.1));
#1590 = DIRECTION('',(-1.,0.,0.));
#1591 = DIRECTION('',(-0.,-2.2E-16,-1.));
#1592 = ADVANCED_FACE('',(#1593),#1604,.F.);
#1593 = FACE_BOUND('',#1594,.F.);
#1594 = EDGE_LOOP('',(#1595,#1596,#1597,#1598));
#1595 = ORIENTED_EDGE('',*,*,#1523,.F.);
#1596 = ORIENTED_EDGE('',*,*,#1547,.F.);
#1597 = ORIENTED_EDGE('',*,*,#1249,.T.);
#1598 = ORIENTED_EDGE('',*,*,#1599,.F.);
#1599 = EDGE_CURVE('',#1515,#1241,#1600,.T.);
#1600 = LINE('',#1601,#1602);
#1601 = CARTESIAN_POINT('',(-5.45,-0.5,-1.1));
#1602 = VECTOR('',#1603,1.);
#1603 = DIRECTION('',(-0.,-0.,-1.));
#1604 = PLANE('',#1605);
#1605 = AXIS2_PLACEMENT_3D('',#1606,#1607,#1608);
#1606 = CARTESIAN_POINT('',(-6.2,-0.5,-1.1));
#1607 = DIRECTION('',(0.,-1.,0.));
#1608 = DIRECTION('',(1.,0.,0.));
#1609 = ADVANCED_FACE('',(#1610),#1621,.F.);
#1610 = FACE_BOUND('',#1611,.F.);
#1611 = EDGE_LOOP('',(#1612,#1613,#1614,#1615));
#1612 = ORIENTED_EDGE('',*,*,#1514,.F.);
#1613 = ORIENTED_EDGE('',*,*,#1599,.T.);
#1614 = ORIENTED_EDGE('',*,*,#1240,.T.);
#1615 = ORIENTED_EDGE('',*,*,#1616,.F.);
#1616 = EDGE_CURVE('',#1507,#1233,#1617,.T.);
#1617 = LINE('',#1618,#1619);
#1618 = CARTESIAN_POINT('',(-5.2,-0.25,-1.1));
#1619 = VECTOR('',#1620,1.);
#1620 = DIRECTION('',(-0.,-0.,-1.));
#1621 = CYLINDRICAL_SURFACE('',#1622,0.25);
#1622 = AXIS2_PLACEMENT_3D('',#1623,#1624,#1625);
#1623 = CARTESIAN_POINT('',(-5.45,-0.25,-1.1));
#1624 = DIRECTION('',(0.,0.,1.));
#1625 = DIRECTION('',(1.,0.,-0.));
#1626 = ADVANCED_FACE('',(#1627),#1638,.F.);
#1627 = FACE_BOUND('',#1628,.F.);
#1628 = EDGE_LOOP('',(#1629,#1630,#1631,#1632));
#1629 = ORIENTED_EDGE('',*,*,#1506,.F.);
#1630 = ORIENTED_EDGE('',*,*,#1616,.T.);
#1631 = ORIENTED_EDGE('',*,*,#1232,.T.);
#1632 = ORIENTED_EDGE('',*,*,#1633,.F.);
#1633 = EDGE_CURVE('',#1498,#1224,#1634,.T.);
#1634 = LINE('',#1635,#1636);
#1635 = CARTESIAN_POINT('',(-5.2,0.25,-1.1));
#1636 = VECTOR('',#1637,1.);
#1637 = DIRECTION('',(-0.,-0.,-1.));
#1638 = PLANE('',#1639);
#1639 = AXIS2_PLACEMENT_3D('',#1640,#1641,#1642);
#1640 = CARTESIAN_POINT('',(-5.2,-0.25,-1.1));
#1641 = DIRECTION('',(1.,0.,0.));
#1642 = DIRECTION('',(-0.,1.,0.));
#1643 = ADVANCED_FACE('',(#1644),#1655,.F.);
#1644 = FACE_BOUND('',#1645,.F.);
#1645 = EDGE_LOOP('',(#1646,#1647,#1648,#1649));
#1646 = ORIENTED_EDGE('',*,*,#1497,.F.);
#1647 = ORIENTED_EDGE('',*,*,#1633,.T.);
#1648 = ORIENTED_EDGE('',*,*,#1223,.T.);
#1649 = ORIENTED_EDGE('',*,*,#1650,.F.);
#1650 = EDGE_CURVE('',#1490,#1216,#1651,.T.);
#1651 = LINE('',#1652,#1653);
#1652 = CARTESIAN_POINT('',(-5.45,0.5,-1.1));
#1653 = VECTOR('',#1654,1.);
#1654 = DIRECTION('',(-0.,-0.,-1.));
#1655 = CYLINDRICAL_SURFACE('',#1656,0.25);
#1656 = AXIS2_PLACEMENT_3D('',#1657,#1658,#1659);
#1657 = CARTESIAN_POINT('',(-5.45,0.25,-1.1));
#1658 = DIRECTION('',(0.,0.,1.));
#1659 = DIRECTION('',(1.,0.,-0.));
#1660 = ADVANCED_FACE('',(#1661),#1667,.F.);
#1661 = FACE_BOUND('',#1662,.F.);
#1662 = EDGE_LOOP('',(#1663,#1664,#1665,#1666));
#1663 = ORIENTED_EDGE('',*,*,#1489,.F.);
#1664 = ORIENTED_EDGE('',*,*,#1650,.T.);
#1665 = ORIENTED_EDGE('',*,*,#1215,.T.);
#1666 = ORIENTED_EDGE('',*,*,#1579,.F.);
#1667 = PLANE('',#1668);
#1668 = AXIS2_PLACEMENT_3D('',#1669,#1670,#1671);
#1669 = CARTESIAN_POINT('',(-5.45,0.5,-1.1));
#1670 = DIRECTION('',(0.,1.,0.));
#1671 = DIRECTION('',(-1.,0.,0.));
#1672 = ADVANCED_FACE('',(#1673),#1684,.F.);
#1673 = FACE_BOUND('',#1674,.F.);
#1674 = EDGE_LOOP('',(#1675,#1676,#1682,#1683));
#1675 = ORIENTED_EDGE('',*,*,#1364,.F.);
#1676 = ORIENTED_EDGE('',*,*,#1677,.T.);
#1677 = EDGE_CURVE('',#1365,#1308,#1678,.T.);
#1678 = LINE('',#1679,#1680);
#1679 = CARTESIAN_POINT('',(5.450000000002,-0.5,-1.1));
#1680 = VECTOR('',#1681,1.);
#1681 = DIRECTION('',(-0.,-0.,-1.));
#1682 = ORIENTED_EDGE('',*,*,#1316,.F.);
#1683 = ORIENTED_EDGE('',*,*,#1340,.F.);
#1684 = PLANE('',#1685);
#1685 = AXIS2_PLACEMENT_3D('',#1686,#1687,#1688);
#1686 = CARTESIAN_POINT('',(5.450000000002,-0.5,-1.1));
#1687 = DIRECTION('',(0.,-1.,0.));
#1688 = DIRECTION('',(1.,0.,0.));
#1689 = ADVANCED_FACE('',(#1690),#1701,.F.);
#1690 = FACE_BOUND('',#1691,.F.);
#1691 = EDGE_LOOP('',(#1692,#1693,#1699,#1700));
#1692 = ORIENTED_EDGE('',*,*,#1372,.F.);
#1693 = ORIENTED_EDGE('',*,*,#1694,.T.);
#1694 = EDGE_CURVE('',#1373,#1300,#1695,.T.);
#1695 = LINE('',#1696,#1697);
#1696 = CARTESIAN_POINT('',(5.200000000002,-0.25,-1.1));
#1697 = VECTOR('',#1698,1.);
#1698 = DIRECTION('',(-0.,-0.,-1.));
#1699 = ORIENTED_EDGE('',*,*,#1307,.T.);
#1700 = ORIENTED_EDGE('',*,*,#1677,.F.);
#1701 = CYLINDRICAL_SURFACE('',#1702,0.25);
#1702 = AXIS2_PLACEMENT_3D('',#1703,#1704,#1705);
#1703 = CARTESIAN_POINT('',(5.450000000002,-0.25,-1.1));
#1704 = DIRECTION('',(0.,0.,1.));
#1705 = DIRECTION('',(1.,0.,-0.));
#1706 = ADVANCED_FACE('',(#1707),#1718,.F.);
#1707 = FACE_BOUND('',#1708,.F.);
#1708 = EDGE_LOOP('',(#1709,#1710,#1716,#1717));
#1709 = ORIENTED_EDGE('',*,*,#1381,.F.);
#1710 = ORIENTED_EDGE('',*,*,#1711,.T.);
#1711 = EDGE_CURVE('',#1382,#1291,#1712,.T.);
#1712 = LINE('',#1713,#1714);
#1713 = CARTESIAN_POINT('',(5.200000000002,0.25,-1.1));
#1714 = VECTOR('',#1715,1.);
#1715 = DIRECTION('',(-0.,-0.,-1.));
#1716 = ORIENTED_EDGE('',*,*,#1299,.F.);
#1717 = ORIENTED_EDGE('',*,*,#1694,.F.);
#1718 = PLANE('',#1719);
#1719 = AXIS2_PLACEMENT_3D('',#1720,#1721,#1722);
#1720 = CARTESIAN_POINT('',(5.200000000002,0.25,-1.1));
#1721 = DIRECTION('',(-1.,0.,0.));
#1722 = DIRECTION('',(0.,-1.,0.));
#1723 = ADVANCED_FACE('',(#1724),#1735,.F.);
#1724 = FACE_BOUND('',#1725,.F.);
#1725 = EDGE_LOOP('',(#1726,#1727,#1733,#1734));
#1726 = ORIENTED_EDGE('',*,*,#1389,.F.);
#1727 = ORIENTED_EDGE('',*,*,#1728,.T.);
#1728 = EDGE_CURVE('',#1390,#1283,#1729,.T.);
#1729 = LINE('',#1730,#1731);
#1730 = CARTESIAN_POINT('',(5.450000000002,0.5,-1.1));
#1731 = VECTOR('',#1732,1.);
#1732 = DIRECTION('',(-0.,-0.,-1.));
#1733 = ORIENTED_EDGE('',*,*,#1290,.T.);
#1734 = ORIENTED_EDGE('',*,*,#1711,.F.);
#1735 = CYLINDRICAL_SURFACE('',#1736,0.25);
#1736 = AXIS2_PLACEMENT_3D('',#1737,#1738,#1739);
#1737 = CARTESIAN_POINT('',(5.450000000002,0.25,-1.1));
#1738 = DIRECTION('',(0.,0.,1.));
#1739 = DIRECTION('',(1.,0.,-0.));
#1740 = ADVANCED_FACE('',(#1741),#1747,.F.);
#1741 = FACE_BOUND('',#1742,.F.);
#1742 = EDGE_LOOP('',(#1743,#1744,#1745,#1746));
#1743 = ORIENTED_EDGE('',*,*,#1398,.F.);
#1744 = ORIENTED_EDGE('',*,*,#1562,.F.);
#1745 = ORIENTED_EDGE('',*,*,#1282,.F.);
#1746 = ORIENTED_EDGE('',*,*,#1728,.F.);
#1747 = PLANE('',#1748);
#1748 = AXIS2_PLACEMENT_3D('',#1749,#1750,#1751);
#1749 = CARTESIAN_POINT('',(6.200000000002,0.5,-1.1));
#1750 = DIRECTION('',(0.,1.,0.));
#1751 = DIRECTION('',(-1.,0.,0.));
#1752 = ( GEOMETRIC_REPRESENTATION_CONTEXT(3) 
GLOBAL_UNCERTAINTY_ASSIGNED_CONTEXT((#1756)) 
GLOBAL_UNIT_ASSIGNED_CONTEXT((#1753,#1754,#1755)) REPRESENTATION_CONTEXT
('Context #1','3D Context with UNIT and UNCERTAINTY') );
#1753 = ( LENGTH_UNIT() NAMED_UNIT(*) SI_UNIT(.MILLI.,.METRE.) );
#1754 = ( NAMED_UNIT(*) PLANE_ANGLE_UNIT() SI_UNIT($,.RADIAN.) );
#1755 = ( NAMED_UNIT(*) SI_UNIT($,.STERADIAN.) SOLID_ANGLE_UNIT() );
#1756 = UNCERTAINTY_MEASURE_WITH_UNIT(LENGTH_MEASURE(5.E-06),#1753,
  'distance_accuracy_value','confusion accuracy');
#1757 = CONTEXT_DEPENDENT_SHAPE_REPRESENTATION(#1758,#1760);
#1758 = ( REPRESENTATION_RELATIONSHIP('','',#933,#10) 
REPRESENTATION_RELATIONSHIP_WITH_TRANSFORMATION(#1759) 
SHAPE_REPRESENTATION_RELATIONSHIP() );
#1759 = ITEM_DEFINED_TRANSFORMATION('','',#11,#19);
#1760 = PRODUCT_DEFINITION_SHAPE('Placement','Placement of an item',
  #1761);
#1761 = NEXT_ASSEMBLY_USAGE_OCCURRENCE('2','Body001','',#5,#928,$);
#1762 = PRODUCT_RELATED_PRODUCT_CATEGORY('part',$,(#930));
#1763 = MECHANICAL_DESIGN_GEOMETRIC_PRESENTATION_REPRESENTATION('',(
    #1764),#1752);
#1764 = STYLED_ITEM('color',(#1765),#934);
#1765 = PRESENTATION_STYLE_ASSIGNMENT((#1766,#1772));
#1766 = SURFACE_STYLE_USAGE(.BOTH.,#1767);
#1767 = SURFACE_SIDE_STYLE('',(#1768));
#1768 = SURFACE_STYLE_FILL_AREA(#1769);
#1769 = FILL_AREA_STYLE('',(#1770));
#1770 = FILL_AREA_STYLE_COLOUR('',#1771);
#1771 = COLOUR_RGB('',0.839215683236,0.839215683236,0.839215683236);
#1772 = CURVE_STYLE('',#1773,POSITIVE_LENGTH_MEASURE(0.1),#1774);
#1773 = DRAUGHTING_PRE_DEFINED_CURVE_FONT('continuous');
#1774 = COLOUR_RGB('',9.803921802644E-02,9.803921802644E-02,
  9.803921802644E-02);
#1775 = MECHANICAL_DESIGN_GEOMETRIC_PRESENTATION_REPRESENTATION('',(
    #1776),#915);
#1776 = STYLED_ITEM('color',(#1777),#37);
#1777 = PRESENTATION_STYLE_ASSIGNMENT((#1778,#1784));
#1778 = SURFACE_STYLE_USAGE(.BOTH.,#1779);
#1779 = SURFACE_SIDE_STYLE('',(#1780));
#1780 = SURFACE_STYLE_FILL_AREA(#1781);
#1781 = FILL_AREA_STYLE('',(#1782));
#1782 = FILL_AREA_STYLE_COLOUR('',#1783);
#1783 = COLOUR_RGB('',0.129411774038,0.129411774038,0.129411774038);
#1784 = CURVE_STYLE('',#1785,POSITIVE_LENGTH_MEASURE(0.1),#1774);
#1785 = DRAUGHTING_PRE_DEFINED_CURVE_FONT('continuous');
ENDSEC;
END-ISO-10303-21;
