ISO-10303-21;
HEADER;
FILE_DESCRIPTION(('FreeCAD Model'),'2;1');
FILE_NAME('Open CASCADE Shape Model','2026-07-30T13:23:50',(''),(''),
  'Open CASCADE STEP processor 7.8','FreeCAD','Unknown');
FILE_SCHEMA(('AUTOMOTIVE_DESIGN { 1 0 10303 214 1 1 1 1 }'));
ENDSEC;
DATA;
#1 = APPLICATION_PROTOCOL_DEFINITION('international standard',
  'automotive_design',2000,#2);
#2 = APPLICATION_CONTEXT(
  'core data for automotive mechanical design processes');
#3 = SHAPE_DEFINITION_REPRESENTATION(#4,#10);
#4 = PRODUCT_DEFINITION_SHAPE('','',#5);
#5 = PRODUCT_DEFINITION('design','',#6,#9);
#6 = PRODUCT_DEFINITION_FORMATION('','',#7);
#7 = PRODUCT('Assembly','Assembly','',(#8));
#8 = PRODUCT_CONTEXT('',#2,'mechanical');
#9 = PRODUCT_DEFINITION_CONTEXT('part definition',#2,'design');
#10 = SHAPE_REPRESENTATION('',(#11,#15,#19,#23,#27,#31,#35,#39,#43,#47),
  #51);
#11 = AXIS2_PLACEMENT_3D('',#12,#13,#14);
#12 = CARTESIAN_POINT('',(0.,0.,0.));
#13 = DIRECTION('',(0.,0.,1.));
#14 = DIRECTION('',(1.,0.,-0.));
#15 = AXIS2_PLACEMENT_3D('',#16,#17,#18);
#16 = CARTESIAN_POINT('',(-0.149998748302,-0.329999523163,
    -6.999998986721));
#17 = DIRECTION('',(0.,4.643822825652E-16,1.));
#18 = DIRECTION('',(1.,0.,-0.));
#19 = AXIS2_PLACEMENT_3D('',#20,#21,#22);
#20 = CARTESIAN_POINT('',(6.000001251698,4.500000476837,-5.999998986721)
  );
#21 = DIRECTION('',(0.,1.,-2.22044604925E-16));
#22 = DIRECTION('',(1.,0.,0.));
#23 = AXIS2_PLACEMENT_3D('',#24,#25,#26);
#24 = CARTESIAN_POINT('',(6.000001251698,1.950000476837,-5.999998986721)
  );
#25 = DIRECTION('',(-0.,1.,2.22044604925E-16));
#26 = DIRECTION('',(1.,0.,0.));
#27 = AXIS2_PLACEMENT_3D('',#28,#29,#30);
#28 = CARTESIAN_POINT('',(6.000001251698,-5.659999523163,-5.999998986721
    ));
#29 = DIRECTION('',(0.,1.,-4.440892098501E-16));
#30 = DIRECTION('',(1.,0.,0.));
#31 = AXIS2_PLACEMENT_3D('',#32,#33,#34);
#32 = CARTESIAN_POINT('',(6.000001251698,-3.109999523163,-5.999998986721
    ));
#33 = DIRECTION('',(0.,1.,-2.22044604925E-16));
#34 = DIRECTION('',(1.,0.,0.));
#35 = AXIS2_PLACEMENT_3D('',#36,#37,#38);
#36 = CARTESIAN_POINT('',(-6.299998748302,-2.609999523163,
    -5.999998986721));
#37 = DIRECTION('',(0.,-1.,6.661338147751E-16));
#38 = DIRECTION('',(-1.,0.,0.));
#39 = AXIS2_PLACEMENT_3D('',#40,#41,#42);
#40 = CARTESIAN_POINT('',(-6.299998748302,2.450000476837,-5.999998986721
    ));
#41 = DIRECTION('',(0.,-1.,6.661338147751E-16));
#42 = DIRECTION('',(-1.,0.,0.));
#43 = AXIS2_PLACEMENT_3D('',#44,#45,#46);
#44 = CARTESIAN_POINT('',(-6.299998748302,-5.159999523163,
    -5.999998986721));
#45 = DIRECTION('',(0.,-1.,6.661338147751E-16));
#46 = DIRECTION('',(-1.,0.,0.));
#47 = AXIS2_PLACEMENT_3D('',#48,#49,#50);
#48 = CARTESIAN_POINT('',(-6.299998748302,5.000000476837,-5.999998986721
    ));
#49 = DIRECTION('',(0.,-1.,4.440892098501E-16));
#50 = DIRECTION('',(-1.,0.,0.));
#51 = ( GEOMETRIC_REPRESENTATION_CONTEXT(3) 
GLOBAL_UNCERTAINTY_ASSIGNED_CONTEXT((#55)) GLOBAL_UNIT_ASSIGNED_CONTEXT(
(#52,#53,#54)) REPRESENTATION_CONTEXT('Context #1',
  '3D Context with UNIT and UNCERTAINTY') );
#52 = ( LENGTH_UNIT() NAMED_UNIT(*) SI_UNIT(.MILLI.,.METRE.) );
#53 = ( NAMED_UNIT(*) PLANE_ANGLE_UNIT() SI_UNIT($,.RADIAN.) );
#54 = ( NAMED_UNIT(*) SI_UNIT($,.STERADIAN.) SOLID_ANGLE_UNIT() );
#55 = UNCERTAINTY_MEASURE_WITH_UNIT(LENGTH_MEASURE(1.E-07),#52,
  'distance_accuracy_value','confusion accuracy');
#56 = PRODUCT_RELATED_PRODUCT_CATEGORY('part',$,(#7));
#57 = SHAPE_DEFINITION_REPRESENTATION(#58,#64);
#58 = PRODUCT_DEFINITION_SHAPE('','',#59);
#59 = PRODUCT_DEFINITION('design','',#60,#63);
#60 = PRODUCT_DEFINITION_FORMATION('','',#61);
#61 = PRODUCT('Body','Body','',(#62));
#62 = PRODUCT_CONTEXT('',#2,'mechanical');
#63 = PRODUCT_DEFINITION_CONTEXT('part definition',#2,'design');
#64 = ADVANCED_BREP_SHAPE_REPRESENTATION('',(#11,#65),#1441);
#65 = MANIFOLD_SOLID_BREP('',#66);
#66 = CLOSED_SHELL('',(#67,#107,#157,#191,#487,#521,#540,#565,#577,#608,
    #632,#656,#673,#704,#728,#752,#769,#800,#824,#848,#865,#896,#920,
    #944,#961,#992,#1016,#1040,#1057,#1088,#1112,#1136,#1153,#1184,#1208
    ,#1232,#1249,#1280,#1304,#1328,#1345,#1357,#1369,#1381,#1393,#1405,
    #1417,#1429));
#67 = ADVANCED_FACE('',(#68),#102,.T.);
#68 = FACE_BOUND('',#69,.T.);
#69 = EDGE_LOOP('',(#70,#79,#89,#96));
#70 = ORIENTED_EDGE('',*,*,#71,.T.);
#71 = EDGE_CURVE('',#72,#74,#76,.T.);
#72 = VERTEX_POINT('',#73);
#73 = CARTESIAN_POINT('',(7.15,6.25,0.));
#74 = VERTEX_POINT('',#75);
#75 = CARTESIAN_POINT('',(7.012104721218,6.112104721218,7.900015230484)
  );
#76 = B_SPLINE_CURVE_WITH_KNOTS('',1,(#77,#78),.UNSPECIFIED.,.F.,.F.,(2,
    2),(0.,1.),.PIECEWISE_BEZIER_KNOTS.);
#77 = CARTESIAN_POINT('',(7.15,6.25,0.));
#78 = CARTESIAN_POINT('',(7.010359480574,6.110359480574,8.));
#79 = ORIENTED_EDGE('',*,*,#80,.F.);
#80 = EDGE_CURVE('',#81,#74,#83,.T.);
#81 = VERTEX_POINT('',#82);
#82 = CARTESIAN_POINT('',(7.012104721218,-6.112104721218,7.900015230484)
  );
#83 = B_SPLINE_CURVE_WITH_KNOTS('',2,(#84,#85,#86,#87,#88),
  .UNSPECIFIED.,.F.,.F.,(3,1,1,3),(-0.749653241066,-1.745240643744E-03,
    12.222464201792,12.970372202215),.UNSPECIFIED.);
#84 = CARTESIAN_POINT('',(7.012104721218,-6.86001272164,7.900015230484)
  );
#85 = CARTESIAN_POINT('',(7.012104721218,-6.486058721429,7.900015230484)
  );
#86 = CARTESIAN_POINT('',(7.012104721218,0.,7.900015230484));
#87 = CARTESIAN_POINT('',(7.012104721218,6.486058721429,7.900015230484)
  );
#88 = CARTESIAN_POINT('',(7.012104721218,6.86001272164,7.900015230484));
#89 = ORIENTED_EDGE('',*,*,#90,.F.);
#90 = EDGE_CURVE('',#91,#81,#93,.T.);
#91 = VERTEX_POINT('',#92);
#92 = CARTESIAN_POINT('',(7.15,-6.25,0.));
#93 = B_SPLINE_CURVE_WITH_KNOTS('',1,(#94,#95),.UNSPECIFIED.,.F.,.F.,(2,
    2),(0.,1.),.PIECEWISE_BEZIER_KNOTS.);
#94 = CARTESIAN_POINT('',(7.15,-6.25,0.));
#95 = CARTESIAN_POINT('',(7.010359480574,-6.110359480574,8.));
#96 = ORIENTED_EDGE('',*,*,#97,.T.);
#97 = EDGE_CURVE('',#91,#72,#98,.T.);
#98 = LINE('',#99,#100);
#99 = CARTESIAN_POINT('',(7.15,-6.25,0.));
#100 = VECTOR('',#101,1.);
#101 = DIRECTION('',(0.,1.,0.));
#102 = B_SPLINE_SURFACE_WITH_KNOTS('',1,1,(
    (#103,#104)
    ,(#105,#106
    )),.UNSPECIFIED.,.F.,.F.,.F.,(2,2),(2,2),(0.,12.5),(0.,1.),
  .PIECEWISE_BEZIER_KNOTS.);
#103 = CARTESIAN_POINT('',(7.15,-6.25,0.));
#104 = CARTESIAN_POINT('',(7.010359480574,-6.110359480574,8.));
#105 = CARTESIAN_POINT('',(7.15,6.25,0.));
#106 = CARTESIAN_POINT('',(7.010359480574,6.110359480574,8.));
#107 = ADVANCED_FACE('',(#108),#152,.T.);
#108 = FACE_BOUND('',#109,.T.);
#109 = EDGE_LOOP('',(#110,#119,#129,#137,#145,#146));
#110 = ORIENTED_EDGE('',*,*,#111,.T.);
#111 = EDGE_CURVE('',#112,#114,#116,.T.);
#112 = VERTEX_POINT('',#113);
#113 = CARTESIAN_POINT('',(-7.15,6.25,0.));
#114 = VERTEX_POINT('',#115);
#115 = CARTESIAN_POINT('',(-7.012104721218,6.112104721218,7.900015230484
    ));
#116 = B_SPLINE_CURVE_WITH_KNOTS('',1,(#117,#118),.UNSPECIFIED.,.F.,.F.,
  (2,2),(0.,1.),.PIECEWISE_BEZIER_KNOTS.);
#117 = CARTESIAN_POINT('',(-7.15,6.25,0.));
#118 = CARTESIAN_POINT('',(-7.010359480574,6.110359480574,8.));
#119 = ORIENTED_EDGE('',*,*,#120,.F.);
#120 = EDGE_CURVE('',#121,#114,#123,.T.);
#121 = VERTEX_POINT('',#122);
#122 = CARTESIAN_POINT('',(-6.910359480574,6.110359480574,8.));
#123 = B_SPLINE_CURVE_WITH_KNOTS('',4,(#124,#125,#126,#127,#128),
  .UNSPECIFIED.,.F.,.F.,(5,5),(0.,1.),.PIECEWISE_BEZIER_KNOTS.);
#124 = CARTESIAN_POINT('',(-6.910359480574,6.110359480574,8.));
#125 = CARTESIAN_POINT('',(-6.935795790294,6.110795790728,7.975003808054
    ));
#126 = CARTESIAN_POINT('',(-6.961232100309,6.111232100886,7.95000761582)
  );
#127 = CARTESIAN_POINT('',(-6.986668410616,6.111668411049,7.925011423296
    ));
#128 = CARTESIAN_POINT('',(-7.012104721218,6.112104721218,7.900015230484
    ));
#129 = ORIENTED_EDGE('',*,*,#130,.F.);
#130 = EDGE_CURVE('',#131,#121,#133,.T.);
#131 = VERTEX_POINT('',#132);
#132 = CARTESIAN_POINT('',(6.910359480574,6.110359480574,8.));
#133 = LINE('',#134,#135);
#134 = CARTESIAN_POINT('',(7.15,6.110359480574,8.));
#135 = VECTOR('',#136,1.);
#136 = DIRECTION('',(-1.,0.,0.));
#137 = ORIENTED_EDGE('',*,*,#138,.F.);
#138 = EDGE_CURVE('',#74,#131,#139,.T.);
#139 = B_SPLINE_CURVE_WITH_KNOTS('',4,(#140,#141,#142,#143,#144),
  .UNSPECIFIED.,.F.,.F.,(5,5),(0.,1.),.PIECEWISE_BEZIER_KNOTS.);
#140 = CARTESIAN_POINT('',(7.012104721218,6.112104721218,7.900015230484)
  );
#141 = CARTESIAN_POINT('',(6.986668410616,6.111668411049,7.925011423296)
  );
#142 = CARTESIAN_POINT('',(6.961232100309,6.111232100886,7.95000761582)
  );
#143 = CARTESIAN_POINT('',(6.935795790294,6.110795790728,7.975003808054)
  );
#144 = CARTESIAN_POINT('',(6.910359480574,6.110359480574,8.));
#145 = ORIENTED_EDGE('',*,*,#71,.F.);
#146 = ORIENTED_EDGE('',*,*,#147,.T.);
#147 = EDGE_CURVE('',#72,#112,#148,.T.);
#148 = LINE('',#149,#150);
#149 = CARTESIAN_POINT('',(7.15,6.25,0.));
#150 = VECTOR('',#151,1.);
#151 = DIRECTION('',(-1.,0.,0.));
#152 = B_SPLINE_SURFACE_WITH_KNOTS('',1,1,(
    (#153,#154)
    ,(#155,#156
    )),.UNSPECIFIED.,.F.,.F.,.F.,(2,2),(2,2),(0.,14.3),(0.,1.),
  .PIECEWISE_BEZIER_KNOTS.);
#153 = CARTESIAN_POINT('',(7.15,6.25,0.));
#154 = CARTESIAN_POINT('',(7.010359480574,6.110359480574,8.));
#155 = CARTESIAN_POINT('',(-7.15,6.25,0.));
#156 = CARTESIAN_POINT('',(-7.010359480574,6.110359480574,8.));
#157 = ADVANCED_FACE('',(#158),#180,.F.);
#158 = FACE_BOUND('',#159,.F.);
#159 = EDGE_LOOP('',(#160,#170,#178,#179));
#160 = ORIENTED_EDGE('',*,*,#161,.T.);
#161 = EDGE_CURVE('',#81,#162,#164,.T.);
#162 = VERTEX_POINT('',#163);
#163 = CARTESIAN_POINT('',(6.910359480574,-6.110359480574,8.));
#164 = B_SPLINE_CURVE_WITH_KNOTS('',4,(#165,#166,#167,#168,#169),
  .UNSPECIFIED.,.F.,.F.,(5,5),(0.,1.),.PIECEWISE_BEZIER_KNOTS.);
#165 = CARTESIAN_POINT('',(7.012104721218,-6.112104721218,7.900015230484
    ));
#166 = CARTESIAN_POINT('',(6.986668410616,-6.111668411049,7.925011423296
    ));
#167 = CARTESIAN_POINT('',(6.961232100309,-6.111232100886,7.95000761582)
  );
#168 = CARTESIAN_POINT('',(6.935795790294,-6.110795790728,7.975003808054
    ));
#169 = CARTESIAN_POINT('',(6.910359480574,-6.110359480574,8.));
#170 = ORIENTED_EDGE('',*,*,#171,.T.);
#171 = EDGE_CURVE('',#162,#131,#172,.T.);
#172 = B_SPLINE_CURVE_WITH_KNOTS('',2,(#173,#174,#175,#176,#177),
  .UNSPECIFIED.,.F.,.F.,(3,1,1,3),(-0.749653241066,-1.745240643744E-03,
    12.222464201792,12.970372202215),.UNSPECIFIED.);
#173 = CARTESIAN_POINT('',(6.910359480574,-6.86001272164,8.));
#174 = CARTESIAN_POINT('',(6.910359480574,-6.486058721429,8.));
#175 = CARTESIAN_POINT('',(6.910359480574,8.881784197001E-16,8.));
#176 = CARTESIAN_POINT('',(6.910359480574,6.486058721429,8.));
#177 = CARTESIAN_POINT('',(6.910359480574,6.86001272164,8.));
#178 = ORIENTED_EDGE('',*,*,#138,.F.);
#179 = ORIENTED_EDGE('',*,*,#80,.F.);
#180 = B_SPLINE_SURFACE_WITH_KNOTS('',1,2,(
    (#181,#182,#183,#184,#185)
    ,(#186,#187,#188,#189,#190
    )),.UNSPECIFIED.,.F.,.F.,.F.,(2,2),(3,1,1,3),(0.,12.224209442436),(
    -0.749653241066,-1.745240643744E-03,12.222464201792,12.970372202215)
  ,.UNSPECIFIED.);
#181 = CARTESIAN_POINT('',(7.012104721218,-6.86001272164,7.900015230484)
  );
#182 = CARTESIAN_POINT('',(7.012104721218,-6.486058721429,7.900015230484
    ));
#183 = CARTESIAN_POINT('',(7.012104721218,0.,7.900015230484));
#184 = CARTESIAN_POINT('',(7.012104721218,6.486058721429,7.900015230484)
  );
#185 = CARTESIAN_POINT('',(7.012104721218,6.86001272164,7.900015230484)
  );
#186 = CARTESIAN_POINT('',(6.910359480574,-6.86001272164,8.));
#187 = CARTESIAN_POINT('',(6.910359480574,-6.486058721429,8.));
#188 = CARTESIAN_POINT('',(6.910359480574,8.881784197001E-16,8.));
#189 = CARTESIAN_POINT('',(6.910359480574,6.486058721429,8.));
#190 = CARTESIAN_POINT('',(6.910359480574,6.86001272164,8.));
#191 = ADVANCED_FACE('',(#192,#210,#244,#278,#312,#346,#380,#414,#448),
  #482,.T.);
#192 = FACE_BOUND('',#193,.T.);
#193 = EDGE_LOOP('',(#194,#195,#203,#209));
#194 = ORIENTED_EDGE('',*,*,#97,.F.);
#195 = ORIENTED_EDGE('',*,*,#196,.F.);
#196 = EDGE_CURVE('',#197,#91,#199,.T.);
#197 = VERTEX_POINT('',#198);
#198 = CARTESIAN_POINT('',(-7.15,-6.25,0.));
#199 = LINE('',#200,#201);
#200 = CARTESIAN_POINT('',(-7.15,-6.25,0.));
#201 = VECTOR('',#202,1.);
#202 = DIRECTION('',(1.,0.,0.));
#203 = ORIENTED_EDGE('',*,*,#204,.F.);
#204 = EDGE_CURVE('',#112,#197,#205,.T.);
#205 = LINE('',#206,#207);
#206 = CARTESIAN_POINT('',(-7.15,6.25,0.));
#207 = VECTOR('',#208,1.);
#208 = DIRECTION('',(0.,-1.,0.));
#209 = ORIENTED_EDGE('',*,*,#147,.F.);
#210 = FACE_BOUND('',#211,.T.);
#211 = EDGE_LOOP('',(#212,#222,#230,#238));
#212 = ORIENTED_EDGE('',*,*,#213,.F.);
#213 = EDGE_CURVE('',#214,#216,#218,.T.);
#214 = VERTEX_POINT('',#215);
#215 = CARTESIAN_POINT('',(-6.15,-4.83,0.));
#216 = VERTEX_POINT('',#217);
#217 = CARTESIAN_POINT('',(-6.15,-5.33,0.));
#218 = LINE('',#219,#220);
#219 = CARTESIAN_POINT('',(-6.15,-4.83,0.));
#220 = VECTOR('',#221,1.);
#221 = DIRECTION('',(0.,-1.,0.));
#222 = ORIENTED_EDGE('',*,*,#223,.F.);
#223 = EDGE_CURVE('',#224,#214,#226,.T.);
#224 = VERTEX_POINT('',#225);
#225 = CARTESIAN_POINT('',(-6.55,-4.83,0.));
#226 = LINE('',#227,#228);
#227 = CARTESIAN_POINT('',(-6.55,-4.83,0.));
#228 = VECTOR('',#229,1.);
#229 = DIRECTION('',(1.,0.,0.));
#230 = ORIENTED_EDGE('',*,*,#231,.F.);
#231 = EDGE_CURVE('',#232,#224,#234,.T.);
#232 = VERTEX_POINT('',#233);
#233 = CARTESIAN_POINT('',(-6.55,-5.33,0.));
#234 = LINE('',#235,#236);
#235 = CARTESIAN_POINT('',(-6.55,-5.33,0.));
#236 = VECTOR('',#237,1.);
#237 = DIRECTION('',(0.,1.,0.));
#238 = ORIENTED_EDGE('',*,*,#239,.F.);
#239 = EDGE_CURVE('',#216,#232,#240,.T.);
#240 = LINE('',#241,#242);
#241 = CARTESIAN_POINT('',(-6.15,-5.33,0.));
#242 = VECTOR('',#243,1.);
#243 = DIRECTION('',(-1.,0.,0.));
#244 = FACE_BOUND('',#245,.T.);
#245 = EDGE_LOOP('',(#246,#256,#264,#272));
#246 = ORIENTED_EDGE('',*,*,#247,.F.);
#247 = EDGE_CURVE('',#248,#250,#252,.T.);
#248 = VERTEX_POINT('',#249);
#249 = CARTESIAN_POINT('',(-6.15,-2.28,0.));
#250 = VERTEX_POINT('',#251);
#251 = CARTESIAN_POINT('',(-6.15,-2.78,0.));
#252 = LINE('',#253,#254);
#253 = CARTESIAN_POINT('',(-6.15,-2.28,0.));
#254 = VECTOR('',#255,1.);
#255 = DIRECTION('',(0.,-1.,0.));
#256 = ORIENTED_EDGE('',*,*,#257,.F.);
#257 = EDGE_CURVE('',#258,#248,#260,.T.);
#258 = VERTEX_POINT('',#259);
#259 = CARTESIAN_POINT('',(-6.55,-2.28,0.));
#260 = LINE('',#261,#262);
#261 = CARTESIAN_POINT('',(-6.55,-2.28,0.));
#262 = VECTOR('',#263,1.);
#263 = DIRECTION('',(1.,0.,0.));
#264 = ORIENTED_EDGE('',*,*,#265,.F.);
#265 = EDGE_CURVE('',#266,#258,#268,.T.);
#266 = VERTEX_POINT('',#267);
#267 = CARTESIAN_POINT('',(-6.55,-2.78,0.));
#268 = LINE('',#269,#270);
#269 = CARTESIAN_POINT('',(-6.55,-2.78,0.));
#270 = VECTOR('',#271,1.);
#271 = DIRECTION('',(0.,1.,0.));
#272 = ORIENTED_EDGE('',*,*,#273,.F.);
#273 = EDGE_CURVE('',#250,#266,#274,.T.);
#274 = LINE('',#275,#276);
#275 = CARTESIAN_POINT('',(-6.15,-2.78,0.));
#276 = VECTOR('',#277,1.);
#277 = DIRECTION('',(-1.,0.,0.));
#278 = FACE_BOUND('',#279,.T.);
#279 = EDGE_LOOP('',(#280,#290,#298,#306));
#280 = ORIENTED_EDGE('',*,*,#281,.F.);
#281 = EDGE_CURVE('',#282,#284,#286,.T.);
#282 = VERTEX_POINT('',#283);
#283 = CARTESIAN_POINT('',(-6.15,2.78,0.));
#284 = VERTEX_POINT('',#285);
#285 = CARTESIAN_POINT('',(-6.15,2.28,0.));
#286 = LINE('',#287,#288);
#287 = CARTESIAN_POINT('',(-6.15,2.78,0.));
#288 = VECTOR('',#289,1.);
#289 = DIRECTION('',(0.,-1.,0.));
#290 = ORIENTED_EDGE('',*,*,#291,.F.);
#291 = EDGE_CURVE('',#292,#282,#294,.T.);
#292 = VERTEX_POINT('',#293);
#293 = CARTESIAN_POINT('',(-6.55,2.78,0.));
#294 = LINE('',#295,#296);
#295 = CARTESIAN_POINT('',(-6.55,2.78,0.));
#296 = VECTOR('',#297,1.);
#297 = DIRECTION('',(1.,0.,0.));
#298 = ORIENTED_EDGE('',*,*,#299,.F.);
#299 = EDGE_CURVE('',#300,#292,#302,.T.);
#300 = VERTEX_POINT('',#301);
#301 = CARTESIAN_POINT('',(-6.55,2.28,0.));
#302 = LINE('',#303,#304);
#303 = CARTESIAN_POINT('',(-6.55,2.28,0.));
#304 = VECTOR('',#305,1.);
#305 = DIRECTION('',(0.,1.,0.));
#306 = ORIENTED_EDGE('',*,*,#307,.F.);
#307 = EDGE_CURVE('',#284,#300,#308,.T.);
#308 = LINE('',#309,#310);
#309 = CARTESIAN_POINT('',(-6.15,2.28,0.));
#310 = VECTOR('',#311,1.);
#311 = DIRECTION('',(-1.,0.,0.));
#312 = FACE_BOUND('',#313,.T.);
#313 = EDGE_LOOP('',(#314,#324,#332,#340));
#314 = ORIENTED_EDGE('',*,*,#315,.F.);
#315 = EDGE_CURVE('',#316,#318,#320,.T.);
#316 = VERTEX_POINT('',#317);
#317 = CARTESIAN_POINT('',(-6.15,5.33,0.));
#318 = VERTEX_POINT('',#319);
#319 = CARTESIAN_POINT('',(-6.15,4.83,0.));
#320 = LINE('',#321,#322);
#321 = CARTESIAN_POINT('',(-6.15,5.33,0.));
#322 = VECTOR('',#323,1.);
#323 = DIRECTION('',(0.,-1.,0.));
#324 = ORIENTED_EDGE('',*,*,#325,.F.);
#325 = EDGE_CURVE('',#326,#316,#328,.T.);
#326 = VERTEX_POINT('',#327);
#327 = CARTESIAN_POINT('',(-6.55,5.33,0.));
#328 = LINE('',#329,#330);
#329 = CARTESIAN_POINT('',(-6.55,5.33,0.));
#330 = VECTOR('',#331,1.);
#331 = DIRECTION('',(1.,0.,0.));
#332 = ORIENTED_EDGE('',*,*,#333,.F.);
#333 = EDGE_CURVE('',#334,#326,#336,.T.);
#334 = VERTEX_POINT('',#335);
#335 = CARTESIAN_POINT('',(-6.55,4.83,0.));
#336 = LINE('',#337,#338);
#337 = CARTESIAN_POINT('',(-6.55,4.83,0.));
#338 = VECTOR('',#339,1.);
#339 = DIRECTION('',(0.,1.,0.));
#340 = ORIENTED_EDGE('',*,*,#341,.F.);
#341 = EDGE_CURVE('',#318,#334,#342,.T.);
#342 = LINE('',#343,#344);
#343 = CARTESIAN_POINT('',(-6.15,4.83,0.));
#344 = VECTOR('',#345,1.);
#345 = DIRECTION('',(-1.,0.,0.));
#346 = FACE_BOUND('',#347,.T.);
#347 = EDGE_LOOP('',(#348,#358,#366,#374));
#348 = ORIENTED_EDGE('',*,*,#349,.F.);
#349 = EDGE_CURVE('',#350,#352,#354,.T.);
#350 = VERTEX_POINT('',#351);
#351 = CARTESIAN_POINT('',(6.15,-5.33,0.));
#352 = VERTEX_POINT('',#353);
#353 = CARTESIAN_POINT('',(6.15,-4.83,0.));
#354 = LINE('',#355,#356);
#355 = CARTESIAN_POINT('',(6.15,-5.33,0.));
#356 = VECTOR('',#357,1.);
#357 = DIRECTION('',(0.,1.,0.));
#358 = ORIENTED_EDGE('',*,*,#359,.F.);
#359 = EDGE_CURVE('',#360,#350,#362,.T.);
#360 = VERTEX_POINT('',#361);
#361 = CARTESIAN_POINT('',(6.55,-5.33,0.));
#362 = LINE('',#363,#364);
#363 = CARTESIAN_POINT('',(6.55,-5.33,0.));
#364 = VECTOR('',#365,1.);
#365 = DIRECTION('',(-1.,0.,0.));
#366 = ORIENTED_EDGE('',*,*,#367,.F.);
#367 = EDGE_CURVE('',#368,#360,#370,.T.);
#368 = VERTEX_POINT('',#369);
#369 = CARTESIAN_POINT('',(6.55,-4.83,0.));
#370 = LINE('',#371,#372);
#371 = CARTESIAN_POINT('',(6.55,-4.83,0.));
#372 = VECTOR('',#373,1.);
#373 = DIRECTION('',(0.,-1.,0.));
#374 = ORIENTED_EDGE('',*,*,#375,.F.);
#375 = EDGE_CURVE('',#352,#368,#376,.T.);
#376 = LINE('',#377,#378);
#377 = CARTESIAN_POINT('',(6.15,-4.83,0.));
#378 = VECTOR('',#379,1.);
#379 = DIRECTION('',(1.,0.,0.));
#380 = FACE_BOUND('',#381,.T.);
#381 = EDGE_LOOP('',(#382,#392,#400,#408));
#382 = ORIENTED_EDGE('',*,*,#383,.F.);
#383 = EDGE_CURVE('',#384,#386,#388,.T.);
#384 = VERTEX_POINT('',#385);
#385 = CARTESIAN_POINT('',(6.15,-2.28,0.));
#386 = VERTEX_POINT('',#387);
#387 = CARTESIAN_POINT('',(6.55,-2.28,0.));
#388 = LINE('',#389,#390);
#389 = CARTESIAN_POINT('',(6.15,-2.28,0.));
#390 = VECTOR('',#391,1.);
#391 = DIRECTION('',(1.,0.,0.));
#392 = ORIENTED_EDGE('',*,*,#393,.F.);
#393 = EDGE_CURVE('',#394,#384,#396,.T.);
#394 = VERTEX_POINT('',#395);
#395 = CARTESIAN_POINT('',(6.15,-2.78,0.));
#396 = LINE('',#397,#398);
#397 = CARTESIAN_POINT('',(6.15,-2.78,0.));
#398 = VECTOR('',#399,1.);
#399 = DIRECTION('',(0.,1.,0.));
#400 = ORIENTED_EDGE('',*,*,#401,.F.);
#401 = EDGE_CURVE('',#402,#394,#404,.T.);
#402 = VERTEX_POINT('',#403);
#403 = CARTESIAN_POINT('',(6.55,-2.78,0.));
#404 = LINE('',#405,#406);
#405 = CARTESIAN_POINT('',(6.55,-2.78,0.));
#406 = VECTOR('',#407,1.);
#407 = DIRECTION('',(-1.,0.,0.));
#408 = ORIENTED_EDGE('',*,*,#409,.F.);
#409 = EDGE_CURVE('',#386,#402,#410,.T.);
#410 = LINE('',#411,#412);
#411 = CARTESIAN_POINT('',(6.55,-2.28,0.));
#412 = VECTOR('',#413,1.);
#413 = DIRECTION('',(0.,-1.,0.));
#414 = FACE_BOUND('',#415,.T.);
#415 = EDGE_LOOP('',(#416,#426,#434,#442));
#416 = ORIENTED_EDGE('',*,*,#417,.F.);
#417 = EDGE_CURVE('',#418,#420,#422,.T.);
#418 = VERTEX_POINT('',#419);
#419 = CARTESIAN_POINT('',(6.15,2.78,0.));
#420 = VERTEX_POINT('',#421);
#421 = CARTESIAN_POINT('',(6.55,2.78,0.));
#422 = LINE('',#423,#424);
#423 = CARTESIAN_POINT('',(6.15,2.78,0.));
#424 = VECTOR('',#425,1.);
#425 = DIRECTION('',(1.,0.,0.));
#426 = ORIENTED_EDGE('',*,*,#427,.F.);
#427 = EDGE_CURVE('',#428,#418,#430,.T.);
#428 = VERTEX_POINT('',#429);
#429 = CARTESIAN_POINT('',(6.15,2.28,0.));
#430 = LINE('',#431,#432);
#431 = CARTESIAN_POINT('',(6.15,2.28,0.));
#432 = VECTOR('',#433,1.);
#433 = DIRECTION('',(0.,1.,0.));
#434 = ORIENTED_EDGE('',*,*,#435,.F.);
#435 = EDGE_CURVE('',#436,#428,#438,.T.);
#436 = VERTEX_POINT('',#437);
#437 = CARTESIAN_POINT('',(6.55,2.28,0.));
#438 = LINE('',#439,#440);
#439 = CARTESIAN_POINT('',(6.55,2.28,0.));
#440 = VECTOR('',#441,1.);
#441 = DIRECTION('',(-1.,0.,0.));
#442 = ORIENTED_EDGE('',*,*,#443,.F.);
#443 = EDGE_CURVE('',#420,#436,#444,.T.);
#444 = LINE('',#445,#446);
#445 = CARTESIAN_POINT('',(6.55,2.78,0.));
#446 = VECTOR('',#447,1.);
#447 = DIRECTION('',(0.,-1.,0.));
#448 = FACE_BOUND('',#449,.T.);
#449 = EDGE_LOOP('',(#450,#460,#468,#476));
#450 = ORIENTED_EDGE('',*,*,#451,.F.);
#451 = EDGE_CURVE('',#452,#454,#456,.T.);
#452 = VERTEX_POINT('',#453);
#453 = CARTESIAN_POINT('',(6.15,5.33,0.));
#454 = VERTEX_POINT('',#455);
#455 = CARTESIAN_POINT('',(6.55,5.33,0.));
#456 = LINE('',#457,#458);
#457 = CARTESIAN_POINT('',(6.15,5.33,0.));
#458 = VECTOR('',#459,1.);
#459 = DIRECTION('',(1.,0.,0.));
#460 = ORIENTED_EDGE('',*,*,#461,.F.);
#461 = EDGE_CURVE('',#462,#452,#464,.T.);
#462 = VERTEX_POINT('',#463);
#463 = CARTESIAN_POINT('',(6.15,4.83,0.));
#464 = LINE('',#465,#466);
#465 = CARTESIAN_POINT('',(6.15,4.83,0.));
#466 = VECTOR('',#467,1.);
#467 = DIRECTION('',(0.,1.,0.));
#468 = ORIENTED_EDGE('',*,*,#469,.F.);
#469 = EDGE_CURVE('',#470,#462,#472,.T.);
#470 = VERTEX_POINT('',#471);
#471 = CARTESIAN_POINT('',(6.55,4.83,0.));
#472 = LINE('',#473,#474);
#473 = CARTESIAN_POINT('',(6.55,4.83,0.));
#474 = VECTOR('',#475,1.);
#475 = DIRECTION('',(-1.,0.,0.));
#476 = ORIENTED_EDGE('',*,*,#477,.F.);
#477 = EDGE_CURVE('',#454,#470,#478,.T.);
#478 = LINE('',#479,#480);
#479 = CARTESIAN_POINT('',(6.55,5.33,0.));
#480 = VECTOR('',#481,1.);
#481 = DIRECTION('',(0.,-1.,0.));
#482 = PLANE('',#483);
#483 = AXIS2_PLACEMENT_3D('',#484,#485,#486);
#484 = CARTESIAN_POINT('',(7.15,-6.25,0.));
#485 = DIRECTION('',(0.,0.,-1.));
#486 = DIRECTION('',(-0.752902756199,0.658131779895,0.));
#487 = ADVANCED_FACE('',(#488),#516,.T.);
#488 = FACE_BOUND('',#489,.T.);
#489 = EDGE_LOOP('',(#490,#491,#492,#500,#510,#515));
#490 = ORIENTED_EDGE('',*,*,#90,.T.);
#491 = ORIENTED_EDGE('',*,*,#161,.T.);
#492 = ORIENTED_EDGE('',*,*,#493,.F.);
#493 = EDGE_CURVE('',#494,#162,#496,.T.);
#494 = VERTEX_POINT('',#495);
#495 = CARTESIAN_POINT('',(-6.910359480574,-6.110359480574,8.));
#496 = LINE('',#497,#498);
#497 = CARTESIAN_POINT('',(-7.15,-6.110359480574,8.));
#498 = VECTOR('',#499,1.);
#499 = DIRECTION('',(1.,0.,0.));
#500 = ORIENTED_EDGE('',*,*,#501,.T.);
#501 = EDGE_CURVE('',#494,#502,#504,.T.);
#502 = VERTEX_POINT('',#503);
#503 = CARTESIAN_POINT('',(-7.012104721218,-6.112104721218,
    7.900015230484));
#504 = B_SPLINE_CURVE_WITH_KNOTS('',4,(#505,#506,#507,#508,#509),
  .UNSPECIFIED.,.F.,.F.,(5,5),(0.,1.),.PIECEWISE_BEZIER_KNOTS.);
#505 = CARTESIAN_POINT('',(-6.910359480574,-6.110359480574,8.));
#506 = CARTESIAN_POINT('',(-6.935795790294,-6.110795790728,
    7.975003808054));
#507 = CARTESIAN_POINT('',(-6.961232100309,-6.111232100886,7.95000761582
    ));
#508 = CARTESIAN_POINT('',(-6.986668410616,-6.111668411049,
    7.925011423296));
#509 = CARTESIAN_POINT('',(-7.012104721218,-6.112104721218,
    7.900015230484));
#510 = ORIENTED_EDGE('',*,*,#511,.F.);
#511 = EDGE_CURVE('',#197,#502,#512,.T.);
#512 = B_SPLINE_CURVE_WITH_KNOTS('',1,(#513,#514),.UNSPECIFIED.,.F.,.F.,
  (2,2),(0.,1.),.PIECEWISE_BEZIER_KNOTS.);
#513 = CARTESIAN_POINT('',(-7.15,-6.25,0.));
#514 = CARTESIAN_POINT('',(-7.010359480574,-6.110359480574,8.));
#515 = ORIENTED_EDGE('',*,*,#196,.T.);
#516 = B_SPLINE_SURFACE_WITH_KNOTS('',1,1,(
    (#517,#518)
    ,(#519,#520
    )),.UNSPECIFIED.,.F.,.F.,.F.,(2,2),(2,2),(0.,14.3),(0.,1.),
  .PIECEWISE_BEZIER_KNOTS.);
#517 = CARTESIAN_POINT('',(-7.15,-6.25,0.));
#518 = CARTESIAN_POINT('',(-7.010359480574,-6.110359480574,8.));
#519 = CARTESIAN_POINT('',(7.15,-6.25,0.));
#520 = CARTESIAN_POINT('',(7.010359480574,-6.110359480574,8.));
#521 = ADVANCED_FACE('',(#522),#535,.T.);
#522 = FACE_BOUND('',#523,.T.);
#523 = EDGE_LOOP('',(#524,#525,#533,#534));
#524 = ORIENTED_EDGE('',*,*,#511,.T.);
#525 = ORIENTED_EDGE('',*,*,#526,.F.);
#526 = EDGE_CURVE('',#114,#502,#527,.T.);
#527 = B_SPLINE_CURVE_WITH_KNOTS('',2,(#528,#529,#530,#531,#532),
  .UNSPECIFIED.,.F.,.F.,(3,1,1,3),(-0.749653241066,-1.745240643745E-03,
    12.222464201792,12.970372202215),.UNSPECIFIED.);
#528 = CARTESIAN_POINT('',(-7.012104721218,6.86001272164,7.900015230484)
  );
#529 = CARTESIAN_POINT('',(-7.012104721218,6.486058721429,7.900015230484
    ));
#530 = CARTESIAN_POINT('',(-7.012104721218,0.,7.900015230484));
#531 = CARTESIAN_POINT('',(-7.012104721218,-6.486058721429,
    7.900015230484));
#532 = CARTESIAN_POINT('',(-7.012104721218,-6.86001272164,7.900015230484
    ));
#533 = ORIENTED_EDGE('',*,*,#111,.F.);
#534 = ORIENTED_EDGE('',*,*,#204,.T.);
#535 = B_SPLINE_SURFACE_WITH_KNOTS('',1,1,(
    (#536,#537)
    ,(#538,#539
    )),.UNSPECIFIED.,.F.,.F.,.F.,(2,2),(2,2),(0.,12.5),(0.,1.),
  .PIECEWISE_BEZIER_KNOTS.);
#536 = CARTESIAN_POINT('',(-7.15,6.25,0.));
#537 = CARTESIAN_POINT('',(-7.010359480574,6.110359480574,8.));
#538 = CARTESIAN_POINT('',(-7.15,-6.25,0.));
#539 = CARTESIAN_POINT('',(-7.010359480574,-6.110359480574,8.));
#540 = ADVANCED_FACE('',(#541),#554,.T.);
#541 = FACE_BOUND('',#542,.T.);
#542 = EDGE_LOOP('',(#543,#544,#545,#546));
#543 = ORIENTED_EDGE('',*,*,#120,.T.);
#544 = ORIENTED_EDGE('',*,*,#526,.T.);
#545 = ORIENTED_EDGE('',*,*,#501,.F.);
#546 = ORIENTED_EDGE('',*,*,#547,.F.);
#547 = EDGE_CURVE('',#121,#494,#548,.T.);
#548 = B_SPLINE_CURVE_WITH_KNOTS('',2,(#549,#550,#551,#552,#553),
  .UNSPECIFIED.,.F.,.F.,(3,1,1,3),(-0.749653241066,-1.745240643745E-03,
    12.222464201792,12.970372202215),.UNSPECIFIED.);
#549 = CARTESIAN_POINT('',(-6.910359480574,6.86001272164,8.));
#550 = CARTESIAN_POINT('',(-6.910359480574,6.486058721429,8.));
#551 = CARTESIAN_POINT('',(-6.910359480574,0.,8.));
#552 = CARTESIAN_POINT('',(-6.910359480574,-6.486058721429,8.));
#553 = CARTESIAN_POINT('',(-6.910359480574,-6.86001272164,8.));
#554 = B_SPLINE_SURFACE_WITH_KNOTS('',1,2,(
    (#555,#556,#557,#558,#559)
    ,(#560,#561,#562,#563,#564
    )),.UNSPECIFIED.,.F.,.F.,.F.,(2,2),(3,1,1,3),(0.,12.224209442436),(
    -0.749653241066,-1.745240643745E-03,12.222464201792,12.970372202215)
  ,.UNSPECIFIED.);
#555 = CARTESIAN_POINT('',(-6.910359480574,6.86001272164,8.));
#556 = CARTESIAN_POINT('',(-6.910359480574,6.486058721429,8.));
#557 = CARTESIAN_POINT('',(-6.910359480574,0.,8.));
#558 = CARTESIAN_POINT('',(-6.910359480574,-6.486058721429,8.));
#559 = CARTESIAN_POINT('',(-6.910359480574,-6.86001272164,8.));
#560 = CARTESIAN_POINT('',(-7.012104721218,6.86001272164,7.900015230484)
  );
#561 = CARTESIAN_POINT('',(-7.012104721218,6.486058721429,7.900015230484
    ));
#562 = CARTESIAN_POINT('',(-7.012104721218,0.,7.900015230484));
#563 = CARTESIAN_POINT('',(-7.012104721218,-6.486058721429,
    7.900015230484));
#564 = CARTESIAN_POINT('',(-7.012104721218,-6.86001272164,7.900015230484
    ));
#565 = ADVANCED_FACE('',(#566),#572,.F.);
#566 = FACE_BOUND('',#567,.F.);
#567 = EDGE_LOOP('',(#568,#569,#570,#571));
#568 = ORIENTED_EDGE('',*,*,#130,.F.);
#569 = ORIENTED_EDGE('',*,*,#171,.F.);
#570 = ORIENTED_EDGE('',*,*,#493,.F.);
#571 = ORIENTED_EDGE('',*,*,#547,.F.);
#572 = PLANE('',#573);
#573 = AXIS2_PLACEMENT_3D('',#574,#575,#576);
#574 = CARTESIAN_POINT('',(7.010359480574,-6.110359480574,8.));
#575 = DIRECTION('',(0.,0.,-1.));
#576 = DIRECTION('',(-0.753838558428,0.657059683612,0.));
#577 = ADVANCED_FACE('',(#578),#603,.F.);
#578 = FACE_BOUND('',#579,.F.);
#579 = EDGE_LOOP('',(#580,#588,#596,#602));
#580 = ORIENTED_EDGE('',*,*,#581,.T.);
#581 = EDGE_CURVE('',#214,#582,#584,.T.);
#582 = VERTEX_POINT('',#583);
#583 = CARTESIAN_POINT('',(-6.15,-4.83,1.));
#584 = LINE('',#585,#586);
#585 = CARTESIAN_POINT('',(-6.15,-4.83,0.));
#586 = VECTOR('',#587,1.);
#587 = DIRECTION('',(0.,0.,1.));
#588 = ORIENTED_EDGE('',*,*,#589,.T.);
#589 = EDGE_CURVE('',#582,#590,#592,.T.);
#590 = VERTEX_POINT('',#591);
#591 = CARTESIAN_POINT('',(-6.15,-5.33,1.));
#592 = LINE('',#593,#594);
#593 = CARTESIAN_POINT('',(-6.15,-4.83,1.));
#594 = VECTOR('',#595,1.);
#595 = DIRECTION('',(0.,-1.,0.));
#596 = ORIENTED_EDGE('',*,*,#597,.F.);
#597 = EDGE_CURVE('',#216,#590,#598,.T.);
#598 = LINE('',#599,#600);
#599 = CARTESIAN_POINT('',(-6.15,-5.33,0.));
#600 = VECTOR('',#601,1.);
#601 = DIRECTION('',(0.,0.,1.));
#602 = ORIENTED_EDGE('',*,*,#213,.F.);
#603 = PLANE('',#604);
#604 = AXIS2_PLACEMENT_3D('',#605,#606,#607);
#605 = CARTESIAN_POINT('',(-6.15,-4.83,0.));
#606 = DIRECTION('',(1.,0.,0.));
#607 = DIRECTION('',(0.,-1.,0.));
#608 = ADVANCED_FACE('',(#609),#627,.F.);
#609 = FACE_BOUND('',#610,.F.);
#610 = EDGE_LOOP('',(#611,#612,#620,#626));
#611 = ORIENTED_EDGE('',*,*,#597,.T.);
#612 = ORIENTED_EDGE('',*,*,#613,.T.);
#613 = EDGE_CURVE('',#590,#614,#616,.T.);
#614 = VERTEX_POINT('',#615);
#615 = CARTESIAN_POINT('',(-6.55,-5.33,1.));
#616 = LINE('',#617,#618);
#617 = CARTESIAN_POINT('',(-6.15,-5.33,1.));
#618 = VECTOR('',#619,1.);
#619 = DIRECTION('',(-1.,0.,0.));
#620 = ORIENTED_EDGE('',*,*,#621,.F.);
#621 = EDGE_CURVE('',#232,#614,#622,.T.);
#622 = LINE('',#623,#624);
#623 = CARTESIAN_POINT('',(-6.55,-5.33,0.));
#624 = VECTOR('',#625,1.);
#625 = DIRECTION('',(0.,0.,1.));
#626 = ORIENTED_EDGE('',*,*,#239,.F.);
#627 = PLANE('',#628);
#628 = AXIS2_PLACEMENT_3D('',#629,#630,#631);
#629 = CARTESIAN_POINT('',(-6.15,-5.33,0.));
#630 = DIRECTION('',(0.,-1.,0.));
#631 = DIRECTION('',(-1.,0.,0.));
#632 = ADVANCED_FACE('',(#633),#651,.F.);
#633 = FACE_BOUND('',#634,.F.);
#634 = EDGE_LOOP('',(#635,#636,#644,#650));
#635 = ORIENTED_EDGE('',*,*,#621,.T.);
#636 = ORIENTED_EDGE('',*,*,#637,.T.);
#637 = EDGE_CURVE('',#614,#638,#640,.T.);
#638 = VERTEX_POINT('',#639);
#639 = CARTESIAN_POINT('',(-6.55,-4.83,1.));
#640 = LINE('',#641,#642);
#641 = CARTESIAN_POINT('',(-6.55,-5.33,1.));
#642 = VECTOR('',#643,1.);
#643 = DIRECTION('',(0.,1.,0.));
#644 = ORIENTED_EDGE('',*,*,#645,.F.);
#645 = EDGE_CURVE('',#224,#638,#646,.T.);
#646 = LINE('',#647,#648);
#647 = CARTESIAN_POINT('',(-6.55,-4.83,0.));
#648 = VECTOR('',#649,1.);
#649 = DIRECTION('',(0.,0.,1.));
#650 = ORIENTED_EDGE('',*,*,#231,.F.);
#651 = PLANE('',#652);
#652 = AXIS2_PLACEMENT_3D('',#653,#654,#655);
#653 = CARTESIAN_POINT('',(-6.55,-5.33,0.));
#654 = DIRECTION('',(-1.,0.,0.));
#655 = DIRECTION('',(0.,1.,0.));
#656 = ADVANCED_FACE('',(#657),#668,.F.);
#657 = FACE_BOUND('',#658,.F.);
#658 = EDGE_LOOP('',(#659,#660,#666,#667));
#659 = ORIENTED_EDGE('',*,*,#645,.T.);
#660 = ORIENTED_EDGE('',*,*,#661,.T.);
#661 = EDGE_CURVE('',#638,#582,#662,.T.);
#662 = LINE('',#663,#664);
#663 = CARTESIAN_POINT('',(-6.55,-4.83,1.));
#664 = VECTOR('',#665,1.);
#665 = DIRECTION('',(1.,0.,0.));
#666 = ORIENTED_EDGE('',*,*,#581,.F.);
#667 = ORIENTED_EDGE('',*,*,#223,.F.);
#668 = PLANE('',#669);
#669 = AXIS2_PLACEMENT_3D('',#670,#671,#672);
#670 = CARTESIAN_POINT('',(-6.55,-4.83,0.));
#671 = DIRECTION('',(0.,1.,0.));
#672 = DIRECTION('',(1.,0.,0.));
#673 = ADVANCED_FACE('',(#674),#699,.F.);
#674 = FACE_BOUND('',#675,.F.);
#675 = EDGE_LOOP('',(#676,#684,#692,#698));
#676 = ORIENTED_EDGE('',*,*,#677,.T.);
#677 = EDGE_CURVE('',#248,#678,#680,.T.);
#678 = VERTEX_POINT('',#679);
#679 = CARTESIAN_POINT('',(-6.15,-2.28,1.));
#680 = LINE('',#681,#682);
#681 = CARTESIAN_POINT('',(-6.15,-2.28,0.));
#682 = VECTOR('',#683,1.);
#683 = DIRECTION('',(0.,0.,1.));
#684 = ORIENTED_EDGE('',*,*,#685,.T.);
#685 = EDGE_CURVE('',#678,#686,#688,.T.);
#686 = VERTEX_POINT('',#687);
#687 = CARTESIAN_POINT('',(-6.15,-2.78,1.));
#688 = LINE('',#689,#690);
#689 = CARTESIAN_POINT('',(-6.15,-2.28,1.));
#690 = VECTOR('',#691,1.);
#691 = DIRECTION('',(0.,-1.,0.));
#692 = ORIENTED_EDGE('',*,*,#693,.F.);
#693 = EDGE_CURVE('',#250,#686,#694,.T.);
#694 = LINE('',#695,#696);
#695 = CARTESIAN_POINT('',(-6.15,-2.78,0.));
#696 = VECTOR('',#697,1.);
#697 = DIRECTION('',(0.,0.,1.));
#698 = ORIENTED_EDGE('',*,*,#247,.F.);
#699 = PLANE('',#700);
#700 = AXIS2_PLACEMENT_3D('',#701,#702,#703);
#701 = CARTESIAN_POINT('',(-6.15,-2.28,0.));
#702 = DIRECTION('',(1.,0.,0.));
#703 = DIRECTION('',(0.,-1.,0.));
#704 = ADVANCED_FACE('',(#705),#723,.F.);
#705 = FACE_BOUND('',#706,.F.);
#706 = EDGE_LOOP('',(#707,#708,#716,#722));
#707 = ORIENTED_EDGE('',*,*,#693,.T.);
#708 = ORIENTED_EDGE('',*,*,#709,.T.);
#709 = EDGE_CURVE('',#686,#710,#712,.T.);
#710 = VERTEX_POINT('',#711);
#711 = CARTESIAN_POINT('',(-6.55,-2.78,1.));
#712 = LINE('',#713,#714);
#713 = CARTESIAN_POINT('',(-6.15,-2.78,1.));
#714 = VECTOR('',#715,1.);
#715 = DIRECTION('',(-1.,0.,0.));
#716 = ORIENTED_EDGE('',*,*,#717,.F.);
#717 = EDGE_CURVE('',#266,#710,#718,.T.);
#718 = LINE('',#719,#720);
#719 = CARTESIAN_POINT('',(-6.55,-2.78,0.));
#720 = VECTOR('',#721,1.);
#721 = DIRECTION('',(0.,0.,1.));
#722 = ORIENTED_EDGE('',*,*,#273,.F.);
#723 = PLANE('',#724);
#724 = AXIS2_PLACEMENT_3D('',#725,#726,#727);
#725 = CARTESIAN_POINT('',(-6.15,-2.78,0.));
#726 = DIRECTION('',(0.,-1.,0.));
#727 = DIRECTION('',(-1.,0.,0.));
#728 = ADVANCED_FACE('',(#729),#747,.F.);
#729 = FACE_BOUND('',#730,.F.);
#730 = EDGE_LOOP('',(#731,#732,#740,#746));
#731 = ORIENTED_EDGE('',*,*,#717,.T.);
#732 = ORIENTED_EDGE('',*,*,#733,.T.);
#733 = EDGE_CURVE('',#710,#734,#736,.T.);
#734 = VERTEX_POINT('',#735);
#735 = CARTESIAN_POINT('',(-6.55,-2.28,1.));
#736 = LINE('',#737,#738);
#737 = CARTESIAN_POINT('',(-6.55,-2.78,1.));
#738 = VECTOR('',#739,1.);
#739 = DIRECTION('',(0.,1.,0.));
#740 = ORIENTED_EDGE('',*,*,#741,.F.);
#741 = EDGE_CURVE('',#258,#734,#742,.T.);
#742 = LINE('',#743,#744);
#743 = CARTESIAN_POINT('',(-6.55,-2.28,0.));
#744 = VECTOR('',#745,1.);
#745 = DIRECTION('',(0.,0.,1.));
#746 = ORIENTED_EDGE('',*,*,#265,.F.);
#747 = PLANE('',#748);
#748 = AXIS2_PLACEMENT_3D('',#749,#750,#751);
#749 = CARTESIAN_POINT('',(-6.55,-2.78,0.));
#750 = DIRECTION('',(-1.,0.,0.));
#751 = DIRECTION('',(0.,1.,0.));
#752 = ADVANCED_FACE('',(#753),#764,.F.);
#753 = FACE_BOUND('',#754,.F.);
#754 = EDGE_LOOP('',(#755,#756,#762,#763));
#755 = ORIENTED_EDGE('',*,*,#741,.T.);
#756 = ORIENTED_EDGE('',*,*,#757,.T.);
#757 = EDGE_CURVE('',#734,#678,#758,.T.);
#758 = LINE('',#759,#760);
#759 = CARTESIAN_POINT('',(-6.55,-2.28,1.));
#760 = VECTOR('',#761,1.);
#761 = DIRECTION('',(1.,0.,0.));
#762 = ORIENTED_EDGE('',*,*,#677,.F.);
#763 = ORIENTED_EDGE('',*,*,#257,.F.);
#764 = PLANE('',#765);
#765 = AXIS2_PLACEMENT_3D('',#766,#767,#768);
#766 = CARTESIAN_POINT('',(-6.55,-2.28,0.));
#767 = DIRECTION('',(0.,1.,0.));
#768 = DIRECTION('',(1.,0.,0.));
#769 = ADVANCED_FACE('',(#770),#795,.F.);
#770 = FACE_BOUND('',#771,.F.);
#771 = EDGE_LOOP('',(#772,#780,#788,#794));
#772 = ORIENTED_EDGE('',*,*,#773,.T.);
#773 = EDGE_CURVE('',#282,#774,#776,.T.);
#774 = VERTEX_POINT('',#775);
#775 = CARTESIAN_POINT('',(-6.15,2.78,1.));
#776 = LINE('',#777,#778);
#777 = CARTESIAN_POINT('',(-6.15,2.78,0.));
#778 = VECTOR('',#779,1.);
#779 = DIRECTION('',(0.,0.,1.));
#780 = ORIENTED_EDGE('',*,*,#781,.T.);
#781 = EDGE_CURVE('',#774,#782,#784,.T.);
#782 = VERTEX_POINT('',#783);
#783 = CARTESIAN_POINT('',(-6.15,2.28,1.));
#784 = LINE('',#785,#786);
#785 = CARTESIAN_POINT('',(-6.15,2.78,1.));
#786 = VECTOR('',#787,1.);
#787 = DIRECTION('',(0.,-1.,0.));
#788 = ORIENTED_EDGE('',*,*,#789,.F.);
#789 = EDGE_CURVE('',#284,#782,#790,.T.);
#790 = LINE('',#791,#792);
#791 = CARTESIAN_POINT('',(-6.15,2.28,0.));
#792 = VECTOR('',#793,1.);
#793 = DIRECTION('',(0.,0.,1.));
#794 = ORIENTED_EDGE('',*,*,#281,.F.);
#795 = PLANE('',#796);
#796 = AXIS2_PLACEMENT_3D('',#797,#798,#799);
#797 = CARTESIAN_POINT('',(-6.15,2.78,0.));
#798 = DIRECTION('',(1.,0.,0.));
#799 = DIRECTION('',(0.,-1.,0.));
#800 = ADVANCED_FACE('',(#801),#819,.F.);
#801 = FACE_BOUND('',#802,.F.);
#802 = EDGE_LOOP('',(#803,#804,#812,#818));
#803 = ORIENTED_EDGE('',*,*,#789,.T.);
#804 = ORIENTED_EDGE('',*,*,#805,.T.);
#805 = EDGE_CURVE('',#782,#806,#808,.T.);
#806 = VERTEX_POINT('',#807);
#807 = CARTESIAN_POINT('',(-6.55,2.28,1.));
#808 = LINE('',#809,#810);
#809 = CARTESIAN_POINT('',(-6.15,2.28,1.));
#810 = VECTOR('',#811,1.);
#811 = DIRECTION('',(-1.,0.,0.));
#812 = ORIENTED_EDGE('',*,*,#813,.F.);
#813 = EDGE_CURVE('',#300,#806,#814,.T.);
#814 = LINE('',#815,#816);
#815 = CARTESIAN_POINT('',(-6.55,2.28,0.));
#816 = VECTOR('',#817,1.);
#817 = DIRECTION('',(0.,0.,1.));
#818 = ORIENTED_EDGE('',*,*,#307,.F.);
#819 = PLANE('',#820);
#820 = AXIS2_PLACEMENT_3D('',#821,#822,#823);
#821 = CARTESIAN_POINT('',(-6.15,2.28,0.));
#822 = DIRECTION('',(0.,-1.,0.));
#823 = DIRECTION('',(-1.,0.,0.));
#824 = ADVANCED_FACE('',(#825),#843,.F.);
#825 = FACE_BOUND('',#826,.F.);
#826 = EDGE_LOOP('',(#827,#828,#836,#842));
#827 = ORIENTED_EDGE('',*,*,#813,.T.);
#828 = ORIENTED_EDGE('',*,*,#829,.T.);
#829 = EDGE_CURVE('',#806,#830,#832,.T.);
#830 = VERTEX_POINT('',#831);
#831 = CARTESIAN_POINT('',(-6.55,2.78,1.));
#832 = LINE('',#833,#834);
#833 = CARTESIAN_POINT('',(-6.55,2.28,1.));
#834 = VECTOR('',#835,1.);
#835 = DIRECTION('',(0.,1.,0.));
#836 = ORIENTED_EDGE('',*,*,#837,.F.);
#837 = EDGE_CURVE('',#292,#830,#838,.T.);
#838 = LINE('',#839,#840);
#839 = CARTESIAN_POINT('',(-6.55,2.78,0.));
#840 = VECTOR('',#841,1.);
#841 = DIRECTION('',(0.,0.,1.));
#842 = ORIENTED_EDGE('',*,*,#299,.F.);
#843 = PLANE('',#844);
#844 = AXIS2_PLACEMENT_3D('',#845,#846,#847);
#845 = CARTESIAN_POINT('',(-6.55,2.28,0.));
#846 = DIRECTION('',(-1.,0.,0.));
#847 = DIRECTION('',(0.,1.,0.));
#848 = ADVANCED_FACE('',(#849),#860,.F.);
#849 = FACE_BOUND('',#850,.F.);
#850 = EDGE_LOOP('',(#851,#852,#858,#859));
#851 = ORIENTED_EDGE('',*,*,#837,.T.);
#852 = ORIENTED_EDGE('',*,*,#853,.T.);
#853 = EDGE_CURVE('',#830,#774,#854,.T.);
#854 = LINE('',#855,#856);
#855 = CARTESIAN_POINT('',(-6.55,2.78,1.));
#856 = VECTOR('',#857,1.);
#857 = DIRECTION('',(1.,0.,0.));
#858 = ORIENTED_EDGE('',*,*,#773,.F.);
#859 = ORIENTED_EDGE('',*,*,#291,.F.);
#860 = PLANE('',#861);
#861 = AXIS2_PLACEMENT_3D('',#862,#863,#864);
#862 = CARTESIAN_POINT('',(-6.55,2.78,0.));
#863 = DIRECTION('',(0.,1.,0.));
#864 = DIRECTION('',(1.,0.,0.));
#865 = ADVANCED_FACE('',(#866),#891,.F.);
#866 = FACE_BOUND('',#867,.F.);
#867 = EDGE_LOOP('',(#868,#876,#884,#890));
#868 = ORIENTED_EDGE('',*,*,#869,.T.);
#869 = EDGE_CURVE('',#316,#870,#872,.T.);
#870 = VERTEX_POINT('',#871);
#871 = CARTESIAN_POINT('',(-6.15,5.33,1.));
#872 = LINE('',#873,#874);
#873 = CARTESIAN_POINT('',(-6.15,5.33,0.));
#874 = VECTOR('',#875,1.);
#875 = DIRECTION('',(0.,0.,1.));
#876 = ORIENTED_EDGE('',*,*,#877,.T.);
#877 = EDGE_CURVE('',#870,#878,#880,.T.);
#878 = VERTEX_POINT('',#879);
#879 = CARTESIAN_POINT('',(-6.15,4.83,1.));
#880 = LINE('',#881,#882);
#881 = CARTESIAN_POINT('',(-6.15,5.33,1.));
#882 = VECTOR('',#883,1.);
#883 = DIRECTION('',(0.,-1.,0.));
#884 = ORIENTED_EDGE('',*,*,#885,.F.);
#885 = EDGE_CURVE('',#318,#878,#886,.T.);
#886 = LINE('',#887,#888);
#887 = CARTESIAN_POINT('',(-6.15,4.83,0.));
#888 = VECTOR('',#889,1.);
#889 = DIRECTION('',(0.,0.,1.));
#890 = ORIENTED_EDGE('',*,*,#315,.F.);
#891 = PLANE('',#892);
#892 = AXIS2_PLACEMENT_3D('',#893,#894,#895);
#893 = CARTESIAN_POINT('',(-6.15,5.33,0.));
#894 = DIRECTION('',(1.,0.,0.));
#895 = DIRECTION('',(0.,-1.,0.));
#896 = ADVANCED_FACE('',(#897),#915,.F.);
#897 = FACE_BOUND('',#898,.F.);
#898 = EDGE_LOOP('',(#899,#900,#908,#914));
#899 = ORIENTED_EDGE('',*,*,#885,.T.);
#900 = ORIENTED_EDGE('',*,*,#901,.T.);
#901 = EDGE_CURVE('',#878,#902,#904,.T.);
#902 = VERTEX_POINT('',#903);
#903 = CARTESIAN_POINT('',(-6.55,4.83,1.));
#904 = LINE('',#905,#906);
#905 = CARTESIAN_POINT('',(-6.15,4.83,1.));
#906 = VECTOR('',#907,1.);
#907 = DIRECTION('',(-1.,0.,0.));
#908 = ORIENTED_EDGE('',*,*,#909,.F.);
#909 = EDGE_CURVE('',#334,#902,#910,.T.);
#910 = LINE('',#911,#912);
#911 = CARTESIAN_POINT('',(-6.55,4.83,0.));
#912 = VECTOR('',#913,1.);
#913 = DIRECTION('',(0.,0.,1.));
#914 = ORIENTED_EDGE('',*,*,#341,.F.);
#915 = PLANE('',#916);
#916 = AXIS2_PLACEMENT_3D('',#917,#918,#919);
#917 = CARTESIAN_POINT('',(-6.15,4.83,0.));
#918 = DIRECTION('',(0.,-1.,0.));
#919 = DIRECTION('',(-1.,0.,0.));
#920 = ADVANCED_FACE('',(#921),#939,.F.);
#921 = FACE_BOUND('',#922,.F.);
#922 = EDGE_LOOP('',(#923,#924,#932,#938));
#923 = ORIENTED_EDGE('',*,*,#909,.T.);
#924 = ORIENTED_EDGE('',*,*,#925,.T.);
#925 = EDGE_CURVE('',#902,#926,#928,.T.);
#926 = VERTEX_POINT('',#927);
#927 = CARTESIAN_POINT('',(-6.55,5.33,1.));
#928 = LINE('',#929,#930);
#929 = CARTESIAN_POINT('',(-6.55,4.83,1.));
#930 = VECTOR('',#931,1.);
#931 = DIRECTION('',(0.,1.,0.));
#932 = ORIENTED_EDGE('',*,*,#933,.F.);
#933 = EDGE_CURVE('',#326,#926,#934,.T.);
#934 = LINE('',#935,#936);
#935 = CARTESIAN_POINT('',(-6.55,5.33,0.));
#936 = VECTOR('',#937,1.);
#937 = DIRECTION('',(0.,0.,1.));
#938 = ORIENTED_EDGE('',*,*,#333,.F.);
#939 = PLANE('',#940);
#940 = AXIS2_PLACEMENT_3D('',#941,#942,#943);
#941 = CARTESIAN_POINT('',(-6.55,4.83,0.));
#942 = DIRECTION('',(-1.,0.,0.));
#943 = DIRECTION('',(0.,1.,0.));
#944 = ADVANCED_FACE('',(#945),#956,.F.);
#945 = FACE_BOUND('',#946,.F.);
#946 = EDGE_LOOP('',(#947,#948,#954,#955));
#947 = ORIENTED_EDGE('',*,*,#933,.T.);
#948 = ORIENTED_EDGE('',*,*,#949,.T.);
#949 = EDGE_CURVE('',#926,#870,#950,.T.);
#950 = LINE('',#951,#952);
#951 = CARTESIAN_POINT('',(-6.55,5.33,1.));
#952 = VECTOR('',#953,1.);
#953 = DIRECTION('',(1.,0.,0.));
#954 = ORIENTED_EDGE('',*,*,#869,.F.);
#955 = ORIENTED_EDGE('',*,*,#325,.F.);
#956 = PLANE('',#957);
#957 = AXIS2_PLACEMENT_3D('',#958,#959,#960);
#958 = CARTESIAN_POINT('',(-6.55,5.33,0.));
#959 = DIRECTION('',(0.,1.,0.));
#960 = DIRECTION('',(1.,0.,0.));
#961 = ADVANCED_FACE('',(#962),#987,.F.);
#962 = FACE_BOUND('',#963,.F.);
#963 = EDGE_LOOP('',(#964,#972,#980,#986));
#964 = ORIENTED_EDGE('',*,*,#965,.T.);
#965 = EDGE_CURVE('',#350,#966,#968,.T.);
#966 = VERTEX_POINT('',#967);
#967 = CARTESIAN_POINT('',(6.15,-5.33,1.));
#968 = LINE('',#969,#970);
#969 = CARTESIAN_POINT('',(6.15,-5.33,0.));
#970 = VECTOR('',#971,1.);
#971 = DIRECTION('',(0.,0.,1.));
#972 = ORIENTED_EDGE('',*,*,#973,.T.);
#973 = EDGE_CURVE('',#966,#974,#976,.T.);
#974 = VERTEX_POINT('',#975);
#975 = CARTESIAN_POINT('',(6.15,-4.83,1.));
#976 = LINE('',#977,#978);
#977 = CARTESIAN_POINT('',(6.15,-5.33,1.));
#978 = VECTOR('',#979,1.);
#979 = DIRECTION('',(0.,1.,0.));
#980 = ORIENTED_EDGE('',*,*,#981,.F.);
#981 = EDGE_CURVE('',#352,#974,#982,.T.);
#982 = LINE('',#983,#984);
#983 = CARTESIAN_POINT('',(6.15,-4.83,0.));
#984 = VECTOR('',#985,1.);
#985 = DIRECTION('',(0.,0.,1.));
#986 = ORIENTED_EDGE('',*,*,#349,.F.);
#987 = PLANE('',#988);
#988 = AXIS2_PLACEMENT_3D('',#989,#990,#991);
#989 = CARTESIAN_POINT('',(6.15,-5.33,0.));
#990 = DIRECTION('',(-1.,0.,0.));
#991 = DIRECTION('',(0.,1.,0.));
#992 = ADVANCED_FACE('',(#993),#1011,.F.);
#993 = FACE_BOUND('',#994,.F.);
#994 = EDGE_LOOP('',(#995,#996,#1004,#1010));
#995 = ORIENTED_EDGE('',*,*,#981,.T.);
#996 = ORIENTED_EDGE('',*,*,#997,.T.);
#997 = EDGE_CURVE('',#974,#998,#1000,.T.);
#998 = VERTEX_POINT('',#999);
#999 = CARTESIAN_POINT('',(6.55,-4.83,1.));
#1000 = LINE('',#1001,#1002);
#1001 = CARTESIAN_POINT('',(6.15,-4.83,1.));
#1002 = VECTOR('',#1003,1.);
#1003 = DIRECTION('',(1.,0.,0.));
#1004 = ORIENTED_EDGE('',*,*,#1005,.F.);
#1005 = EDGE_CURVE('',#368,#998,#1006,.T.);
#1006 = LINE('',#1007,#1008);
#1007 = CARTESIAN_POINT('',(6.55,-4.83,0.));
#1008 = VECTOR('',#1009,1.);
#1009 = DIRECTION('',(0.,0.,1.));
#1010 = ORIENTED_EDGE('',*,*,#375,.F.);
#1011 = PLANE('',#1012);
#1012 = AXIS2_PLACEMENT_3D('',#1013,#1014,#1015);
#1013 = CARTESIAN_POINT('',(6.15,-4.83,0.));
#1014 = DIRECTION('',(0.,1.,0.));
#1015 = DIRECTION('',(1.,0.,0.));
#1016 = ADVANCED_FACE('',(#1017),#1035,.F.);
#1017 = FACE_BOUND('',#1018,.F.);
#1018 = EDGE_LOOP('',(#1019,#1020,#1028,#1034));
#1019 = ORIENTED_EDGE('',*,*,#1005,.T.);
#1020 = ORIENTED_EDGE('',*,*,#1021,.T.);
#1021 = EDGE_CURVE('',#998,#1022,#1024,.T.);
#1022 = VERTEX_POINT('',#1023);
#1023 = CARTESIAN_POINT('',(6.55,-5.33,1.));
#1024 = LINE('',#1025,#1026);
#1025 = CARTESIAN_POINT('',(6.55,-4.83,1.));
#1026 = VECTOR('',#1027,1.);
#1027 = DIRECTION('',(0.,-1.,0.));
#1028 = ORIENTED_EDGE('',*,*,#1029,.F.);
#1029 = EDGE_CURVE('',#360,#1022,#1030,.T.);
#1030 = LINE('',#1031,#1032);
#1031 = CARTESIAN_POINT('',(6.55,-5.33,0.));
#1032 = VECTOR('',#1033,1.);
#1033 = DIRECTION('',(0.,0.,1.));
#1034 = ORIENTED_EDGE('',*,*,#367,.F.);
#1035 = PLANE('',#1036);
#1036 = AXIS2_PLACEMENT_3D('',#1037,#1038,#1039);
#1037 = CARTESIAN_POINT('',(6.55,-4.83,0.));
#1038 = DIRECTION('',(1.,0.,0.));
#1039 = DIRECTION('',(0.,-1.,0.));
#1040 = ADVANCED_FACE('',(#1041),#1052,.F.);
#1041 = FACE_BOUND('',#1042,.F.);
#1042 = EDGE_LOOP('',(#1043,#1044,#1050,#1051));
#1043 = ORIENTED_EDGE('',*,*,#1029,.T.);
#1044 = ORIENTED_EDGE('',*,*,#1045,.T.);
#1045 = EDGE_CURVE('',#1022,#966,#1046,.T.);
#1046 = LINE('',#1047,#1048);
#1047 = CARTESIAN_POINT('',(6.55,-5.33,1.));
#1048 = VECTOR('',#1049,1.);
#1049 = DIRECTION('',(-1.,0.,0.));
#1050 = ORIENTED_EDGE('',*,*,#965,.F.);
#1051 = ORIENTED_EDGE('',*,*,#359,.F.);
#1052 = PLANE('',#1053);
#1053 = AXIS2_PLACEMENT_3D('',#1054,#1055,#1056);
#1054 = CARTESIAN_POINT('',(6.55,-5.33,0.));
#1055 = DIRECTION('',(0.,-1.,0.));
#1056 = DIRECTION('',(-1.,0.,0.));
#1057 = ADVANCED_FACE('',(#1058),#1083,.F.);
#1058 = FACE_BOUND('',#1059,.F.);
#1059 = EDGE_LOOP('',(#1060,#1068,#1076,#1082));
#1060 = ORIENTED_EDGE('',*,*,#1061,.T.);
#1061 = EDGE_CURVE('',#384,#1062,#1064,.T.);
#1062 = VERTEX_POINT('',#1063);
#1063 = CARTESIAN_POINT('',(6.15,-2.28,1.));
#1064 = LINE('',#1065,#1066);
#1065 = CARTESIAN_POINT('',(6.15,-2.28,0.));
#1066 = VECTOR('',#1067,1.);
#1067 = DIRECTION('',(0.,0.,1.));
#1068 = ORIENTED_EDGE('',*,*,#1069,.T.);
#1069 = EDGE_CURVE('',#1062,#1070,#1072,.T.);
#1070 = VERTEX_POINT('',#1071);
#1071 = CARTESIAN_POINT('',(6.55,-2.28,1.));
#1072 = LINE('',#1073,#1074);
#1073 = CARTESIAN_POINT('',(6.15,-2.28,1.));
#1074 = VECTOR('',#1075,1.);
#1075 = DIRECTION('',(1.,0.,0.));
#1076 = ORIENTED_EDGE('',*,*,#1077,.F.);
#1077 = EDGE_CURVE('',#386,#1070,#1078,.T.);
#1078 = LINE('',#1079,#1080);
#1079 = CARTESIAN_POINT('',(6.55,-2.28,0.));
#1080 = VECTOR('',#1081,1.);
#1081 = DIRECTION('',(0.,0.,1.));
#1082 = ORIENTED_EDGE('',*,*,#383,.F.);
#1083 = PLANE('',#1084);
#1084 = AXIS2_PLACEMENT_3D('',#1085,#1086,#1087);
#1085 = CARTESIAN_POINT('',(6.15,-2.28,0.));
#1086 = DIRECTION('',(0.,1.,0.));
#1087 = DIRECTION('',(1.,0.,0.));
#1088 = ADVANCED_FACE('',(#1089),#1107,.F.);
#1089 = FACE_BOUND('',#1090,.F.);
#1090 = EDGE_LOOP('',(#1091,#1092,#1100,#1106));
#1091 = ORIENTED_EDGE('',*,*,#1077,.T.);
#1092 = ORIENTED_EDGE('',*,*,#1093,.T.);
#1093 = EDGE_CURVE('',#1070,#1094,#1096,.T.);
#1094 = VERTEX_POINT('',#1095);
#1095 = CARTESIAN_POINT('',(6.55,-2.78,1.));
#1096 = LINE('',#1097,#1098);
#1097 = CARTESIAN_POINT('',(6.55,-2.28,1.));
#1098 = VECTOR('',#1099,1.);
#1099 = DIRECTION('',(0.,-1.,0.));
#1100 = ORIENTED_EDGE('',*,*,#1101,.F.);
#1101 = EDGE_CURVE('',#402,#1094,#1102,.T.);
#1102 = LINE('',#1103,#1104);
#1103 = CARTESIAN_POINT('',(6.55,-2.78,0.));
#1104 = VECTOR('',#1105,1.);
#1105 = DIRECTION('',(0.,0.,1.));
#1106 = ORIENTED_EDGE('',*,*,#409,.F.);
#1107 = PLANE('',#1108);
#1108 = AXIS2_PLACEMENT_3D('',#1109,#1110,#1111);
#1109 = CARTESIAN_POINT('',(6.55,-2.28,0.));
#1110 = DIRECTION('',(1.,0.,0.));
#1111 = DIRECTION('',(0.,-1.,0.));
#1112 = ADVANCED_FACE('',(#1113),#1131,.F.);
#1113 = FACE_BOUND('',#1114,.F.);
#1114 = EDGE_LOOP('',(#1115,#1116,#1124,#1130));
#1115 = ORIENTED_EDGE('',*,*,#1101,.T.);
#1116 = ORIENTED_EDGE('',*,*,#1117,.T.);
#1117 = EDGE_CURVE('',#1094,#1118,#1120,.T.);
#1118 = VERTEX_POINT('',#1119);
#1119 = CARTESIAN_POINT('',(6.15,-2.78,1.));
#1120 = LINE('',#1121,#1122);
#1121 = CARTESIAN_POINT('',(6.55,-2.78,1.));
#1122 = VECTOR('',#1123,1.);
#1123 = DIRECTION('',(-1.,0.,0.));
#1124 = ORIENTED_EDGE('',*,*,#1125,.F.);
#1125 = EDGE_CURVE('',#394,#1118,#1126,.T.);
#1126 = LINE('',#1127,#1128);
#1127 = CARTESIAN_POINT('',(6.15,-2.78,0.));
#1128 = VECTOR('',#1129,1.);
#1129 = DIRECTION('',(0.,0.,1.));
#1130 = ORIENTED_EDGE('',*,*,#401,.F.);
#1131 = PLANE('',#1132);
#1132 = AXIS2_PLACEMENT_3D('',#1133,#1134,#1135);
#1133 = CARTESIAN_POINT('',(6.55,-2.78,0.));
#1134 = DIRECTION('',(0.,-1.,0.));
#1135 = DIRECTION('',(-1.,0.,0.));
#1136 = ADVANCED_FACE('',(#1137),#1148,.F.);
#1137 = FACE_BOUND('',#1138,.F.);
#1138 = EDGE_LOOP('',(#1139,#1140,#1146,#1147));
#1139 = ORIENTED_EDGE('',*,*,#1125,.T.);
#1140 = ORIENTED_EDGE('',*,*,#1141,.T.);
#1141 = EDGE_CURVE('',#1118,#1062,#1142,.T.);
#1142 = LINE('',#1143,#1144);
#1143 = CARTESIAN_POINT('',(6.15,-2.78,1.));
#1144 = VECTOR('',#1145,1.);
#1145 = DIRECTION('',(0.,1.,0.));
#1146 = ORIENTED_EDGE('',*,*,#1061,.F.);
#1147 = ORIENTED_EDGE('',*,*,#393,.F.);
#1148 = PLANE('',#1149);
#1149 = AXIS2_PLACEMENT_3D('',#1150,#1151,#1152);
#1150 = CARTESIAN_POINT('',(6.15,-2.78,0.));
#1151 = DIRECTION('',(-1.,0.,0.));
#1152 = DIRECTION('',(0.,1.,0.));
#1153 = ADVANCED_FACE('',(#1154),#1179,.F.);
#1154 = FACE_BOUND('',#1155,.F.);
#1155 = EDGE_LOOP('',(#1156,#1164,#1172,#1178));
#1156 = ORIENTED_EDGE('',*,*,#1157,.T.);
#1157 = EDGE_CURVE('',#418,#1158,#1160,.T.);
#1158 = VERTEX_POINT('',#1159);
#1159 = CARTESIAN_POINT('',(6.15,2.78,1.));
#1160 = LINE('',#1161,#1162);
#1161 = CARTESIAN_POINT('',(6.15,2.78,0.));
#1162 = VECTOR('',#1163,1.);
#1163 = DIRECTION('',(0.,0.,1.));
#1164 = ORIENTED_EDGE('',*,*,#1165,.T.);
#1165 = EDGE_CURVE('',#1158,#1166,#1168,.T.);
#1166 = VERTEX_POINT('',#1167);
#1167 = CARTESIAN_POINT('',(6.55,2.78,1.));
#1168 = LINE('',#1169,#1170);
#1169 = CARTESIAN_POINT('',(6.15,2.78,1.));
#1170 = VECTOR('',#1171,1.);
#1171 = DIRECTION('',(1.,0.,0.));
#1172 = ORIENTED_EDGE('',*,*,#1173,.F.);
#1173 = EDGE_CURVE('',#420,#1166,#1174,.T.);
#1174 = LINE('',#1175,#1176);
#1175 = CARTESIAN_POINT('',(6.55,2.78,0.));
#1176 = VECTOR('',#1177,1.);
#1177 = DIRECTION('',(0.,0.,1.));
#1178 = ORIENTED_EDGE('',*,*,#417,.F.);
#1179 = PLANE('',#1180);
#1180 = AXIS2_PLACEMENT_3D('',#1181,#1182,#1183);
#1181 = CARTESIAN_POINT('',(6.15,2.78,0.));
#1182 = DIRECTION('',(0.,1.,0.));
#1183 = DIRECTION('',(1.,0.,0.));
#1184 = ADVANCED_FACE('',(#1185),#1203,.F.);
#1185 = FACE_BOUND('',#1186,.F.);
#1186 = EDGE_LOOP('',(#1187,#1188,#1196,#1202));
#1187 = ORIENTED_EDGE('',*,*,#1173,.T.);
#1188 = ORIENTED_EDGE('',*,*,#1189,.T.);
#1189 = EDGE_CURVE('',#1166,#1190,#1192,.T.);
#1190 = VERTEX_POINT('',#1191);
#1191 = CARTESIAN_POINT('',(6.55,2.28,1.));
#1192 = LINE('',#1193,#1194);
#1193 = CARTESIAN_POINT('',(6.55,2.78,1.));
#1194 = VECTOR('',#1195,1.);
#1195 = DIRECTION('',(0.,-1.,0.));
#1196 = ORIENTED_EDGE('',*,*,#1197,.F.);
#1197 = EDGE_CURVE('',#436,#1190,#1198,.T.);
#1198 = LINE('',#1199,#1200);
#1199 = CARTESIAN_POINT('',(6.55,2.28,0.));
#1200 = VECTOR('',#1201,1.);
#1201 = DIRECTION('',(0.,0.,1.));
#1202 = ORIENTED_EDGE('',*,*,#443,.F.);
#1203 = PLANE('',#1204);
#1204 = AXIS2_PLACEMENT_3D('',#1205,#1206,#1207);
#1205 = CARTESIAN_POINT('',(6.55,2.78,0.));
#1206 = DIRECTION('',(1.,0.,0.));
#1207 = DIRECTION('',(0.,-1.,0.));
#1208 = ADVANCED_FACE('',(#1209),#1227,.F.);
#1209 = FACE_BOUND('',#1210,.F.);
#1210 = EDGE_LOOP('',(#1211,#1212,#1220,#1226));
#1211 = ORIENTED_EDGE('',*,*,#1197,.T.);
#1212 = ORIENTED_EDGE('',*,*,#1213,.T.);
#1213 = EDGE_CURVE('',#1190,#1214,#1216,.T.);
#1214 = VERTEX_POINT('',#1215);
#1215 = CARTESIAN_POINT('',(6.15,2.28,1.));
#1216 = LINE('',#1217,#1218);
#1217 = CARTESIAN_POINT('',(6.55,2.28,1.));
#1218 = VECTOR('',#1219,1.);
#1219 = DIRECTION('',(-1.,0.,0.));
#1220 = ORIENTED_EDGE('',*,*,#1221,.F.);
#1221 = EDGE_CURVE('',#428,#1214,#1222,.T.);
#1222 = LINE('',#1223,#1224);
#1223 = CARTESIAN_POINT('',(6.15,2.28,0.));
#1224 = VECTOR('',#1225,1.);
#1225 = DIRECTION('',(0.,0.,1.));
#1226 = ORIENTED_EDGE('',*,*,#435,.F.);
#1227 = PLANE('',#1228);
#1228 = AXIS2_PLACEMENT_3D('',#1229,#1230,#1231);
#1229 = CARTESIAN_POINT('',(6.55,2.28,0.));
#1230 = DIRECTION('',(0.,-1.,0.));
#1231 = DIRECTION('',(-1.,0.,0.));
#1232 = ADVANCED_FACE('',(#1233),#1244,.F.);
#1233 = FACE_BOUND('',#1234,.F.);
#1234 = EDGE_LOOP('',(#1235,#1236,#1242,#1243));
#1235 = ORIENTED_EDGE('',*,*,#1221,.T.);
#1236 = ORIENTED_EDGE('',*,*,#1237,.T.);
#1237 = EDGE_CURVE('',#1214,#1158,#1238,.T.);
#1238 = LINE('',#1239,#1240);
#1239 = CARTESIAN_POINT('',(6.15,2.28,1.));
#1240 = VECTOR('',#1241,1.);
#1241 = DIRECTION('',(0.,1.,0.));
#1242 = ORIENTED_EDGE('',*,*,#1157,.F.);
#1243 = ORIENTED_EDGE('',*,*,#427,.F.);
#1244 = PLANE('',#1245);
#1245 = AXIS2_PLACEMENT_3D('',#1246,#1247,#1248);
#1246 = CARTESIAN_POINT('',(6.15,2.28,0.));
#1247 = DIRECTION('',(-1.,0.,0.));
#1248 = DIRECTION('',(0.,1.,0.));
#1249 = ADVANCED_FACE('',(#1250),#1275,.F.);
#1250 = FACE_BOUND('',#1251,.F.);
#1251 = EDGE_LOOP('',(#1252,#1260,#1268,#1274));
#1252 = ORIENTED_EDGE('',*,*,#1253,.T.);
#1253 = EDGE_CURVE('',#452,#1254,#1256,.T.);
#1254 = VERTEX_POINT('',#1255);
#1255 = CARTESIAN_POINT('',(6.15,5.33,1.));
#1256 = LINE('',#1257,#1258);
#1257 = CARTESIAN_POINT('',(6.15,5.33,0.));
#1258 = VECTOR('',#1259,1.);
#1259 = DIRECTION('',(0.,0.,1.));
#1260 = ORIENTED_EDGE('',*,*,#1261,.T.);
#1261 = EDGE_CURVE('',#1254,#1262,#1264,.T.);
#1262 = VERTEX_POINT('',#1263);
#1263 = CARTESIAN_POINT('',(6.55,5.33,1.));
#1264 = LINE('',#1265,#1266);
#1265 = CARTESIAN_POINT('',(6.15,5.33,1.));
#1266 = VECTOR('',#1267,1.);
#1267 = DIRECTION('',(1.,0.,0.));
#1268 = ORIENTED_EDGE('',*,*,#1269,.F.);
#1269 = EDGE_CURVE('',#454,#1262,#1270,.T.);
#1270 = LINE('',#1271,#1272);
#1271 = CARTESIAN_POINT('',(6.55,5.33,0.));
#1272 = VECTOR('',#1273,1.);
#1273 = DIRECTION('',(0.,0.,1.));
#1274 = ORIENTED_EDGE('',*,*,#451,.F.);
#1275 = PLANE('',#1276);
#1276 = AXIS2_PLACEMENT_3D('',#1277,#1278,#1279);
#1277 = CARTESIAN_POINT('',(6.15,5.33,0.));
#1278 = DIRECTION('',(0.,1.,0.));
#1279 = DIRECTION('',(1.,0.,0.));
#1280 = ADVANCED_FACE('',(#1281),#1299,.F.);
#1281 = FACE_BOUND('',#1282,.F.);
#1282 = EDGE_LOOP('',(#1283,#1284,#1292,#1298));
#1283 = ORIENTED_EDGE('',*,*,#1269,.T.);
#1284 = ORIENTED_EDGE('',*,*,#1285,.T.);
#1285 = EDGE_CURVE('',#1262,#1286,#1288,.T.);
#1286 = VERTEX_POINT('',#1287);
#1287 = CARTESIAN_POINT('',(6.55,4.83,1.));
#1288 = LINE('',#1289,#1290);
#1289 = CARTESIAN_POINT('',(6.55,5.33,1.));
#1290 = VECTOR('',#1291,1.);
#1291 = DIRECTION('',(0.,-1.,0.));
#1292 = ORIENTED_EDGE('',*,*,#1293,.F.);
#1293 = EDGE_CURVE('',#470,#1286,#1294,.T.);
#1294 = LINE('',#1295,#1296);
#1295 = CARTESIAN_POINT('',(6.55,4.83,0.));
#1296 = VECTOR('',#1297,1.);
#1297 = DIRECTION('',(0.,0.,1.));
#1298 = ORIENTED_EDGE('',*,*,#477,.F.);
#1299 = PLANE('',#1300);
#1300 = AXIS2_PLACEMENT_3D('',#1301,#1302,#1303);
#1301 = CARTESIAN_POINT('',(6.55,5.33,0.));
#1302 = DIRECTION('',(1.,0.,0.));
#1303 = DIRECTION('',(0.,-1.,0.));
#1304 = ADVANCED_FACE('',(#1305),#1323,.F.);
#1305 = FACE_BOUND('',#1306,.F.);
#1306 = EDGE_LOOP('',(#1307,#1308,#1316,#1322));
#1307 = ORIENTED_EDGE('',*,*,#1293,.T.);
#1308 = ORIENTED_EDGE('',*,*,#1309,.T.);
#1309 = EDGE_CURVE('',#1286,#1310,#1312,.T.);
#1310 = VERTEX_POINT('',#1311);
#1311 = CARTESIAN_POINT('',(6.15,4.83,1.));
#1312 = LINE('',#1313,#1314);
#1313 = CARTESIAN_POINT('',(6.55,4.83,1.));
#1314 = VECTOR('',#1315,1.);
#1315 = DIRECTION('',(-1.,0.,0.));
#1316 = ORIENTED_EDGE('',*,*,#1317,.F.);
#1317 = EDGE_CURVE('',#462,#1310,#1318,.T.);
#1318 = LINE('',#1319,#1320);
#1319 = CARTESIAN_POINT('',(6.15,4.83,0.));
#1320 = VECTOR('',#1321,1.);
#1321 = DIRECTION('',(0.,0.,1.));
#1322 = ORIENTED_EDGE('',*,*,#469,.F.);
#1323 = PLANE('',#1324);
#1324 = AXIS2_PLACEMENT_3D('',#1325,#1326,#1327);
#1325 = CARTESIAN_POINT('',(6.55,4.83,0.));
#1326 = DIRECTION('',(0.,-1.,0.));
#1327 = DIRECTION('',(-1.,0.,0.));
#1328 = ADVANCED_FACE('',(#1329),#1340,.F.);
#1329 = FACE_BOUND('',#1330,.F.);
#1330 = EDGE_LOOP('',(#1331,#1332,#1338,#1339));
#1331 = ORIENTED_EDGE('',*,*,#1317,.T.);
#1332 = ORIENTED_EDGE('',*,*,#1333,.T.);
#1333 = EDGE_CURVE('',#1310,#1254,#1334,.T.);
#1334 = LINE('',#1335,#1336);
#1335 = CARTESIAN_POINT('',(6.15,4.83,1.));
#1336 = VECTOR('',#1337,1.);
#1337 = DIRECTION('',(0.,1.,0.));
#1338 = ORIENTED_EDGE('',*,*,#1253,.F.);
#1339 = ORIENTED_EDGE('',*,*,#461,.F.);
#1340 = PLANE('',#1341);
#1341 = AXIS2_PLACEMENT_3D('',#1342,#1343,#1344);
#1342 = CARTESIAN_POINT('',(6.15,4.83,0.));
#1343 = DIRECTION('',(-1.,0.,0.));
#1344 = DIRECTION('',(0.,1.,0.));
#1345 = ADVANCED_FACE('',(#1346),#1352,.F.);
#1346 = FACE_BOUND('',#1347,.T.);
#1347 = EDGE_LOOP('',(#1348,#1349,#1350,#1351));
#1348 = ORIENTED_EDGE('',*,*,#589,.T.);
#1349 = ORIENTED_EDGE('',*,*,#613,.T.);
#1350 = ORIENTED_EDGE('',*,*,#637,.T.);
#1351 = ORIENTED_EDGE('',*,*,#661,.T.);
#1352 = PLANE('',#1353);
#1353 = AXIS2_PLACEMENT_3D('',#1354,#1355,#1356);
#1354 = CARTESIAN_POINT('',(1.079383496163E-15,0.,1.));
#1355 = DIRECTION('',(0.,0.,1.));
#1356 = DIRECTION('',(1.,0.,0.));
#1357 = ADVANCED_FACE('',(#1358),#1364,.F.);
#1358 = FACE_BOUND('',#1359,.T.);
#1359 = EDGE_LOOP('',(#1360,#1361,#1362,#1363));
#1360 = ORIENTED_EDGE('',*,*,#685,.T.);
#1361 = ORIENTED_EDGE('',*,*,#709,.T.);
#1362 = ORIENTED_EDGE('',*,*,#733,.T.);
#1363 = ORIENTED_EDGE('',*,*,#757,.T.);
#1364 = PLANE('',#1365);
#1365 = AXIS2_PLACEMENT_3D('',#1366,#1367,#1368);
#1366 = CARTESIAN_POINT('',(1.079383496163E-15,0.,1.));
#1367 = DIRECTION('',(0.,0.,1.));
#1368 = DIRECTION('',(1.,0.,0.));
#1369 = ADVANCED_FACE('',(#1370),#1376,.F.);
#1370 = FACE_BOUND('',#1371,.T.);
#1371 = EDGE_LOOP('',(#1372,#1373,#1374,#1375));
#1372 = ORIENTED_EDGE('',*,*,#781,.T.);
#1373 = ORIENTED_EDGE('',*,*,#805,.T.);
#1374 = ORIENTED_EDGE('',*,*,#829,.T.);
#1375 = ORIENTED_EDGE('',*,*,#853,.T.);
#1376 = PLANE('',#1377);
#1377 = AXIS2_PLACEMENT_3D('',#1378,#1379,#1380);
#1378 = CARTESIAN_POINT('',(1.079383496163E-15,0.,1.));
#1379 = DIRECTION('',(0.,0.,1.));
#1380 = DIRECTION('',(1.,0.,0.));
#1381 = ADVANCED_FACE('',(#1382),#1388,.F.);
#1382 = FACE_BOUND('',#1383,.T.);
#1383 = EDGE_LOOP('',(#1384,#1385,#1386,#1387));
#1384 = ORIENTED_EDGE('',*,*,#877,.T.);
#1385 = ORIENTED_EDGE('',*,*,#901,.T.);
#1386 = ORIENTED_EDGE('',*,*,#925,.T.);
#1387 = ORIENTED_EDGE('',*,*,#949,.T.);
#1388 = PLANE('',#1389);
#1389 = AXIS2_PLACEMENT_3D('',#1390,#1391,#1392);
#1390 = CARTESIAN_POINT('',(1.079383496163E-15,0.,1.));
#1391 = DIRECTION('',(0.,0.,1.));
#1392 = DIRECTION('',(1.,0.,0.));
#1393 = ADVANCED_FACE('',(#1394),#1400,.F.);
#1394 = FACE_BOUND('',#1395,.T.);
#1395 = EDGE_LOOP('',(#1396,#1397,#1398,#1399));
#1396 = ORIENTED_EDGE('',*,*,#973,.T.);
#1397 = ORIENTED_EDGE('',*,*,#997,.T.);
#1398 = ORIENTED_EDGE('',*,*,#1021,.T.);
#1399 = ORIENTED_EDGE('',*,*,#1045,.T.);
#1400 = PLANE('',#1401);
#1401 = AXIS2_PLACEMENT_3D('',#1402,#1403,#1404);
#1402 = CARTESIAN_POINT('',(1.079383496163E-15,0.,1.));
#1403 = DIRECTION('',(0.,0.,1.));
#1404 = DIRECTION('',(1.,0.,0.));
#1405 = ADVANCED_FACE('',(#1406),#1412,.F.);
#1406 = FACE_BOUND('',#1407,.T.);
#1407 = EDGE_LOOP('',(#1408,#1409,#1410,#1411));
#1408 = ORIENTED_EDGE('',*,*,#1069,.T.);
#1409 = ORIENTED_EDGE('',*,*,#1093,.T.);
#1410 = ORIENTED_EDGE('',*,*,#1117,.T.);
#1411 = ORIENTED_EDGE('',*,*,#1141,.T.);
#1412 = PLANE('',#1413);
#1413 = AXIS2_PLACEMENT_3D('',#1414,#1415,#1416);
#1414 = CARTESIAN_POINT('',(1.079383496163E-15,0.,1.));
#1415 = DIRECTION('',(0.,0.,1.));
#1416 = DIRECTION('',(1.,0.,0.));
#1417 = ADVANCED_FACE('',(#1418),#1424,.F.);
#1418 = FACE_BOUND('',#1419,.T.);
#1419 = EDGE_LOOP('',(#1420,#1421,#1422,#1423));
#1420 = ORIENTED_EDGE('',*,*,#1165,.T.);
#1421 = ORIENTED_EDGE('',*,*,#1189,.T.);
#1422 = ORIENTED_EDGE('',*,*,#1213,.T.);
#1423 = ORIENTED_EDGE('',*,*,#1237,.T.);
#1424 = PLANE('',#1425);
#1425 = AXIS2_PLACEMENT_3D('',#1426,#1427,#1428);
#1426 = CARTESIAN_POINT('',(1.079383496163E-15,0.,1.));
#1427 = DIRECTION('',(0.,0.,1.));
#1428 = DIRECTION('',(1.,0.,0.));
#1429 = ADVANCED_FACE('',(#1430),#1436,.F.);
#1430 = FACE_BOUND('',#1431,.T.);
#1431 = EDGE_LOOP('',(#1432,#1433,#1434,#1435));
#1432 = ORIENTED_EDGE('',*,*,#1261,.T.);
#1433 = ORIENTED_EDGE('',*,*,#1285,.T.);
#1434 = ORIENTED_EDGE('',*,*,#1309,.T.);
#1435 = ORIENTED_EDGE('',*,*,#1333,.T.);
#1436 = PLANE('',#1437);
#1437 = AXIS2_PLACEMENT_3D('',#1438,#1439,#1440);
#1438 = CARTESIAN_POINT('',(1.079383496163E-15,0.,1.));
#1439 = DIRECTION('',(0.,0.,1.));
#1440 = DIRECTION('',(1.,0.,0.));
#1441 = ( GEOMETRIC_REPRESENTATION_CONTEXT(3) 
GLOBAL_UNCERTAINTY_ASSIGNED_CONTEXT((#1445)) 
GLOBAL_UNIT_ASSIGNED_CONTEXT((#1442,#1443,#1444)) REPRESENTATION_CONTEXT
('Context #1','3D Context with UNIT and UNCERTAINTY') );
#1442 = ( LENGTH_UNIT() NAMED_UNIT(*) SI_UNIT(.MILLI.,.METRE.) );
#1443 = ( NAMED_UNIT(*) PLANE_ANGLE_UNIT() SI_UNIT($,.RADIAN.) );
#1444 = ( NAMED_UNIT(*) SI_UNIT($,.STERADIAN.) SOLID_ANGLE_UNIT() );
#1445 = UNCERTAINTY_MEASURE_WITH_UNIT(LENGTH_MEASURE(1.E-07),#1442,
  'distance_accuracy_value','confusion accuracy');
#1446 = CONTEXT_DEPENDENT_SHAPE_REPRESENTATION(#1447,#1449);
#1447 = ( REPRESENTATION_RELATIONSHIP('','',#64,#10) 
REPRESENTATION_RELATIONSHIP_WITH_TRANSFORMATION(#1448) 
SHAPE_REPRESENTATION_RELATIONSHIP() );
#1448 = ITEM_DEFINED_TRANSFORMATION('','',#11,#15);
#1449 = PRODUCT_DEFINITION_SHAPE('Placement','Placement of an item',
  #1450);
#1450 = NEXT_ASSEMBLY_USAGE_OCCURRENCE('1','Body','',#5,#59,$);
#1451 = PRODUCT_RELATED_PRODUCT_CATEGORY('part',$,(#61));
#1452 = SHAPE_DEFINITION_REPRESENTATION(#1453,#1459);
#1453 = PRODUCT_DEFINITION_SHAPE('','',#1454);
#1454 = PRODUCT_DEFINITION('design','',#1455,#1458);
#1455 = PRODUCT_DEFINITION_FORMATION('','',#1456);
#1456 = PRODUCT('PIN','PIN','',(#1457));
#1457 = PRODUCT_CONTEXT('',#2,'mechanical');
#1458 = PRODUCT_DEFINITION_CONTEXT('part definition',#2,'design');
#1459 = ADVANCED_BREP_SHAPE_REPRESENTATION('',(#11,#1460),#1746);
#1460 = MANIFOLD_SOLID_BREP('',#1461);
#1461 = CLOSED_SHELL('',(#1462,#1502,#1533,#1564,#1597,#1628,#1659,#1690
    ,#1714,#1730));
#1462 = ADVANCED_FACE('',(#1463),#1497,.T.);
#1463 = FACE_BOUND('',#1464,.T.);
#1464 = EDGE_LOOP('',(#1465,#1475,#1483,#1491));
#1465 = ORIENTED_EDGE('',*,*,#1466,.T.);
#1466 = EDGE_CURVE('',#1467,#1469,#1471,.T.);
#1467 = VERTEX_POINT('',#1468);
#1468 = CARTESIAN_POINT('',(0.5,3.5,0.));
#1469 = VERTEX_POINT('',#1470);
#1470 = CARTESIAN_POINT('',(0.5,3.5,0.5));
#1471 = LINE('',#1472,#1473);
#1472 = CARTESIAN_POINT('',(0.5,3.5,0.));
#1473 = VECTOR('',#1474,1.);
#1474 = DIRECTION('',(0.,0.,1.));
#1475 = ORIENTED_EDGE('',*,*,#1476,.T.);
#1476 = EDGE_CURVE('',#1469,#1477,#1479,.T.);
#1477 = VERTEX_POINT('',#1478);
#1478 = CARTESIAN_POINT('',(1.75,3.5,0.5));
#1479 = LINE('',#1480,#1481);
#1480 = CARTESIAN_POINT('',(0.5,3.5,0.5));
#1481 = VECTOR('',#1482,1.);
#1482 = DIRECTION('',(1.,0.,0.));
#1483 = ORIENTED_EDGE('',*,*,#1484,.F.);
#1484 = EDGE_CURVE('',#1485,#1477,#1487,.T.);
#1485 = VERTEX_POINT('',#1486);
#1486 = CARTESIAN_POINT('',(1.75,3.5,0.));
#1487 = LINE('',#1488,#1489);
#1488 = CARTESIAN_POINT('',(1.75,3.5,0.));
#1489 = VECTOR('',#1490,1.);
#1490 = DIRECTION('',(0.,0.,1.));
#1491 = ORIENTED_EDGE('',*,*,#1492,.F.);
#1492 = EDGE_CURVE('',#1467,#1485,#1493,.T.);
#1493 = LINE('',#1494,#1495);
#1494 = CARTESIAN_POINT('',(0.5,3.5,0.));
#1495 = VECTOR('',#1496,1.);
#1496 = DIRECTION('',(1.,0.,0.));
#1497 = PLANE('',#1498);
#1498 = AXIS2_PLACEMENT_3D('',#1499,#1500,#1501);
#1499 = CARTESIAN_POINT('',(0.5,3.5,0.));
#1500 = DIRECTION('',(0.,1.,0.));
#1501 = DIRECTION('',(1.,0.,0.));
#1502 = ADVANCED_FACE('',(#1503),#1528,.T.);
#1503 = FACE_BOUND('',#1504,.T.);
#1504 = EDGE_LOOP('',(#1505,#1506,#1514,#1522));
#1505 = ORIENTED_EDGE('',*,*,#1484,.T.);
#1506 = ORIENTED_EDGE('',*,*,#1507,.T.);
#1507 = EDGE_CURVE('',#1477,#1508,#1510,.T.);
#1508 = VERTEX_POINT('',#1509);
#1509 = CARTESIAN_POINT('',(1.75,3.1,0.5));
#1510 = LINE('',#1511,#1512);
#1511 = CARTESIAN_POINT('',(1.75,3.5,0.5));
#1512 = VECTOR('',#1513,1.);
#1513 = DIRECTION('',(0.,-1.,0.));
#1514 = ORIENTED_EDGE('',*,*,#1515,.F.);
#1515 = EDGE_CURVE('',#1516,#1508,#1518,.T.);
#1516 = VERTEX_POINT('',#1517);
#1517 = CARTESIAN_POINT('',(1.75,3.1,0.));
#1518 = LINE('',#1519,#1520);
#1519 = CARTESIAN_POINT('',(1.75,3.1,0.));
#1520 = VECTOR('',#1521,1.);
#1521 = DIRECTION('',(0.,0.,1.));
#1522 = ORIENTED_EDGE('',*,*,#1523,.F.);
#1523 = EDGE_CURVE('',#1485,#1516,#1524,.T.);
#1524 = LINE('',#1525,#1526);
#1525 = CARTESIAN_POINT('',(1.75,3.5,0.));
#1526 = VECTOR('',#1527,1.);
#1527 = DIRECTION('',(0.,-1.,0.));
#1528 = PLANE('',#1529);
#1529 = AXIS2_PLACEMENT_3D('',#1530,#1531,#1532);
#1530 = CARTESIAN_POINT('',(1.75,3.5,0.));
#1531 = DIRECTION('',(1.,0.,0.));
#1532 = DIRECTION('',(0.,-1.,0.));
#1533 = ADVANCED_FACE('',(#1534),#1559,.T.);
#1534 = FACE_BOUND('',#1535,.T.);
#1535 = EDGE_LOOP('',(#1536,#1537,#1545,#1553));
#1536 = ORIENTED_EDGE('',*,*,#1515,.T.);
#1537 = ORIENTED_EDGE('',*,*,#1538,.T.);
#1538 = EDGE_CURVE('',#1508,#1539,#1541,.T.);
#1539 = VERTEX_POINT('',#1540);
#1540 = CARTESIAN_POINT('',(0.5,3.1,0.5));
#1541 = LINE('',#1542,#1543);
#1542 = CARTESIAN_POINT('',(1.75,3.1,0.5));
#1543 = VECTOR('',#1544,1.);
#1544 = DIRECTION('',(-1.,0.,0.));
#1545 = ORIENTED_EDGE('',*,*,#1546,.F.);
#1546 = EDGE_CURVE('',#1547,#1539,#1549,.T.);
#1547 = VERTEX_POINT('',#1548);
#1548 = CARTESIAN_POINT('',(0.5,3.1,0.));
#1549 = LINE('',#1550,#1551);
#1550 = CARTESIAN_POINT('',(0.5,3.1,0.));
#1551 = VECTOR('',#1552,1.);
#1552 = DIRECTION('',(0.,0.,1.));
#1553 = ORIENTED_EDGE('',*,*,#1554,.F.);
#1554 = EDGE_CURVE('',#1516,#1547,#1555,.T.);
#1555 = LINE('',#1556,#1557);
#1556 = CARTESIAN_POINT('',(1.75,3.1,0.));
#1557 = VECTOR('',#1558,1.);
#1558 = DIRECTION('',(-1.,0.,0.));
#1559 = PLANE('',#1560);
#1560 = AXIS2_PLACEMENT_3D('',#1561,#1562,#1563);
#1561 = CARTESIAN_POINT('',(1.75,3.1,0.));
#1562 = DIRECTION('',(0.,-1.,0.));
#1563 = DIRECTION('',(-1.,0.,0.));
#1564 = ADVANCED_FACE('',(#1565),#1592,.F.);
#1565 = FACE_BOUND('',#1566,.T.);
#1566 = EDGE_LOOP('',(#1567,#1568,#1577,#1585));
#1567 = ORIENTED_EDGE('',*,*,#1546,.T.);
#1568 = ORIENTED_EDGE('',*,*,#1569,.T.);
#1569 = EDGE_CURVE('',#1539,#1570,#1572,.T.);
#1570 = VERTEX_POINT('',#1571);
#1571 = CARTESIAN_POINT('',(0.4,3.,0.5));
#1572 = CIRCLE('',#1573,0.1);
#1573 = AXIS2_PLACEMENT_3D('',#1574,#1575,#1576);
#1574 = CARTESIAN_POINT('',(0.5,3.,0.5));
#1575 = DIRECTION('',(0.,0.,1.));
#1576 = DIRECTION('',(1.,0.,0.));
#1577 = ORIENTED_EDGE('',*,*,#1578,.F.);
#1578 = EDGE_CURVE('',#1579,#1570,#1581,.T.);
#1579 = VERTEX_POINT('',#1580);
#1580 = CARTESIAN_POINT('',(0.4,3.,0.));
#1581 = LINE('',#1582,#1583);
#1582 = CARTESIAN_POINT('',(0.4,3.,0.));
#1583 = VECTOR('',#1584,1.);
#1584 = DIRECTION('',(0.,0.,1.));
#1585 = ORIENTED_EDGE('',*,*,#1586,.F.);
#1586 = EDGE_CURVE('',#1547,#1579,#1587,.T.);
#1587 = CIRCLE('',#1588,0.1);
#1588 = AXIS2_PLACEMENT_3D('',#1589,#1590,#1591);
#1589 = CARTESIAN_POINT('',(0.5,3.,0.));
#1590 = DIRECTION('',(0.,0.,1.));
#1591 = DIRECTION('',(1.,0.,0.));
#1592 = CYLINDRICAL_SURFACE('',#1593,0.1);
#1593 = AXIS2_PLACEMENT_3D('',#1594,#1595,#1596);
#1594 = CARTESIAN_POINT('',(0.5,3.,0.));
#1595 = DIRECTION('',(-0.,-0.,-1.));
#1596 = DIRECTION('',(1.,0.,0.));
#1597 = ADVANCED_FACE('',(#1598),#1623,.T.);
#1598 = FACE_BOUND('',#1599,.T.);
#1599 = EDGE_LOOP('',(#1600,#1601,#1609,#1617));
#1600 = ORIENTED_EDGE('',*,*,#1578,.T.);
#1601 = ORIENTED_EDGE('',*,*,#1602,.T.);
#1602 = EDGE_CURVE('',#1570,#1603,#1605,.T.);
#1603 = VERTEX_POINT('',#1604);
#1604 = CARTESIAN_POINT('',(0.4,0.,0.5));
#1605 = LINE('',#1606,#1607);
#1606 = CARTESIAN_POINT('',(0.4,3.,0.5));
#1607 = VECTOR('',#1608,1.);
#1608 = DIRECTION('',(0.,-1.,0.));
#1609 = ORIENTED_EDGE('',*,*,#1610,.F.);
#1610 = EDGE_CURVE('',#1611,#1603,#1613,.T.);
#1611 = VERTEX_POINT('',#1612);
#1612 = CARTESIAN_POINT('',(0.4,0.,0.));
#1613 = LINE('',#1614,#1615);
#1614 = CARTESIAN_POINT('',(0.4,0.,0.));
#1615 = VECTOR('',#1616,1.);
#1616 = DIRECTION('',(0.,0.,1.));
#1617 = ORIENTED_EDGE('',*,*,#1618,.F.);
#1618 = EDGE_CURVE('',#1579,#1611,#1619,.T.);
#1619 = LINE('',#1620,#1621);
#1620 = CARTESIAN_POINT('',(0.4,3.,0.));
#1621 = VECTOR('',#1622,1.);
#1622 = DIRECTION('',(0.,-1.,0.));
#1623 = PLANE('',#1624);
#1624 = AXIS2_PLACEMENT_3D('',#1625,#1626,#1627);
#1625 = CARTESIAN_POINT('',(0.4,3.,0.));
#1626 = DIRECTION('',(1.,0.,0.));
#1627 = DIRECTION('',(0.,-1.,0.));
#1628 = ADVANCED_FACE('',(#1629),#1654,.F.);
#1629 = FACE_BOUND('',#1630,.F.);
#1630 = EDGE_LOOP('',(#1631,#1641,#1647,#1648));
#1631 = ORIENTED_EDGE('',*,*,#1632,.T.);
#1632 = EDGE_CURVE('',#1633,#1635,#1637,.T.);
#1633 = VERTEX_POINT('',#1634);
#1634 = CARTESIAN_POINT('',(0.,0.,0.));
#1635 = VERTEX_POINT('',#1636);
#1636 = CARTESIAN_POINT('',(0.,0.,0.5));
#1637 = LINE('',#1638,#1639);
#1638 = CARTESIAN_POINT('',(0.,0.,0.));
#1639 = VECTOR('',#1640,1.);
#1640 = DIRECTION('',(0.,0.,1.));
#1641 = ORIENTED_EDGE('',*,*,#1642,.T.);
#1642 = EDGE_CURVE('',#1635,#1603,#1643,.T.);
#1643 = LINE('',#1644,#1645);
#1644 = CARTESIAN_POINT('',(0.,0.,0.5));
#1645 = VECTOR('',#1646,1.);
#1646 = DIRECTION('',(1.,0.,0.));
#1647 = ORIENTED_EDGE('',*,*,#1610,.F.);
#1648 = ORIENTED_EDGE('',*,*,#1649,.F.);
#1649 = EDGE_CURVE('',#1633,#1611,#1650,.T.);
#1650 = LINE('',#1651,#1652);
#1651 = CARTESIAN_POINT('',(0.,0.,0.));
#1652 = VECTOR('',#1653,1.);
#1653 = DIRECTION('',(1.,0.,0.));
#1654 = PLANE('',#1655);
#1655 = AXIS2_PLACEMENT_3D('',#1656,#1657,#1658);
#1656 = CARTESIAN_POINT('',(0.,0.,0.));
#1657 = DIRECTION('',(0.,1.,0.));
#1658 = DIRECTION('',(1.,0.,0.));
#1659 = ADVANCED_FACE('',(#1660),#1685,.T.);
#1660 = FACE_BOUND('',#1661,.T.);
#1661 = EDGE_LOOP('',(#1662,#1663,#1671,#1679));
#1662 = ORIENTED_EDGE('',*,*,#1632,.T.);
#1663 = ORIENTED_EDGE('',*,*,#1664,.T.);
#1664 = EDGE_CURVE('',#1635,#1665,#1667,.T.);
#1665 = VERTEX_POINT('',#1666);
#1666 = CARTESIAN_POINT('',(1.110223024625E-16,3.,0.5));
#1667 = LINE('',#1668,#1669);
#1668 = CARTESIAN_POINT('',(0.,0.,0.5));
#1669 = VECTOR('',#1670,1.);
#1670 = DIRECTION('',(3.700743415417E-17,1.,0.));
#1671 = ORIENTED_EDGE('',*,*,#1672,.F.);
#1672 = EDGE_CURVE('',#1673,#1665,#1675,.T.);
#1673 = VERTEX_POINT('',#1674);
#1674 = CARTESIAN_POINT('',(1.110223024625E-16,3.,0.));
#1675 = LINE('',#1676,#1677);
#1676 = CARTESIAN_POINT('',(1.110223024625E-16,3.,0.));
#1677 = VECTOR('',#1678,1.);
#1678 = DIRECTION('',(0.,0.,1.));
#1679 = ORIENTED_EDGE('',*,*,#1680,.F.);
#1680 = EDGE_CURVE('',#1633,#1673,#1681,.T.);
#1681 = LINE('',#1682,#1683);
#1682 = CARTESIAN_POINT('',(0.,0.,0.));
#1683 = VECTOR('',#1684,1.);
#1684 = DIRECTION('',(3.700743415417E-17,1.,0.));
#1685 = PLANE('',#1686);
#1686 = AXIS2_PLACEMENT_3D('',#1687,#1688,#1689);
#1687 = CARTESIAN_POINT('',(0.,0.,0.));
#1688 = DIRECTION('',(-1.,3.700743415417E-17,0.));
#1689 = DIRECTION('',(3.700743415417E-17,1.,0.));
#1690 = ADVANCED_FACE('',(#1691),#1709,.T.);
#1691 = FACE_BOUND('',#1692,.F.);
#1692 = EDGE_LOOP('',(#1693,#1694,#1701,#1702));
#1693 = ORIENTED_EDGE('',*,*,#1466,.T.);
#1694 = ORIENTED_EDGE('',*,*,#1695,.T.);
#1695 = EDGE_CURVE('',#1469,#1665,#1696,.T.);
#1696 = CIRCLE('',#1697,0.5);
#1697 = AXIS2_PLACEMENT_3D('',#1698,#1699,#1700);
#1698 = CARTESIAN_POINT('',(0.5,3.,0.5));
#1699 = DIRECTION('',(0.,0.,1.));
#1700 = DIRECTION('',(1.,0.,0.));
#1701 = ORIENTED_EDGE('',*,*,#1672,.F.);
#1702 = ORIENTED_EDGE('',*,*,#1703,.F.);
#1703 = EDGE_CURVE('',#1467,#1673,#1704,.T.);
#1704 = CIRCLE('',#1705,0.5);
#1705 = AXIS2_PLACEMENT_3D('',#1706,#1707,#1708);
#1706 = CARTESIAN_POINT('',(0.5,3.,0.));
#1707 = DIRECTION('',(0.,0.,1.));
#1708 = DIRECTION('',(1.,0.,0.));
#1709 = CYLINDRICAL_SURFACE('',#1710,0.5);
#1710 = AXIS2_PLACEMENT_3D('',#1711,#1712,#1713);
#1711 = CARTESIAN_POINT('',(0.5,3.,0.));
#1712 = DIRECTION('',(-0.,-0.,-1.));
#1713 = DIRECTION('',(1.,0.,0.));
#1714 = ADVANCED_FACE('',(#1715),#1725,.F.);
#1715 = FACE_BOUND('',#1716,.T.);
#1716 = EDGE_LOOP('',(#1717,#1718,#1719,#1720,#1721,#1722,#1723,#1724));
#1717 = ORIENTED_EDGE('',*,*,#1492,.T.);
#1718 = ORIENTED_EDGE('',*,*,#1523,.T.);
#1719 = ORIENTED_EDGE('',*,*,#1554,.T.);
#1720 = ORIENTED_EDGE('',*,*,#1586,.T.);
#1721 = ORIENTED_EDGE('',*,*,#1618,.T.);
#1722 = ORIENTED_EDGE('',*,*,#1649,.F.);
#1723 = ORIENTED_EDGE('',*,*,#1680,.T.);
#1724 = ORIENTED_EDGE('',*,*,#1703,.F.);
#1725 = PLANE('',#1726);
#1726 = AXIS2_PLACEMENT_3D('',#1727,#1728,#1729);
#1727 = CARTESIAN_POINT('',(0.489381999159,2.112677639621,0.));
#1728 = DIRECTION('',(0.,0.,1.));
#1729 = DIRECTION('',(1.,0.,0.));
#1730 = ADVANCED_FACE('',(#1731),#1741,.T.);
#1731 = FACE_BOUND('',#1732,.F.);
#1732 = EDGE_LOOP('',(#1733,#1734,#1735,#1736,#1737,#1738,#1739,#1740));
#1733 = ORIENTED_EDGE('',*,*,#1476,.T.);
#1734 = ORIENTED_EDGE('',*,*,#1507,.T.);
#1735 = ORIENTED_EDGE('',*,*,#1538,.T.);
#1736 = ORIENTED_EDGE('',*,*,#1569,.T.);
#1737 = ORIENTED_EDGE('',*,*,#1602,.T.);
#1738 = ORIENTED_EDGE('',*,*,#1642,.F.);
#1739 = ORIENTED_EDGE('',*,*,#1664,.T.);
#1740 = ORIENTED_EDGE('',*,*,#1695,.F.);
#1741 = PLANE('',#1742);
#1742 = AXIS2_PLACEMENT_3D('',#1743,#1744,#1745);
#1743 = CARTESIAN_POINT('',(0.489381999159,2.112677639621,0.5));
#1744 = DIRECTION('',(0.,0.,1.));
#1745 = DIRECTION('',(1.,0.,0.));
#1746 = ( GEOMETRIC_REPRESENTATION_CONTEXT(3) 
GLOBAL_UNCERTAINTY_ASSIGNED_CONTEXT((#1750)) 
GLOBAL_UNIT_ASSIGNED_CONTEXT((#1747,#1748,#1749)) REPRESENTATION_CONTEXT
('Context #1','3D Context with UNIT and UNCERTAINTY') );
#1747 = ( LENGTH_UNIT() NAMED_UNIT(*) SI_UNIT(.MILLI.,.METRE.) );
#1748 = ( NAMED_UNIT(*) PLANE_ANGLE_UNIT() SI_UNIT($,.RADIAN.) );
#1749 = ( NAMED_UNIT(*) SI_UNIT($,.STERADIAN.) SOLID_ANGLE_UNIT() );
#1750 = UNCERTAINTY_MEASURE_WITH_UNIT(LENGTH_MEASURE(1.E-07),#1747,
  'distance_accuracy_value','confusion accuracy');
#1751 = CONTEXT_DEPENDENT_SHAPE_REPRESENTATION(#1752,#1754);
#1752 = ( REPRESENTATION_RELATIONSHIP('','',#1459,#10) 
REPRESENTATION_RELATIONSHIP_WITH_TRANSFORMATION(#1753) 
SHAPE_REPRESENTATION_RELATIONSHIP() );
#1753 = ITEM_DEFINED_TRANSFORMATION('','',#11,#19);
#1754 = PRODUCT_DEFINITION_SHAPE('Placement','Placement of an item',
  #1755);
#1755 = NEXT_ASSEMBLY_USAGE_OCCURRENCE('2','PIN001','',#5,#1454,$);
#1756 = PRODUCT_RELATED_PRODUCT_CATEGORY('part',$,(#1456));
#1757 = CONTEXT_DEPENDENT_SHAPE_REPRESENTATION(#1758,#1760);
#1758 = ( REPRESENTATION_RELATIONSHIP('','',#1459,#10) 
REPRESENTATION_RELATIONSHIP_WITH_TRANSFORMATION(#1759) 
SHAPE_REPRESENTATION_RELATIONSHIP() );
#1759 = ITEM_DEFINED_TRANSFORMATION('','',#11,#23);
#1760 = PRODUCT_DEFINITION_SHAPE('Placement','Placement of an item',
  #1761);
#1761 = NEXT_ASSEMBLY_USAGE_OCCURRENCE('3','PIN002','',#5,#1454,$);
#1762 = CONTEXT_DEPENDENT_SHAPE_REPRESENTATION(#1763,#1765);
#1763 = ( REPRESENTATION_RELATIONSHIP('','',#1459,#10) 
REPRESENTATION_RELATIONSHIP_WITH_TRANSFORMATION(#1764) 
SHAPE_REPRESENTATION_RELATIONSHIP() );
#1764 = ITEM_DEFINED_TRANSFORMATION('','',#11,#27);
#1765 = PRODUCT_DEFINITION_SHAPE('Placement','Placement of an item',
  #1766);
#1766 = NEXT_ASSEMBLY_USAGE_OCCURRENCE('4','PIN003','',#5,#1454,$);
#1767 = CONTEXT_DEPENDENT_SHAPE_REPRESENTATION(#1768,#1770);
#1768 = ( REPRESENTATION_RELATIONSHIP('','',#1459,#10) 
REPRESENTATION_RELATIONSHIP_WITH_TRANSFORMATION(#1769) 
SHAPE_REPRESENTATION_RELATIONSHIP() );
#1769 = ITEM_DEFINED_TRANSFORMATION('','',#11,#31);
#1770 = PRODUCT_DEFINITION_SHAPE('Placement','Placement of an item',
  #1771);
#1771 = NEXT_ASSEMBLY_USAGE_OCCURRENCE('5','PIN004','',#5,#1454,$);
#1772 = CONTEXT_DEPENDENT_SHAPE_REPRESENTATION(#1773,#1775);
#1773 = ( REPRESENTATION_RELATIONSHIP('','',#1459,#10) 
REPRESENTATION_RELATIONSHIP_WITH_TRANSFORMATION(#1774) 
SHAPE_REPRESENTATION_RELATIONSHIP() );
#1774 = ITEM_DEFINED_TRANSFORMATION('','',#11,#35);
#1775 = PRODUCT_DEFINITION_SHAPE('Placement','Placement of an item',
  #1776);
#1776 = NEXT_ASSEMBLY_USAGE_OCCURRENCE('6','PIN006','',#5,#1454,$);
#1777 = CONTEXT_DEPENDENT_SHAPE_REPRESENTATION(#1778,#1780);
#1778 = ( REPRESENTATION_RELATIONSHIP('','',#1459,#10) 
REPRESENTATION_RELATIONSHIP_WITH_TRANSFORMATION(#1779) 
SHAPE_REPRESENTATION_RELATIONSHIP() );
#1779 = ITEM_DEFINED_TRANSFORMATION('','',#11,#39);
#1780 = PRODUCT_DEFINITION_SHAPE('Placement','Placement of an item',
  #1781);
#1781 = NEXT_ASSEMBLY_USAGE_OCCURRENCE('7','PIN007','',#5,#1454,$);
#1782 = CONTEXT_DEPENDENT_SHAPE_REPRESENTATION(#1783,#1785);
#1783 = ( REPRESENTATION_RELATIONSHIP('','',#1459,#10) 
REPRESENTATION_RELATIONSHIP_WITH_TRANSFORMATION(#1784) 
SHAPE_REPRESENTATION_RELATIONSHIP() );
#1784 = ITEM_DEFINED_TRANSFORMATION('','',#11,#43);
#1785 = PRODUCT_DEFINITION_SHAPE('Placement','Placement of an item',
  #1786);
#1786 = NEXT_ASSEMBLY_USAGE_OCCURRENCE('8','PIN008','',#5,#1454,$);
#1787 = CONTEXT_DEPENDENT_SHAPE_REPRESENTATION(#1788,#1790);
#1788 = ( REPRESENTATION_RELATIONSHIP('','',#1459,#10) 
REPRESENTATION_RELATIONSHIP_WITH_TRANSFORMATION(#1789) 
SHAPE_REPRESENTATION_RELATIONSHIP() );
#1789 = ITEM_DEFINED_TRANSFORMATION('','',#11,#47);
#1790 = PRODUCT_DEFINITION_SHAPE('Placement','Placement of an item',
  #1791);
#1791 = NEXT_ASSEMBLY_USAGE_OCCURRENCE('9','PIN009','',#5,#1454,$);
#1792 = MECHANICAL_DESIGN_GEOMETRIC_PRESENTATION_REPRESENTATION('',(
    #1793),#1441);
#1793 = STYLED_ITEM('color',(#1794),#65);
#1794 = PRESENTATION_STYLE_ASSIGNMENT((#1795,#1801));
#1795 = SURFACE_STYLE_USAGE(.BOTH.,#1796);
#1796 = SURFACE_SIDE_STYLE('',(#1797));
#1797 = SURFACE_STYLE_FILL_AREA(#1798);
#1798 = FILL_AREA_STYLE('',(#1799));
#1799 = FILL_AREA_STYLE_COLOUR('',#1800);
#1800 = COLOUR_RGB('',0.137254909518,0.145098047169,0.149019617616);
#1801 = CURVE_STYLE('',#1802,POSITIVE_LENGTH_MEASURE(0.1),#1803);
#1802 = DRAUGHTING_PRE_DEFINED_CURVE_FONT('continuous');
#1803 = COLOUR_RGB('',9.803921802644E-02,9.803921802644E-02,
  9.803921802644E-02);
#1804 = MECHANICAL_DESIGN_GEOMETRIC_PRESENTATION_REPRESENTATION('',(
    #1805),#1746);
#1805 = STYLED_ITEM('color',(#1806),#1460);
#1806 = PRESENTATION_STYLE_ASSIGNMENT((#1807,#1813));
#1807 = SURFACE_STYLE_USAGE(.BOTH.,#1808);
#1808 = SURFACE_SIDE_STYLE('',(#1809));
#1809 = SURFACE_STYLE_FILL_AREA(#1810);
#1810 = FILL_AREA_STYLE('',(#1811));
#1811 = FILL_AREA_STYLE_COLOUR('',#1812);
#1812 = COLOUR_RGB('',0.752941202324,0.572549045538,7.843137629354E-02);
#1813 = CURVE_STYLE('',#1814,POSITIVE_LENGTH_MEASURE(0.1),#1803);
#1814 = DRAUGHTING_PRE_DEFINED_CURVE_FONT('continuous');
ENDSEC;
END-ISO-10303-21;
