ISO-10303-21;
HEADER;
FILE_DESCRIPTION(('FreeCAD Model'),'2;1');
FILE_NAME('Open CASCADE Shape Model','2026-07-31T15:30:28',(''),(''),
  'Open CASCADE STEP processor 7.8','FreeCAD','Unknown');
FILE_SCHEMA(('AUTOMOTIVE_DESIGN { 1 0 10303 214 1 1 1 1 }'));
ENDSEC;
DATA;
#1 = APPLICATION_PROTOCOL_DEFINITION('international standard',
  'automotive_design',2000,#2);
#2 = APPLICATION_CONTEXT(
  'core data for automotive mechanical design processes');
#3 = SHAPE_DEFINITION_REPRESENTATION(#4,#10);
#4 = PRODUCT_DEFINITION_SHAPE('','',#5);
#5 = PRODUCT_DEFINITION('design','',#6,#9);
#6 = PRODUCT_DEFINITION_FORMATION('','',#7);
#7 = PRODUCT('Unnamed','Unnamed','',(#8));
#8 = PRODUCT_CONTEXT('',#2,'mechanical');
#9 = PRODUCT_DEFINITION_CONTEXT('part definition',#2,'design');
#10 = SHAPE_REPRESENTATION('',(#11,#15,#19,#23),#27);
#11 = AXIS2_PLACEMENT_3D('',#12,#13,#14);
#12 = CARTESIAN_POINT('',(0.,0.,0.));
#13 = DIRECTION('',(0.,0.,1.));
#14 = DIRECTION('',(1.,0.,-0.));
#15 = AXIS2_PLACEMENT_3D('',#16,#17,#18);
#16 = CARTESIAN_POINT('',(0.,0.,0.));
#17 = DIRECTION('',(0.,0.,1.));
#18 = DIRECTION('',(1.,0.,0.));
#19 = AXIS2_PLACEMENT_3D('',#20,#21,#22);
#20 = CARTESIAN_POINT('',(0.,0.,0.));
#21 = DIRECTION('',(0.,0.,1.));
#22 = DIRECTION('',(1.,0.,0.));
#23 = AXIS2_PLACEMENT_3D('',#24,#25,#26);
#24 = CARTESIAN_POINT('',(0.,0.,0.));
#25 = DIRECTION('',(0.,0.,1.));
#26 = DIRECTION('',(1.,0.,0.));
#27 = ( GEOMETRIC_REPRESENTATION_CONTEXT(3) 
GLOBAL_UNCERTAINTY_ASSIGNED_CONTEXT((#31)) GLOBAL_UNIT_ASSIGNED_CONTEXT(
(#28,#29,#30)) REPRESENTATION_CONTEXT('Context #1',
  '3D Context with UNIT and UNCERTAINTY') );
#28 = ( LENGTH_UNIT() NAMED_UNIT(*) SI_UNIT(.MILLI.,.METRE.) );
#29 = ( NAMED_UNIT(*) PLANE_ANGLE_UNIT() SI_UNIT($,.RADIAN.) );
#30 = ( NAMED_UNIT(*) SI_UNIT($,.STERADIAN.) SOLID_ANGLE_UNIT() );
#31 = UNCERTAINTY_MEASURE_WITH_UNIT(LENGTH_MEASURE(1.E-07),#28,
  'distance_accuracy_value','confusion accuracy');
#32 = PRODUCT_RELATED_PRODUCT_CATEGORY('part',$,(#7));
#33 = SHAPE_DEFINITION_REPRESENTATION(#34,#40);
#34 = PRODUCT_DEFINITION_SHAPE('','',#35);
#35 = PRODUCT_DEFINITION('design','',#36,#39);
#36 = PRODUCT_DEFINITION_FORMATION('','',#37);
#37 = PRODUCT('Body','Body','',(#38));
#38 = PRODUCT_CONTEXT('',#2,'mechanical');
#39 = PRODUCT_DEFINITION_CONTEXT('part definition',#2,'design');
#40 = ADVANCED_BREP_SHAPE_REPRESENTATION('',(#11,#41),#1271);
#41 = MANIFOLD_SOLID_BREP('',#42);
#42 = CLOSED_SHELL('',(#43,#83,#114,#147,#178,#209,#240,#273,#304,#335,
    #368,#399,#432,#463,#494,#525,#558,#589,#622,#653,#684,#715,#748,
    #779,#812,#843,#874,#905,#938,#969,#1002,#1033,#1064,#1095,#1128,
    #1159,#1183,#1227));
#43 = ADVANCED_FACE('',(#44),#78,.F.);
#44 = FACE_BOUND('',#45,.F.);
#45 = EDGE_LOOP('',(#46,#56,#64,#72));
#46 = ORIENTED_EDGE('',*,*,#47,.T.);
#47 = EDGE_CURVE('',#48,#50,#52,.T.);
#48 = VERTEX_POINT('',#49);
#49 = CARTESIAN_POINT('',(31.96,2.6,0.));
#50 = VERTEX_POINT('',#51);
#51 = CARTESIAN_POINT('',(31.96,2.6,1.2));
#52 = LINE('',#53,#54);
#53 = CARTESIAN_POINT('',(31.96,2.6,0.));
#54 = VECTOR('',#55,1.);
#55 = DIRECTION('',(0.,0.,1.));
#56 = ORIENTED_EDGE('',*,*,#57,.T.);
#57 = EDGE_CURVE('',#50,#58,#60,.T.);
#58 = VERTEX_POINT('',#59);
#59 = CARTESIAN_POINT('',(31.96,0.,1.2));
#60 = LINE('',#61,#62);
#61 = CARTESIAN_POINT('',(31.96,2.6,1.2));
#62 = VECTOR('',#63,1.);
#63 = DIRECTION('',(0.,-1.,0.));
#64 = ORIENTED_EDGE('',*,*,#65,.F.);
#65 = EDGE_CURVE('',#66,#58,#68,.T.);
#66 = VERTEX_POINT('',#67);
#67 = CARTESIAN_POINT('',(31.96,0.,0.));
#68 = LINE('',#69,#70);
#69 = CARTESIAN_POINT('',(31.96,0.,0.));
#70 = VECTOR('',#71,1.);
#71 = DIRECTION('',(0.,0.,1.));
#72 = ORIENTED_EDGE('',*,*,#73,.F.);
#73 = EDGE_CURVE('',#48,#66,#74,.T.);
#74 = LINE('',#75,#76);
#75 = CARTESIAN_POINT('',(31.96,2.6,0.));
#76 = VECTOR('',#77,1.);
#77 = DIRECTION('',(0.,-1.,0.));
#78 = PLANE('',#79);
#79 = AXIS2_PLACEMENT_3D('',#80,#81,#82);
#80 = CARTESIAN_POINT('',(31.96,2.6,0.));
#81 = DIRECTION('',(1.,0.,0.));
#82 = DIRECTION('',(0.,-1.,0.));
#83 = ADVANCED_FACE('',(#84),#109,.F.);
#84 = FACE_BOUND('',#85,.F.);
#85 = EDGE_LOOP('',(#86,#87,#95,#103));
#86 = ORIENTED_EDGE('',*,*,#65,.T.);
#87 = ORIENTED_EDGE('',*,*,#88,.T.);
#88 = EDGE_CURVE('',#58,#89,#91,.T.);
#89 = VERTEX_POINT('',#90);
#90 = CARTESIAN_POINT('',(33.1,0.,1.2));
#91 = LINE('',#92,#93);
#92 = CARTESIAN_POINT('',(31.96,0.,1.2));
#93 = VECTOR('',#94,1.);
#94 = DIRECTION('',(1.,0.,0.));
#95 = ORIENTED_EDGE('',*,*,#96,.F.);
#96 = EDGE_CURVE('',#97,#89,#99,.T.);
#97 = VERTEX_POINT('',#98);
#98 = CARTESIAN_POINT('',(33.1,0.,0.));
#99 = LINE('',#100,#101);
#100 = CARTESIAN_POINT('',(33.1,0.,0.));
#101 = VECTOR('',#102,1.);
#102 = DIRECTION('',(0.,0.,1.));
#103 = ORIENTED_EDGE('',*,*,#104,.F.);
#104 = EDGE_CURVE('',#66,#97,#105,.T.);
#105 = LINE('',#106,#107);
#106 = CARTESIAN_POINT('',(31.96,0.,0.));
#107 = VECTOR('',#108,1.);
#108 = DIRECTION('',(1.,0.,0.));
#109 = PLANE('',#110);
#110 = AXIS2_PLACEMENT_3D('',#111,#112,#113);
#111 = CARTESIAN_POINT('',(31.96,0.,0.));
#112 = DIRECTION('',(0.,1.,0.));
#113 = DIRECTION('',(1.,0.,0.));
#114 = ADVANCED_FACE('',(#115),#142,.T.);
#115 = FACE_BOUND('',#116,.F.);
#116 = EDGE_LOOP('',(#117,#118,#127,#135));
#117 = ORIENTED_EDGE('',*,*,#96,.T.);
#118 = ORIENTED_EDGE('',*,*,#119,.T.);
#119 = EDGE_CURVE('',#89,#120,#122,.T.);
#120 = VERTEX_POINT('',#121);
#121 = CARTESIAN_POINT('',(33.5,0.4,1.2));
#122 = CIRCLE('',#123,0.4);
#123 = AXIS2_PLACEMENT_3D('',#124,#125,#126);
#124 = CARTESIAN_POINT('',(33.1,0.4,1.2));
#125 = DIRECTION('',(0.,0.,1.));
#126 = DIRECTION('',(1.,0.,0.));
#127 = ORIENTED_EDGE('',*,*,#128,.F.);
#128 = EDGE_CURVE('',#129,#120,#131,.T.);
#129 = VERTEX_POINT('',#130);
#130 = CARTESIAN_POINT('',(33.5,0.4,0.));
#131 = LINE('',#132,#133);
#132 = CARTESIAN_POINT('',(33.5,0.4,0.));
#133 = VECTOR('',#134,1.);
#134 = DIRECTION('',(0.,0.,1.));
#135 = ORIENTED_EDGE('',*,*,#136,.F.);
#136 = EDGE_CURVE('',#97,#129,#137,.T.);
#137 = CIRCLE('',#138,0.4);
#138 = AXIS2_PLACEMENT_3D('',#139,#140,#141);
#139 = CARTESIAN_POINT('',(33.1,0.4,0.));
#140 = DIRECTION('',(0.,0.,1.));
#141 = DIRECTION('',(1.,0.,0.));
#142 = CYLINDRICAL_SURFACE('',#143,0.4);
#143 = AXIS2_PLACEMENT_3D('',#144,#145,#146);
#144 = CARTESIAN_POINT('',(33.1,0.4,0.));
#145 = DIRECTION('',(-0.,-0.,-1.));
#146 = DIRECTION('',(1.,0.,0.));
#147 = ADVANCED_FACE('',(#148),#173,.F.);
#148 = FACE_BOUND('',#149,.F.);
#149 = EDGE_LOOP('',(#150,#151,#159,#167));
#150 = ORIENTED_EDGE('',*,*,#128,.T.);
#151 = ORIENTED_EDGE('',*,*,#152,.T.);
#152 = EDGE_CURVE('',#120,#153,#155,.T.);
#153 = VERTEX_POINT('',#154);
#154 = CARTESIAN_POINT('',(33.5,20.,1.2));
#155 = LINE('',#156,#157);
#156 = CARTESIAN_POINT('',(33.5,0.4,1.2));
#157 = VECTOR('',#158,1.);
#158 = DIRECTION('',(0.,1.,0.));
#159 = ORIENTED_EDGE('',*,*,#160,.F.);
#160 = EDGE_CURVE('',#161,#153,#163,.T.);
#161 = VERTEX_POINT('',#162);
#162 = CARTESIAN_POINT('',(33.5,20.,0.));
#163 = LINE('',#164,#165);
#164 = CARTESIAN_POINT('',(33.5,20.,0.));
#165 = VECTOR('',#166,1.);
#166 = DIRECTION('',(0.,0.,1.));
#167 = ORIENTED_EDGE('',*,*,#168,.F.);
#168 = EDGE_CURVE('',#129,#161,#169,.T.);
#169 = LINE('',#170,#171);
#170 = CARTESIAN_POINT('',(33.5,0.4,0.));
#171 = VECTOR('',#172,1.);
#172 = DIRECTION('',(0.,1.,0.));
#173 = PLANE('',#174);
#174 = AXIS2_PLACEMENT_3D('',#175,#176,#177);
#175 = CARTESIAN_POINT('',(33.5,0.4,0.));
#176 = DIRECTION('',(-1.,0.,0.));
#177 = DIRECTION('',(0.,1.,0.));
#178 = ADVANCED_FACE('',(#179),#204,.F.);
#179 = FACE_BOUND('',#180,.F.);
#180 = EDGE_LOOP('',(#181,#182,#190,#198));
#181 = ORIENTED_EDGE('',*,*,#160,.T.);
#182 = ORIENTED_EDGE('',*,*,#183,.T.);
#183 = EDGE_CURVE('',#153,#184,#186,.T.);
#184 = VERTEX_POINT('',#185);
#185 = CARTESIAN_POINT('',(0.,20.,1.2));
#186 = LINE('',#187,#188);
#187 = CARTESIAN_POINT('',(33.5,20.,1.2));
#188 = VECTOR('',#189,1.);
#189 = DIRECTION('',(-1.,0.,0.));
#190 = ORIENTED_EDGE('',*,*,#191,.F.);
#191 = EDGE_CURVE('',#192,#184,#194,.T.);
#192 = VERTEX_POINT('',#193);
#193 = CARTESIAN_POINT('',(0.,20.,0.));
#194 = LINE('',#195,#196);
#195 = CARTESIAN_POINT('',(0.,20.,0.));
#196 = VECTOR('',#197,1.);
#197 = DIRECTION('',(0.,0.,1.));
#198 = ORIENTED_EDGE('',*,*,#199,.F.);
#199 = EDGE_CURVE('',#161,#192,#200,.T.);
#200 = LINE('',#201,#202);
#201 = CARTESIAN_POINT('',(33.5,20.,0.));
#202 = VECTOR('',#203,1.);
#203 = DIRECTION('',(-1.,0.,0.));
#204 = PLANE('',#205);
#205 = AXIS2_PLACEMENT_3D('',#206,#207,#208);
#206 = CARTESIAN_POINT('',(33.5,20.,0.));
#207 = DIRECTION('',(0.,-1.,0.));
#208 = DIRECTION('',(-1.,0.,0.));
#209 = ADVANCED_FACE('',(#210),#235,.F.);
#210 = FACE_BOUND('',#211,.F.);
#211 = EDGE_LOOP('',(#212,#213,#221,#229));
#212 = ORIENTED_EDGE('',*,*,#191,.T.);
#213 = ORIENTED_EDGE('',*,*,#214,.T.);
#214 = EDGE_CURVE('',#184,#215,#217,.T.);
#215 = VERTEX_POINT('',#216);
#216 = CARTESIAN_POINT('',(0.,0.4,1.2));
#217 = LINE('',#218,#219);
#218 = CARTESIAN_POINT('',(0.,20.,1.2));
#219 = VECTOR('',#220,1.);
#220 = DIRECTION('',(0.,-1.,0.));
#221 = ORIENTED_EDGE('',*,*,#222,.F.);
#222 = EDGE_CURVE('',#223,#215,#225,.T.);
#223 = VERTEX_POINT('',#224);
#224 = CARTESIAN_POINT('',(0.,0.4,0.));
#225 = LINE('',#226,#227);
#226 = CARTESIAN_POINT('',(0.,0.4,0.));
#227 = VECTOR('',#228,1.);
#228 = DIRECTION('',(0.,0.,1.));
#229 = ORIENTED_EDGE('',*,*,#230,.F.);
#230 = EDGE_CURVE('',#192,#223,#231,.T.);
#231 = LINE('',#232,#233);
#232 = CARTESIAN_POINT('',(0.,20.,0.));
#233 = VECTOR('',#234,1.);
#234 = DIRECTION('',(0.,-1.,0.));
#235 = PLANE('',#236);
#236 = AXIS2_PLACEMENT_3D('',#237,#238,#239);
#237 = CARTESIAN_POINT('',(0.,20.,0.));
#238 = DIRECTION('',(1.,0.,0.));
#239 = DIRECTION('',(0.,-1.,0.));
#240 = ADVANCED_FACE('',(#241),#268,.T.);
#241 = FACE_BOUND('',#242,.F.);
#242 = EDGE_LOOP('',(#243,#244,#253,#261));
#243 = ORIENTED_EDGE('',*,*,#222,.T.);
#244 = ORIENTED_EDGE('',*,*,#245,.T.);
#245 = EDGE_CURVE('',#215,#246,#248,.T.);
#246 = VERTEX_POINT('',#247);
#247 = CARTESIAN_POINT('',(0.4,-4.336808689942E-19,1.2));
#248 = CIRCLE('',#249,0.4);
#249 = AXIS2_PLACEMENT_3D('',#250,#251,#252);
#250 = CARTESIAN_POINT('',(0.4,0.4,1.2));
#251 = DIRECTION('',(0.,0.,1.));
#252 = DIRECTION('',(1.,0.,0.));
#253 = ORIENTED_EDGE('',*,*,#254,.F.);
#254 = EDGE_CURVE('',#255,#246,#257,.T.);
#255 = VERTEX_POINT('',#256);
#256 = CARTESIAN_POINT('',(0.4,-4.336808689942E-19,0.));
#257 = LINE('',#258,#259);
#258 = CARTESIAN_POINT('',(0.4,-4.336808689942E-19,0.));
#259 = VECTOR('',#260,1.);
#260 = DIRECTION('',(0.,0.,1.));
#261 = ORIENTED_EDGE('',*,*,#262,.F.);
#262 = EDGE_CURVE('',#223,#255,#263,.T.);
#263 = CIRCLE('',#264,0.4);
#264 = AXIS2_PLACEMENT_3D('',#265,#266,#267);
#265 = CARTESIAN_POINT('',(0.4,0.4,0.));
#266 = DIRECTION('',(0.,0.,1.));
#267 = DIRECTION('',(1.,0.,0.));
#268 = CYLINDRICAL_SURFACE('',#269,0.4);
#269 = AXIS2_PLACEMENT_3D('',#270,#271,#272);
#270 = CARTESIAN_POINT('',(0.4,0.4,0.));
#271 = DIRECTION('',(-0.,-0.,-1.));
#272 = DIRECTION('',(1.,0.,0.));
#273 = ADVANCED_FACE('',(#274),#299,.F.);
#274 = FACE_BOUND('',#275,.F.);
#275 = EDGE_LOOP('',(#276,#277,#285,#293));
#276 = ORIENTED_EDGE('',*,*,#254,.T.);
#277 = ORIENTED_EDGE('',*,*,#278,.T.);
#278 = EDGE_CURVE('',#246,#279,#281,.T.);
#279 = VERTEX_POINT('',#280);
#280 = CARTESIAN_POINT('',(1.54,-8.673617379884E-19,1.2));
#281 = LINE('',#282,#283);
#282 = CARTESIAN_POINT('',(0.4,-8.673617379884E-19,1.2));
#283 = VECTOR('',#284,1.);
#284 = DIRECTION('',(1.,0.,0.));
#285 = ORIENTED_EDGE('',*,*,#286,.F.);
#286 = EDGE_CURVE('',#287,#279,#289,.T.);
#287 = VERTEX_POINT('',#288);
#288 = CARTESIAN_POINT('',(1.54,-8.673617379884E-19,0.));
#289 = LINE('',#290,#291);
#290 = CARTESIAN_POINT('',(1.54,-8.673617379884E-19,0.));
#291 = VECTOR('',#292,1.);
#292 = DIRECTION('',(0.,0.,1.));
#293 = ORIENTED_EDGE('',*,*,#294,.F.);
#294 = EDGE_CURVE('',#255,#287,#295,.T.);
#295 = LINE('',#296,#297);
#296 = CARTESIAN_POINT('',(0.4,-8.673617379884E-19,0.));
#297 = VECTOR('',#298,1.);
#298 = DIRECTION('',(1.,0.,0.));
#299 = PLANE('',#300);
#300 = AXIS2_PLACEMENT_3D('',#301,#302,#303);
#301 = CARTESIAN_POINT('',(0.4,-8.673617379884E-19,0.));
#302 = DIRECTION('',(0.,1.,0.));
#303 = DIRECTION('',(1.,0.,0.));
#304 = ADVANCED_FACE('',(#305),#330,.F.);
#305 = FACE_BOUND('',#306,.F.);
#306 = EDGE_LOOP('',(#307,#308,#316,#324));
#307 = ORIENTED_EDGE('',*,*,#286,.T.);
#308 = ORIENTED_EDGE('',*,*,#309,.T.);
#309 = EDGE_CURVE('',#279,#310,#312,.T.);
#310 = VERTEX_POINT('',#311);
#311 = CARTESIAN_POINT('',(1.54,2.6,1.2));
#312 = LINE('',#313,#314);
#313 = CARTESIAN_POINT('',(1.54,-8.673617379884E-19,1.2));
#314 = VECTOR('',#315,1.);
#315 = DIRECTION('',(0.,1.,0.));
#316 = ORIENTED_EDGE('',*,*,#317,.F.);
#317 = EDGE_CURVE('',#318,#310,#320,.T.);
#318 = VERTEX_POINT('',#319);
#319 = CARTESIAN_POINT('',(1.54,2.6,0.));
#320 = LINE('',#321,#322);
#321 = CARTESIAN_POINT('',(1.54,2.6,0.));
#322 = VECTOR('',#323,1.);
#323 = DIRECTION('',(0.,0.,1.));
#324 = ORIENTED_EDGE('',*,*,#325,.F.);
#325 = EDGE_CURVE('',#287,#318,#326,.T.);
#326 = LINE('',#327,#328);
#327 = CARTESIAN_POINT('',(1.54,-8.673617379884E-19,0.));
#328 = VECTOR('',#329,1.);
#329 = DIRECTION('',(0.,1.,0.));
#330 = PLANE('',#331);
#331 = AXIS2_PLACEMENT_3D('',#332,#333,#334);
#332 = CARTESIAN_POINT('',(1.54,-8.673617379884E-19,0.));
#333 = DIRECTION('',(-1.,0.,0.));
#334 = DIRECTION('',(0.,1.,0.));
#335 = ADVANCED_FACE('',(#336),#363,.F.);
#336 = FACE_BOUND('',#337,.T.);
#337 = EDGE_LOOP('',(#338,#348,#355,#356));
#338 = ORIENTED_EDGE('',*,*,#339,.T.);
#339 = EDGE_CURVE('',#340,#342,#344,.T.);
#340 = VERTEX_POINT('',#341);
#341 = CARTESIAN_POINT('',(1.74,2.8,0.));
#342 = VERTEX_POINT('',#343);
#343 = CARTESIAN_POINT('',(1.74,2.8,1.2));
#344 = LINE('',#345,#346);
#345 = CARTESIAN_POINT('',(1.74,2.8,0.));
#346 = VECTOR('',#347,1.);
#347 = DIRECTION('',(0.,0.,1.));
#348 = ORIENTED_EDGE('',*,*,#349,.T.);
#349 = EDGE_CURVE('',#342,#310,#350,.T.);
#350 = CIRCLE('',#351,0.2);
#351 = AXIS2_PLACEMENT_3D('',#352,#353,#354);
#352 = CARTESIAN_POINT('',(1.74,2.6,1.2));
#353 = DIRECTION('',(0.,0.,1.));
#354 = DIRECTION('',(1.,0.,0.));
#355 = ORIENTED_EDGE('',*,*,#317,.F.);
#356 = ORIENTED_EDGE('',*,*,#357,.F.);
#357 = EDGE_CURVE('',#340,#318,#358,.T.);
#358 = CIRCLE('',#359,0.2);
#359 = AXIS2_PLACEMENT_3D('',#360,#361,#362);
#360 = CARTESIAN_POINT('',(1.74,2.6,0.));
#361 = DIRECTION('',(0.,0.,1.));
#362 = DIRECTION('',(1.,0.,0.));
#363 = CYLINDRICAL_SURFACE('',#364,0.2);
#364 = AXIS2_PLACEMENT_3D('',#365,#366,#367);
#365 = CARTESIAN_POINT('',(1.74,2.6,0.));
#366 = DIRECTION('',(-0.,-0.,-1.));
#367 = DIRECTION('',(1.,0.,0.));
#368 = ADVANCED_FACE('',(#369),#394,.T.);
#369 = FACE_BOUND('',#370,.T.);
#370 = EDGE_LOOP('',(#371,#381,#387,#388));
#371 = ORIENTED_EDGE('',*,*,#372,.T.);
#372 = EDGE_CURVE('',#373,#375,#377,.T.);
#373 = VERTEX_POINT('',#374);
#374 = CARTESIAN_POINT('',(4.55,2.8,0.));
#375 = VERTEX_POINT('',#376);
#376 = CARTESIAN_POINT('',(4.55,2.8,1.2));
#377 = LINE('',#378,#379);
#378 = CARTESIAN_POINT('',(4.55,2.8,0.));
#379 = VECTOR('',#380,1.);
#380 = DIRECTION('',(0.,0.,1.));
#381 = ORIENTED_EDGE('',*,*,#382,.T.);
#382 = EDGE_CURVE('',#375,#342,#383,.T.);
#383 = LINE('',#384,#385);
#384 = CARTESIAN_POINT('',(4.55,2.8,1.2));
#385 = VECTOR('',#386,1.);
#386 = DIRECTION('',(-1.,0.,0.));
#387 = ORIENTED_EDGE('',*,*,#339,.F.);
#388 = ORIENTED_EDGE('',*,*,#389,.F.);
#389 = EDGE_CURVE('',#373,#340,#390,.T.);
#390 = LINE('',#391,#392);
#391 = CARTESIAN_POINT('',(4.55,2.8,0.));
#392 = VECTOR('',#393,1.);
#393 = DIRECTION('',(-1.,0.,0.));
#394 = PLANE('',#395);
#395 = AXIS2_PLACEMENT_3D('',#396,#397,#398);
#396 = CARTESIAN_POINT('',(4.55,2.8,0.));
#397 = DIRECTION('',(0.,-1.,0.));
#398 = DIRECTION('',(-1.,0.,0.));
#399 = ADVANCED_FACE('',(#400),#427,.F.);
#400 = FACE_BOUND('',#401,.T.);
#401 = EDGE_LOOP('',(#402,#412,#419,#420));
#402 = ORIENTED_EDGE('',*,*,#403,.T.);
#403 = EDGE_CURVE('',#404,#406,#408,.T.);
#404 = VERTEX_POINT('',#405);
#405 = CARTESIAN_POINT('',(4.75,2.6,0.));
#406 = VERTEX_POINT('',#407);
#407 = CARTESIAN_POINT('',(4.75,2.6,1.2));
#408 = LINE('',#409,#410);
#409 = CARTESIAN_POINT('',(4.75,2.6,0.));
#410 = VECTOR('',#411,1.);
#411 = DIRECTION('',(0.,0.,1.));
#412 = ORIENTED_EDGE('',*,*,#413,.T.);
#413 = EDGE_CURVE('',#406,#375,#414,.T.);
#414 = CIRCLE('',#415,0.2);
#415 = AXIS2_PLACEMENT_3D('',#416,#417,#418);
#416 = CARTESIAN_POINT('',(4.55,2.6,1.2));
#417 = DIRECTION('',(0.,0.,1.));
#418 = DIRECTION('',(1.,0.,0.));
#419 = ORIENTED_EDGE('',*,*,#372,.F.);
#420 = ORIENTED_EDGE('',*,*,#421,.F.);
#421 = EDGE_CURVE('',#404,#373,#422,.T.);
#422 = CIRCLE('',#423,0.2);
#423 = AXIS2_PLACEMENT_3D('',#424,#425,#426);
#424 = CARTESIAN_POINT('',(4.55,2.6,0.));
#425 = DIRECTION('',(0.,0.,1.));
#426 = DIRECTION('',(1.,0.,0.));
#427 = CYLINDRICAL_SURFACE('',#428,0.2);
#428 = AXIS2_PLACEMENT_3D('',#429,#430,#431);
#429 = CARTESIAN_POINT('',(4.55,2.6,0.));
#430 = DIRECTION('',(-0.,-0.,-1.));
#431 = DIRECTION('',(1.,0.,0.));
#432 = ADVANCED_FACE('',(#433),#458,.F.);
#433 = FACE_BOUND('',#434,.F.);
#434 = EDGE_LOOP('',(#435,#436,#444,#452));
#435 = ORIENTED_EDGE('',*,*,#403,.T.);
#436 = ORIENTED_EDGE('',*,*,#437,.T.);
#437 = EDGE_CURVE('',#406,#438,#440,.T.);
#438 = VERTEX_POINT('',#439);
#439 = CARTESIAN_POINT('',(4.75,0.,1.2));
#440 = LINE('',#441,#442);
#441 = CARTESIAN_POINT('',(4.75,2.6,1.2));
#442 = VECTOR('',#443,1.);
#443 = DIRECTION('',(0.,-1.,0.));
#444 = ORIENTED_EDGE('',*,*,#445,.F.);
#445 = EDGE_CURVE('',#446,#438,#448,.T.);
#446 = VERTEX_POINT('',#447);
#447 = CARTESIAN_POINT('',(4.75,0.,0.));
#448 = LINE('',#449,#450);
#449 = CARTESIAN_POINT('',(4.75,0.,0.));
#450 = VECTOR('',#451,1.);
#451 = DIRECTION('',(0.,0.,1.));
#452 = ORIENTED_EDGE('',*,*,#453,.F.);
#453 = EDGE_CURVE('',#404,#446,#454,.T.);
#454 = LINE('',#455,#456);
#455 = CARTESIAN_POINT('',(4.75,2.6,0.));
#456 = VECTOR('',#457,1.);
#457 = DIRECTION('',(0.,-1.,0.));
#458 = PLANE('',#459);
#459 = AXIS2_PLACEMENT_3D('',#460,#461,#462);
#460 = CARTESIAN_POINT('',(4.75,2.6,0.));
#461 = DIRECTION('',(1.,0.,0.));
#462 = DIRECTION('',(0.,-1.,0.));
#463 = ADVANCED_FACE('',(#464),#489,.F.);
#464 = FACE_BOUND('',#465,.F.);
#465 = EDGE_LOOP('',(#466,#467,#475,#483));
#466 = ORIENTED_EDGE('',*,*,#445,.T.);
#467 = ORIENTED_EDGE('',*,*,#468,.T.);
#468 = EDGE_CURVE('',#438,#469,#471,.T.);
#469 = VERTEX_POINT('',#470);
#470 = CARTESIAN_POINT('',(6.29,0.,1.2));
#471 = LINE('',#472,#473);
#472 = CARTESIAN_POINT('',(4.75,0.,1.2));
#473 = VECTOR('',#474,1.);
#474 = DIRECTION('',(1.,0.,0.));
#475 = ORIENTED_EDGE('',*,*,#476,.F.);
#476 = EDGE_CURVE('',#477,#469,#479,.T.);
#477 = VERTEX_POINT('',#478);
#478 = CARTESIAN_POINT('',(6.29,0.,0.));
#479 = LINE('',#480,#481);
#480 = CARTESIAN_POINT('',(6.29,0.,0.));
#481 = VECTOR('',#482,1.);
#482 = DIRECTION('',(0.,0.,1.));
#483 = ORIENTED_EDGE('',*,*,#484,.F.);
#484 = EDGE_CURVE('',#446,#477,#485,.T.);
#485 = LINE('',#486,#487);
#486 = CARTESIAN_POINT('',(4.75,0.,0.));
#487 = VECTOR('',#488,1.);
#488 = DIRECTION('',(1.,0.,0.));
#489 = PLANE('',#490);
#490 = AXIS2_PLACEMENT_3D('',#491,#492,#493);
#491 = CARTESIAN_POINT('',(4.75,0.,0.));
#492 = DIRECTION('',(0.,1.,0.));
#493 = DIRECTION('',(1.,0.,0.));
#494 = ADVANCED_FACE('',(#495),#520,.F.);
#495 = FACE_BOUND('',#496,.F.);
#496 = EDGE_LOOP('',(#497,#498,#506,#514));
#497 = ORIENTED_EDGE('',*,*,#476,.T.);
#498 = ORIENTED_EDGE('',*,*,#499,.T.);
#499 = EDGE_CURVE('',#469,#500,#502,.T.);
#500 = VERTEX_POINT('',#501);
#501 = CARTESIAN_POINT('',(6.29,2.6,1.2));
#502 = LINE('',#503,#504);
#503 = CARTESIAN_POINT('',(6.29,0.,1.2));
#504 = VECTOR('',#505,1.);
#505 = DIRECTION('',(0.,1.,0.));
#506 = ORIENTED_EDGE('',*,*,#507,.F.);
#507 = EDGE_CURVE('',#508,#500,#510,.T.);
#508 = VERTEX_POINT('',#509);
#509 = CARTESIAN_POINT('',(6.29,2.6,0.));
#510 = LINE('',#511,#512);
#511 = CARTESIAN_POINT('',(6.29,2.6,0.));
#512 = VECTOR('',#513,1.);
#513 = DIRECTION('',(0.,0.,1.));
#514 = ORIENTED_EDGE('',*,*,#515,.F.);
#515 = EDGE_CURVE('',#477,#508,#516,.T.);
#516 = LINE('',#517,#518);
#517 = CARTESIAN_POINT('',(6.29,0.,0.));
#518 = VECTOR('',#519,1.);
#519 = DIRECTION('',(0.,1.,0.));
#520 = PLANE('',#521);
#521 = AXIS2_PLACEMENT_3D('',#522,#523,#524);
#522 = CARTESIAN_POINT('',(6.29,0.,0.));
#523 = DIRECTION('',(-1.,0.,0.));
#524 = DIRECTION('',(0.,1.,0.));
#525 = ADVANCED_FACE('',(#526),#553,.F.);
#526 = FACE_BOUND('',#527,.T.);
#527 = EDGE_LOOP('',(#528,#538,#545,#546));
#528 = ORIENTED_EDGE('',*,*,#529,.T.);
#529 = EDGE_CURVE('',#530,#532,#534,.T.);
#530 = VERTEX_POINT('',#531);
#531 = CARTESIAN_POINT('',(6.49,2.8,0.));
#532 = VERTEX_POINT('',#533);
#533 = CARTESIAN_POINT('',(6.49,2.8,1.2));
#534 = LINE('',#535,#536);
#535 = CARTESIAN_POINT('',(6.49,2.8,0.));
#536 = VECTOR('',#537,1.);
#537 = DIRECTION('',(0.,0.,1.));
#538 = ORIENTED_EDGE('',*,*,#539,.T.);
#539 = EDGE_CURVE('',#532,#500,#540,.T.);
#540 = CIRCLE('',#541,0.2);
#541 = AXIS2_PLACEMENT_3D('',#542,#543,#544);
#542 = CARTESIAN_POINT('',(6.49,2.6,1.2));
#543 = DIRECTION('',(0.,0.,1.));
#544 = DIRECTION('',(1.,0.,0.));
#545 = ORIENTED_EDGE('',*,*,#507,.F.);
#546 = ORIENTED_EDGE('',*,*,#547,.F.);
#547 = EDGE_CURVE('',#530,#508,#548,.T.);
#548 = CIRCLE('',#549,0.2);
#549 = AXIS2_PLACEMENT_3D('',#550,#551,#552);
#550 = CARTESIAN_POINT('',(6.49,2.6,0.));
#551 = DIRECTION('',(0.,0.,1.));
#552 = DIRECTION('',(1.,0.,0.));
#553 = CYLINDRICAL_SURFACE('',#554,0.2);
#554 = AXIS2_PLACEMENT_3D('',#555,#556,#557);
#555 = CARTESIAN_POINT('',(6.49,2.6,0.));
#556 = DIRECTION('',(-0.,-0.,-1.));
#557 = DIRECTION('',(1.,0.,0.));
#558 = ADVANCED_FACE('',(#559),#584,.T.);
#559 = FACE_BOUND('',#560,.T.);
#560 = EDGE_LOOP('',(#561,#571,#577,#578));
#561 = ORIENTED_EDGE('',*,*,#562,.T.);
#562 = EDGE_CURVE('',#563,#565,#567,.T.);
#563 = VERTEX_POINT('',#564);
#564 = CARTESIAN_POINT('',(9.299999999999,2.8,0.));
#565 = VERTEX_POINT('',#566);
#566 = CARTESIAN_POINT('',(9.299999999999,2.8,1.2));
#567 = LINE('',#568,#569);
#568 = CARTESIAN_POINT('',(9.299999999999,2.8,0.));
#569 = VECTOR('',#570,1.);
#570 = DIRECTION('',(0.,0.,1.));
#571 = ORIENTED_EDGE('',*,*,#572,.T.);
#572 = EDGE_CURVE('',#565,#532,#573,.T.);
#573 = LINE('',#574,#575);
#574 = CARTESIAN_POINT('',(9.299999999999,2.8,1.2));
#575 = VECTOR('',#576,1.);
#576 = DIRECTION('',(-1.,0.,0.));
#577 = ORIENTED_EDGE('',*,*,#529,.F.);
#578 = ORIENTED_EDGE('',*,*,#579,.F.);
#579 = EDGE_CURVE('',#563,#530,#580,.T.);
#580 = LINE('',#581,#582);
#581 = CARTESIAN_POINT('',(9.299999999999,2.8,0.));
#582 = VECTOR('',#583,1.);
#583 = DIRECTION('',(-1.,0.,0.));
#584 = PLANE('',#585);
#585 = AXIS2_PLACEMENT_3D('',#586,#587,#588);
#586 = CARTESIAN_POINT('',(9.299999999999,2.8,0.));
#587 = DIRECTION('',(0.,-1.,0.));
#588 = DIRECTION('',(-1.,0.,0.));
#589 = ADVANCED_FACE('',(#590),#617,.F.);
#590 = FACE_BOUND('',#591,.T.);
#591 = EDGE_LOOP('',(#592,#602,#609,#610));
#592 = ORIENTED_EDGE('',*,*,#593,.T.);
#593 = EDGE_CURVE('',#594,#596,#598,.T.);
#594 = VERTEX_POINT('',#595);
#595 = CARTESIAN_POINT('',(9.499999999999,2.6,0.));
#596 = VERTEX_POINT('',#597);
#597 = CARTESIAN_POINT('',(9.499999999999,2.6,1.2));
#598 = LINE('',#599,#600);
#599 = CARTESIAN_POINT('',(9.499999999999,2.6,0.));
#600 = VECTOR('',#601,1.);
#601 = DIRECTION('',(0.,0.,1.));
#602 = ORIENTED_EDGE('',*,*,#603,.T.);
#603 = EDGE_CURVE('',#596,#565,#604,.T.);
#604 = CIRCLE('',#605,0.2);
#605 = AXIS2_PLACEMENT_3D('',#606,#607,#608);
#606 = CARTESIAN_POINT('',(9.299999999999,2.6,1.2));
#607 = DIRECTION('',(0.,0.,1.));
#608 = DIRECTION('',(1.,0.,0.));
#609 = ORIENTED_EDGE('',*,*,#562,.F.);
#610 = ORIENTED_EDGE('',*,*,#611,.F.);
#611 = EDGE_CURVE('',#594,#563,#612,.T.);
#612 = CIRCLE('',#613,0.2);
#613 = AXIS2_PLACEMENT_3D('',#614,#615,#616);
#614 = CARTESIAN_POINT('',(9.299999999999,2.6,0.));
#615 = DIRECTION('',(0.,0.,1.));
#616 = DIRECTION('',(1.,0.,0.));
#617 = CYLINDRICAL_SURFACE('',#618,0.2);
#618 = AXIS2_PLACEMENT_3D('',#619,#620,#621);
#619 = CARTESIAN_POINT('',(9.299999999999,2.6,0.));
#620 = DIRECTION('',(-0.,-0.,-1.));
#621 = DIRECTION('',(1.,0.,0.));
#622 = ADVANCED_FACE('',(#623),#648,.F.);
#623 = FACE_BOUND('',#624,.F.);
#624 = EDGE_LOOP('',(#625,#626,#634,#642));
#625 = ORIENTED_EDGE('',*,*,#593,.T.);
#626 = ORIENTED_EDGE('',*,*,#627,.T.);
#627 = EDGE_CURVE('',#596,#628,#630,.T.);
#628 = VERTEX_POINT('',#629);
#629 = CARTESIAN_POINT('',(9.499999999999,2.168404344971E-19,1.2));
#630 = LINE('',#631,#632);
#631 = CARTESIAN_POINT('',(9.499999999999,2.6,1.2));
#632 = VECTOR('',#633,1.);
#633 = DIRECTION('',(0.,-1.,0.));
#634 = ORIENTED_EDGE('',*,*,#635,.F.);
#635 = EDGE_CURVE('',#636,#628,#638,.T.);
#636 = VERTEX_POINT('',#637);
#637 = CARTESIAN_POINT('',(9.499999999999,2.168404344971E-19,0.));
#638 = LINE('',#639,#640);
#639 = CARTESIAN_POINT('',(9.499999999999,2.168404344971E-19,0.));
#640 = VECTOR('',#641,1.);
#641 = DIRECTION('',(0.,0.,1.));
#642 = ORIENTED_EDGE('',*,*,#643,.F.);
#643 = EDGE_CURVE('',#594,#636,#644,.T.);
#644 = LINE('',#645,#646);
#645 = CARTESIAN_POINT('',(9.499999999999,2.6,0.));
#646 = VECTOR('',#647,1.);
#647 = DIRECTION('',(0.,-1.,0.));
#648 = PLANE('',#649);
#649 = AXIS2_PLACEMENT_3D('',#650,#651,#652);
#650 = CARTESIAN_POINT('',(9.499999999999,2.6,0.));
#651 = DIRECTION('',(1.,0.,0.));
#652 = DIRECTION('',(0.,-1.,0.));
#653 = ADVANCED_FACE('',(#654),#679,.F.);
#654 = FACE_BOUND('',#655,.F.);
#655 = EDGE_LOOP('',(#656,#657,#665,#673));
#656 = ORIENTED_EDGE('',*,*,#635,.T.);
#657 = ORIENTED_EDGE('',*,*,#658,.T.);
#658 = EDGE_CURVE('',#628,#659,#661,.T.);
#659 = VERTEX_POINT('',#660);
#660 = CARTESIAN_POINT('',(11.040000000001,4.336808689942E-19,1.2));
#661 = LINE('',#662,#663);
#662 = CARTESIAN_POINT('',(9.499999999999,4.336808689942E-19,1.2));
#663 = VECTOR('',#664,1.);
#664 = DIRECTION('',(1.,0.,0.));
#665 = ORIENTED_EDGE('',*,*,#666,.F.);
#666 = EDGE_CURVE('',#667,#659,#669,.T.);
#667 = VERTEX_POINT('',#668);
#668 = CARTESIAN_POINT('',(11.040000000001,4.336808689942E-19,0.));
#669 = LINE('',#670,#671);
#670 = CARTESIAN_POINT('',(11.040000000001,4.336808689942E-19,0.));
#671 = VECTOR('',#672,1.);
#672 = DIRECTION('',(0.,0.,1.));
#673 = ORIENTED_EDGE('',*,*,#674,.F.);
#674 = EDGE_CURVE('',#636,#667,#675,.T.);
#675 = LINE('',#676,#677);
#676 = CARTESIAN_POINT('',(9.499999999999,4.336808689942E-19,0.));
#677 = VECTOR('',#678,1.);
#678 = DIRECTION('',(1.,0.,0.));
#679 = PLANE('',#680);
#680 = AXIS2_PLACEMENT_3D('',#681,#682,#683);
#681 = CARTESIAN_POINT('',(9.499999999999,4.336808689942E-19,0.));
#682 = DIRECTION('',(0.,1.,0.));
#683 = DIRECTION('',(1.,0.,0.));
#684 = ADVANCED_FACE('',(#685),#710,.F.);
#685 = FACE_BOUND('',#686,.F.);
#686 = EDGE_LOOP('',(#687,#688,#696,#704));
#687 = ORIENTED_EDGE('',*,*,#666,.T.);
#688 = ORIENTED_EDGE('',*,*,#689,.T.);
#689 = EDGE_CURVE('',#659,#690,#692,.T.);
#690 = VERTEX_POINT('',#691);
#691 = CARTESIAN_POINT('',(11.040000000001,2.6,1.2));
#692 = LINE('',#693,#694);
#693 = CARTESIAN_POINT('',(11.040000000001,4.336808689942E-19,1.2));
#694 = VECTOR('',#695,1.);
#695 = DIRECTION('',(0.,1.,0.));
#696 = ORIENTED_EDGE('',*,*,#697,.F.);
#697 = EDGE_CURVE('',#698,#690,#700,.T.);
#698 = VERTEX_POINT('',#699);
#699 = CARTESIAN_POINT('',(11.040000000001,2.6,0.));
#700 = LINE('',#701,#702);
#701 = CARTESIAN_POINT('',(11.040000000001,2.6,0.));
#702 = VECTOR('',#703,1.);
#703 = DIRECTION('',(0.,0.,1.));
#704 = ORIENTED_EDGE('',*,*,#705,.F.);
#705 = EDGE_CURVE('',#667,#698,#706,.T.);
#706 = LINE('',#707,#708);
#707 = CARTESIAN_POINT('',(11.040000000001,4.336808689942E-19,0.));
#708 = VECTOR('',#709,1.);
#709 = DIRECTION('',(0.,1.,0.));
#710 = PLANE('',#711);
#711 = AXIS2_PLACEMENT_3D('',#712,#713,#714);
#712 = CARTESIAN_POINT('',(11.040000000001,4.336808689942E-19,0.));
#713 = DIRECTION('',(-1.,0.,0.));
#714 = DIRECTION('',(0.,1.,0.));
#715 = ADVANCED_FACE('',(#716),#743,.F.);
#716 = FACE_BOUND('',#717,.T.);
#717 = EDGE_LOOP('',(#718,#728,#735,#736));
#718 = ORIENTED_EDGE('',*,*,#719,.T.);
#719 = EDGE_CURVE('',#720,#722,#724,.T.);
#720 = VERTEX_POINT('',#721);
#721 = CARTESIAN_POINT('',(11.240000000001,2.8,0.));
#722 = VERTEX_POINT('',#723);
#723 = CARTESIAN_POINT('',(11.240000000001,2.8,1.2));
#724 = LINE('',#725,#726);
#725 = CARTESIAN_POINT('',(11.240000000001,2.8,0.));
#726 = VECTOR('',#727,1.);
#727 = DIRECTION('',(0.,0.,1.));
#728 = ORIENTED_EDGE('',*,*,#729,.T.);
#729 = EDGE_CURVE('',#722,#690,#730,.T.);
#730 = CIRCLE('',#731,0.2);
#731 = AXIS2_PLACEMENT_3D('',#732,#733,#734);
#732 = CARTESIAN_POINT('',(11.240000000001,2.6,1.2));
#733 = DIRECTION('',(0.,0.,1.));
#734 = DIRECTION('',(1.,0.,0.));
#735 = ORIENTED_EDGE('',*,*,#697,.F.);
#736 = ORIENTED_EDGE('',*,*,#737,.F.);
#737 = EDGE_CURVE('',#720,#698,#738,.T.);
#738 = CIRCLE('',#739,0.2);
#739 = AXIS2_PLACEMENT_3D('',#740,#741,#742);
#740 = CARTESIAN_POINT('',(11.240000000001,2.6,0.));
#741 = DIRECTION('',(0.,0.,1.));
#742 = DIRECTION('',(1.,0.,0.));
#743 = CYLINDRICAL_SURFACE('',#744,0.2);
#744 = AXIS2_PLACEMENT_3D('',#745,#746,#747);
#745 = CARTESIAN_POINT('',(11.240000000001,2.6,0.));
#746 = DIRECTION('',(-0.,-0.,-1.));
#747 = DIRECTION('',(1.,0.,0.));
#748 = ADVANCED_FACE('',(#749),#774,.T.);
#749 = FACE_BOUND('',#750,.T.);
#750 = EDGE_LOOP('',(#751,#761,#767,#768));
#751 = ORIENTED_EDGE('',*,*,#752,.T.);
#752 = EDGE_CURVE('',#753,#755,#757,.T.);
#753 = VERTEX_POINT('',#754);
#754 = CARTESIAN_POINT('',(14.049999999999,2.8,0.));
#755 = VERTEX_POINT('',#756);
#756 = CARTESIAN_POINT('',(14.049999999999,2.8,1.2));
#757 = LINE('',#758,#759);
#758 = CARTESIAN_POINT('',(14.049999999999,2.8,0.));
#759 = VECTOR('',#760,1.);
#760 = DIRECTION('',(0.,0.,1.));
#761 = ORIENTED_EDGE('',*,*,#762,.T.);
#762 = EDGE_CURVE('',#755,#722,#763,.T.);
#763 = LINE('',#764,#765);
#764 = CARTESIAN_POINT('',(14.049999999999,2.8,1.2));
#765 = VECTOR('',#766,1.);
#766 = DIRECTION('',(-1.,0.,0.));
#767 = ORIENTED_EDGE('',*,*,#719,.F.);
#768 = ORIENTED_EDGE('',*,*,#769,.F.);
#769 = EDGE_CURVE('',#753,#720,#770,.T.);
#770 = LINE('',#771,#772);
#771 = CARTESIAN_POINT('',(14.049999999999,2.8,0.));
#772 = VECTOR('',#773,1.);
#773 = DIRECTION('',(-1.,0.,0.));
#774 = PLANE('',#775);
#775 = AXIS2_PLACEMENT_3D('',#776,#777,#778);
#776 = CARTESIAN_POINT('',(14.049999999999,2.8,0.));
#777 = DIRECTION('',(0.,-1.,0.));
#778 = DIRECTION('',(-1.,0.,0.));
#779 = ADVANCED_FACE('',(#780),#807,.F.);
#780 = FACE_BOUND('',#781,.T.);
#781 = EDGE_LOOP('',(#782,#792,#799,#800));
#782 = ORIENTED_EDGE('',*,*,#783,.T.);
#783 = EDGE_CURVE('',#784,#786,#788,.T.);
#784 = VERTEX_POINT('',#785);
#785 = CARTESIAN_POINT('',(14.249999999999,2.6,0.));
#786 = VERTEX_POINT('',#787);
#787 = CARTESIAN_POINT('',(14.249999999999,2.6,1.2));
#788 = LINE('',#789,#790);
#789 = CARTESIAN_POINT('',(14.249999999999,2.6,0.));
#790 = VECTOR('',#791,1.);
#791 = DIRECTION('',(0.,0.,1.));
#792 = ORIENTED_EDGE('',*,*,#793,.T.);
#793 = EDGE_CURVE('',#786,#755,#794,.T.);
#794 = CIRCLE('',#795,0.2);
#795 = AXIS2_PLACEMENT_3D('',#796,#797,#798);
#796 = CARTESIAN_POINT('',(14.049999999999,2.6,1.2));
#797 = DIRECTION('',(0.,0.,1.));
#798 = DIRECTION('',(1.,0.,0.));
#799 = ORIENTED_EDGE('',*,*,#752,.F.);
#800 = ORIENTED_EDGE('',*,*,#801,.F.);
#801 = EDGE_CURVE('',#784,#753,#802,.T.);
#802 = CIRCLE('',#803,0.2);
#803 = AXIS2_PLACEMENT_3D('',#804,#805,#806);
#804 = CARTESIAN_POINT('',(14.049999999999,2.6,0.));
#805 = DIRECTION('',(0.,0.,1.));
#806 = DIRECTION('',(1.,0.,0.));
#807 = CYLINDRICAL_SURFACE('',#808,0.2);
#808 = AXIS2_PLACEMENT_3D('',#809,#810,#811);
#809 = CARTESIAN_POINT('',(14.049999999999,2.6,0.));
#810 = DIRECTION('',(-0.,-0.,-1.));
#811 = DIRECTION('',(1.,0.,0.));
#812 = ADVANCED_FACE('',(#813),#838,.F.);
#813 = FACE_BOUND('',#814,.F.);
#814 = EDGE_LOOP('',(#815,#816,#824,#832));
#815 = ORIENTED_EDGE('',*,*,#783,.T.);
#816 = ORIENTED_EDGE('',*,*,#817,.T.);
#817 = EDGE_CURVE('',#786,#818,#820,.T.);
#818 = VERTEX_POINT('',#819);
#819 = CARTESIAN_POINT('',(14.249999999999,0.,1.2));
#820 = LINE('',#821,#822);
#821 = CARTESIAN_POINT('',(14.249999999999,2.6,1.2));
#822 = VECTOR('',#823,1.);
#823 = DIRECTION('',(0.,-1.,0.));
#824 = ORIENTED_EDGE('',*,*,#825,.F.);
#825 = EDGE_CURVE('',#826,#818,#828,.T.);
#826 = VERTEX_POINT('',#827);
#827 = CARTESIAN_POINT('',(14.249999999999,0.,0.));
#828 = LINE('',#829,#830);
#829 = CARTESIAN_POINT('',(14.249999999999,0.,0.));
#830 = VECTOR('',#831,1.);
#831 = DIRECTION('',(0.,0.,1.));
#832 = ORIENTED_EDGE('',*,*,#833,.F.);
#833 = EDGE_CURVE('',#784,#826,#834,.T.);
#834 = LINE('',#835,#836);
#835 = CARTESIAN_POINT('',(14.249999999999,2.6,0.));
#836 = VECTOR('',#837,1.);
#837 = DIRECTION('',(0.,-1.,0.));
#838 = PLANE('',#839);
#839 = AXIS2_PLACEMENT_3D('',#840,#841,#842);
#840 = CARTESIAN_POINT('',(14.249999999999,2.6,0.));
#841 = DIRECTION('',(1.,0.,0.));
#842 = DIRECTION('',(0.,-1.,0.));
#843 = ADVANCED_FACE('',(#844),#869,.F.);
#844 = FACE_BOUND('',#845,.F.);
#845 = EDGE_LOOP('',(#846,#847,#855,#863));
#846 = ORIENTED_EDGE('',*,*,#825,.T.);
#847 = ORIENTED_EDGE('',*,*,#848,.T.);
#848 = EDGE_CURVE('',#818,#849,#851,.T.);
#849 = VERTEX_POINT('',#850);
#850 = CARTESIAN_POINT('',(15.790000000001,0.,1.2));
#851 = LINE('',#852,#853);
#852 = CARTESIAN_POINT('',(14.249999999999,0.,1.2));
#853 = VECTOR('',#854,1.);
#854 = DIRECTION('',(1.,0.,0.));
#855 = ORIENTED_EDGE('',*,*,#856,.F.);
#856 = EDGE_CURVE('',#857,#849,#859,.T.);
#857 = VERTEX_POINT('',#858);
#858 = CARTESIAN_POINT('',(15.790000000001,0.,0.));
#859 = LINE('',#860,#861);
#860 = CARTESIAN_POINT('',(15.790000000001,0.,0.));
#861 = VECTOR('',#862,1.);
#862 = DIRECTION('',(0.,0.,1.));
#863 = ORIENTED_EDGE('',*,*,#864,.F.);
#864 = EDGE_CURVE('',#826,#857,#865,.T.);
#865 = LINE('',#866,#867);
#866 = CARTESIAN_POINT('',(14.249999999999,0.,0.));
#867 = VECTOR('',#868,1.);
#868 = DIRECTION('',(1.,0.,0.));
#869 = PLANE('',#870);
#870 = AXIS2_PLACEMENT_3D('',#871,#872,#873);
#871 = CARTESIAN_POINT('',(14.249999999999,0.,0.));
#872 = DIRECTION('',(0.,1.,0.));
#873 = DIRECTION('',(1.,0.,0.));
#874 = ADVANCED_FACE('',(#875),#900,.F.);
#875 = FACE_BOUND('',#876,.F.);
#876 = EDGE_LOOP('',(#877,#878,#886,#894));
#877 = ORIENTED_EDGE('',*,*,#856,.T.);
#878 = ORIENTED_EDGE('',*,*,#879,.T.);
#879 = EDGE_CURVE('',#849,#880,#882,.T.);
#880 = VERTEX_POINT('',#881);
#881 = CARTESIAN_POINT('',(15.790000000001,2.6,1.2));
#882 = LINE('',#883,#884);
#883 = CARTESIAN_POINT('',(15.790000000001,0.,1.2));
#884 = VECTOR('',#885,1.);
#885 = DIRECTION('',(0.,1.,0.));
#886 = ORIENTED_EDGE('',*,*,#887,.F.);
#887 = EDGE_CURVE('',#888,#880,#890,.T.);
#888 = VERTEX_POINT('',#889);
#889 = CARTESIAN_POINT('',(15.790000000001,2.6,0.));
#890 = LINE('',#891,#892);
#891 = CARTESIAN_POINT('',(15.790000000001,2.6,0.));
#892 = VECTOR('',#893,1.);
#893 = DIRECTION('',(0.,0.,1.));
#894 = ORIENTED_EDGE('',*,*,#895,.F.);
#895 = EDGE_CURVE('',#857,#888,#896,.T.);
#896 = LINE('',#897,#898);
#897 = CARTESIAN_POINT('',(15.790000000001,0.,0.));
#898 = VECTOR('',#899,1.);
#899 = DIRECTION('',(0.,1.,0.));
#900 = PLANE('',#901);
#901 = AXIS2_PLACEMENT_3D('',#902,#903,#904);
#902 = CARTESIAN_POINT('',(15.790000000001,0.,0.));
#903 = DIRECTION('',(-1.,0.,0.));
#904 = DIRECTION('',(0.,1.,0.));
#905 = ADVANCED_FACE('',(#906),#933,.F.);
#906 = FACE_BOUND('',#907,.T.);
#907 = EDGE_LOOP('',(#908,#918,#925,#926));
#908 = ORIENTED_EDGE('',*,*,#909,.T.);
#909 = EDGE_CURVE('',#910,#912,#914,.T.);
#910 = VERTEX_POINT('',#911);
#911 = CARTESIAN_POINT('',(15.990000000001,2.8,0.));
#912 = VERTEX_POINT('',#913);
#913 = CARTESIAN_POINT('',(15.990000000001,2.8,1.2));
#914 = LINE('',#915,#916);
#915 = CARTESIAN_POINT('',(15.990000000001,2.8,0.));
#916 = VECTOR('',#917,1.);
#917 = DIRECTION('',(0.,0.,1.));
#918 = ORIENTED_EDGE('',*,*,#919,.T.);
#919 = EDGE_CURVE('',#912,#880,#920,.T.);
#920 = CIRCLE('',#921,0.2);
#921 = AXIS2_PLACEMENT_3D('',#922,#923,#924);
#922 = CARTESIAN_POINT('',(15.990000000001,2.6,1.2));
#923 = DIRECTION('',(0.,0.,1.));
#924 = DIRECTION('',(1.,0.,0.));
#925 = ORIENTED_EDGE('',*,*,#887,.F.);
#926 = ORIENTED_EDGE('',*,*,#927,.F.);
#927 = EDGE_CURVE('',#910,#888,#928,.T.);
#928 = CIRCLE('',#929,0.2);
#929 = AXIS2_PLACEMENT_3D('',#930,#931,#932);
#930 = CARTESIAN_POINT('',(15.990000000001,2.6,0.));
#931 = DIRECTION('',(0.,0.,1.));
#932 = DIRECTION('',(1.,0.,0.));
#933 = CYLINDRICAL_SURFACE('',#934,0.2);
#934 = AXIS2_PLACEMENT_3D('',#935,#936,#937);
#935 = CARTESIAN_POINT('',(15.990000000001,2.6,0.));
#936 = DIRECTION('',(-0.,-0.,-1.));
#937 = DIRECTION('',(1.,0.,0.));
#938 = ADVANCED_FACE('',(#939),#964,.T.);
#939 = FACE_BOUND('',#940,.T.);
#940 = EDGE_LOOP('',(#941,#951,#957,#958));
#941 = ORIENTED_EDGE('',*,*,#942,.T.);
#942 = EDGE_CURVE('',#943,#945,#947,.T.);
#943 = VERTEX_POINT('',#944);
#944 = CARTESIAN_POINT('',(28.249999999999,2.8,0.));
#945 = VERTEX_POINT('',#946);
#946 = CARTESIAN_POINT('',(28.249999999999,2.8,1.2));
#947 = LINE('',#948,#949);
#948 = CARTESIAN_POINT('',(28.249999999999,2.8,0.));
#949 = VECTOR('',#950,1.);
#950 = DIRECTION('',(0.,0.,1.));
#951 = ORIENTED_EDGE('',*,*,#952,.T.);
#952 = EDGE_CURVE('',#945,#912,#953,.T.);
#953 = LINE('',#954,#955);
#954 = CARTESIAN_POINT('',(28.249999999999,2.8,1.2));
#955 = VECTOR('',#956,1.);
#956 = DIRECTION('',(-1.,0.,0.));
#957 = ORIENTED_EDGE('',*,*,#909,.F.);
#958 = ORIENTED_EDGE('',*,*,#959,.F.);
#959 = EDGE_CURVE('',#943,#910,#960,.T.);
#960 = LINE('',#961,#962);
#961 = CARTESIAN_POINT('',(28.249999999999,2.8,0.));
#962 = VECTOR('',#963,1.);
#963 = DIRECTION('',(-1.,0.,0.));
#964 = PLANE('',#965);
#965 = AXIS2_PLACEMENT_3D('',#966,#967,#968);
#966 = CARTESIAN_POINT('',(28.249999999999,2.8,0.));
#967 = DIRECTION('',(0.,-1.,0.));
#968 = DIRECTION('',(-1.,0.,0.));
#969 = ADVANCED_FACE('',(#970),#997,.F.);
#970 = FACE_BOUND('',#971,.T.);
#971 = EDGE_LOOP('',(#972,#982,#989,#990));
#972 = ORIENTED_EDGE('',*,*,#973,.T.);
#973 = EDGE_CURVE('',#974,#976,#978,.T.);
#974 = VERTEX_POINT('',#975);
#975 = CARTESIAN_POINT('',(28.449999999999,2.6,0.));
#976 = VERTEX_POINT('',#977);
#977 = CARTESIAN_POINT('',(28.449999999999,2.6,1.2));
#978 = LINE('',#979,#980);
#979 = CARTESIAN_POINT('',(28.449999999999,2.6,0.));
#980 = VECTOR('',#981,1.);
#981 = DIRECTION('',(0.,0.,1.));
#982 = ORIENTED_EDGE('',*,*,#983,.T.);
#983 = EDGE_CURVE('',#976,#945,#984,.T.);
#984 = CIRCLE('',#985,0.2);
#985 = AXIS2_PLACEMENT_3D('',#986,#987,#988);
#986 = CARTESIAN_POINT('',(28.249999999999,2.6,1.2));
#987 = DIRECTION('',(0.,0.,1.));
#988 = DIRECTION('',(1.,0.,0.));
#989 = ORIENTED_EDGE('',*,*,#942,.F.);
#990 = ORIENTED_EDGE('',*,*,#991,.F.);
#991 = EDGE_CURVE('',#974,#943,#992,.T.);
#992 = CIRCLE('',#993,0.2);
#993 = AXIS2_PLACEMENT_3D('',#994,#995,#996);
#994 = CARTESIAN_POINT('',(28.249999999999,2.6,0.));
#995 = DIRECTION('',(0.,0.,1.));
#996 = DIRECTION('',(1.,0.,0.));
#997 = CYLINDRICAL_SURFACE('',#998,0.2);
#998 = AXIS2_PLACEMENT_3D('',#999,#1000,#1001);
#999 = CARTESIAN_POINT('',(28.249999999999,2.6,0.));
#1000 = DIRECTION('',(-0.,-0.,-1.));
#1001 = DIRECTION('',(1.,0.,0.));
#1002 = ADVANCED_FACE('',(#1003),#1028,.F.);
#1003 = FACE_BOUND('',#1004,.F.);
#1004 = EDGE_LOOP('',(#1005,#1006,#1014,#1022));
#1005 = ORIENTED_EDGE('',*,*,#973,.T.);
#1006 = ORIENTED_EDGE('',*,*,#1007,.T.);
#1007 = EDGE_CURVE('',#976,#1008,#1010,.T.);
#1008 = VERTEX_POINT('',#1009);
#1009 = CARTESIAN_POINT('',(28.449999999999,0.,1.2));
#1010 = LINE('',#1011,#1012);
#1011 = CARTESIAN_POINT('',(28.449999999999,2.6,1.2));
#1012 = VECTOR('',#1013,1.);
#1013 = DIRECTION('',(0.,-1.,0.));
#1014 = ORIENTED_EDGE('',*,*,#1015,.F.);
#1015 = EDGE_CURVE('',#1016,#1008,#1018,.T.);
#1016 = VERTEX_POINT('',#1017);
#1017 = CARTESIAN_POINT('',(28.449999999999,0.,0.));
#1018 = LINE('',#1019,#1020);
#1019 = CARTESIAN_POINT('',(28.449999999999,0.,0.));
#1020 = VECTOR('',#1021,1.);
#1021 = DIRECTION('',(0.,0.,1.));
#1022 = ORIENTED_EDGE('',*,*,#1023,.F.);
#1023 = EDGE_CURVE('',#974,#1016,#1024,.T.);
#1024 = LINE('',#1025,#1026);
#1025 = CARTESIAN_POINT('',(28.449999999999,2.6,0.));
#1026 = VECTOR('',#1027,1.);
#1027 = DIRECTION('',(0.,-1.,0.));
#1028 = PLANE('',#1029);
#1029 = AXIS2_PLACEMENT_3D('',#1030,#1031,#1032);
#1030 = CARTESIAN_POINT('',(28.449999999999,2.6,0.));
#1031 = DIRECTION('',(1.,0.,0.));
#1032 = DIRECTION('',(0.,-1.,0.));
#1033 = ADVANCED_FACE('',(#1034),#1059,.F.);
#1034 = FACE_BOUND('',#1035,.F.);
#1035 = EDGE_LOOP('',(#1036,#1037,#1045,#1053));
#1036 = ORIENTED_EDGE('',*,*,#1015,.T.);
#1037 = ORIENTED_EDGE('',*,*,#1038,.T.);
#1038 = EDGE_CURVE('',#1008,#1039,#1041,.T.);
#1039 = VERTEX_POINT('',#1040);
#1040 = CARTESIAN_POINT('',(29.990000000001,0.,1.2));
#1041 = LINE('',#1042,#1043);
#1042 = CARTESIAN_POINT('',(28.449999999999,0.,1.2));
#1043 = VECTOR('',#1044,1.);
#1044 = DIRECTION('',(1.,0.,0.));
#1045 = ORIENTED_EDGE('',*,*,#1046,.F.);
#1046 = EDGE_CURVE('',#1047,#1039,#1049,.T.);
#1047 = VERTEX_POINT('',#1048);
#1048 = CARTESIAN_POINT('',(29.990000000001,0.,0.));
#1049 = LINE('',#1050,#1051);
#1050 = CARTESIAN_POINT('',(29.990000000001,0.,0.));
#1051 = VECTOR('',#1052,1.);
#1052 = DIRECTION('',(0.,0.,1.));
#1053 = ORIENTED_EDGE('',*,*,#1054,.F.);
#1054 = EDGE_CURVE('',#1016,#1047,#1055,.T.);
#1055 = LINE('',#1056,#1057);
#1056 = CARTESIAN_POINT('',(28.449999999999,0.,0.));
#1057 = VECTOR('',#1058,1.);
#1058 = DIRECTION('',(1.,0.,0.));
#1059 = PLANE('',#1060);
#1060 = AXIS2_PLACEMENT_3D('',#1061,#1062,#1063);
#1061 = CARTESIAN_POINT('',(28.449999999999,0.,0.));
#1062 = DIRECTION('',(0.,1.,0.));
#1063 = DIRECTION('',(1.,0.,0.));
#1064 = ADVANCED_FACE('',(#1065),#1090,.F.);
#1065 = FACE_BOUND('',#1066,.F.);
#1066 = EDGE_LOOP('',(#1067,#1068,#1076,#1084));
#1067 = ORIENTED_EDGE('',*,*,#1046,.T.);
#1068 = ORIENTED_EDGE('',*,*,#1069,.T.);
#1069 = EDGE_CURVE('',#1039,#1070,#1072,.T.);
#1070 = VERTEX_POINT('',#1071);
#1071 = CARTESIAN_POINT('',(29.990000000001,2.6,1.2));
#1072 = LINE('',#1073,#1074);
#1073 = CARTESIAN_POINT('',(29.990000000001,0.,1.2));
#1074 = VECTOR('',#1075,1.);
#1075 = DIRECTION('',(0.,1.,0.));
#1076 = ORIENTED_EDGE('',*,*,#1077,.F.);
#1077 = EDGE_CURVE('',#1078,#1070,#1080,.T.);
#1078 = VERTEX_POINT('',#1079);
#1079 = CARTESIAN_POINT('',(29.990000000001,2.6,0.));
#1080 = LINE('',#1081,#1082);
#1081 = CARTESIAN_POINT('',(29.990000000001,2.6,0.));
#1082 = VECTOR('',#1083,1.);
#1083 = DIRECTION('',(0.,0.,1.));
#1084 = ORIENTED_EDGE('',*,*,#1085,.F.);
#1085 = EDGE_CURVE('',#1047,#1078,#1086,.T.);
#1086 = LINE('',#1087,#1088);
#1087 = CARTESIAN_POINT('',(29.990000000001,0.,0.));
#1088 = VECTOR('',#1089,1.);
#1089 = DIRECTION('',(0.,1.,0.));
#1090 = PLANE('',#1091);
#1091 = AXIS2_PLACEMENT_3D('',#1092,#1093,#1094);
#1092 = CARTESIAN_POINT('',(29.990000000001,0.,0.));
#1093 = DIRECTION('',(-1.,0.,0.));
#1094 = DIRECTION('',(0.,1.,0.));
#1095 = ADVANCED_FACE('',(#1096),#1123,.F.);
#1096 = FACE_BOUND('',#1097,.T.);
#1097 = EDGE_LOOP('',(#1098,#1108,#1115,#1116));
#1098 = ORIENTED_EDGE('',*,*,#1099,.T.);
#1099 = EDGE_CURVE('',#1100,#1102,#1104,.T.);
#1100 = VERTEX_POINT('',#1101);
#1101 = CARTESIAN_POINT('',(30.190000000001,2.8,0.));
#1102 = VERTEX_POINT('',#1103);
#1103 = CARTESIAN_POINT('',(30.190000000001,2.8,1.2));
#1104 = LINE('',#1105,#1106);
#1105 = CARTESIAN_POINT('',(30.190000000001,2.8,0.));
#1106 = VECTOR('',#1107,1.);
#1107 = DIRECTION('',(0.,0.,1.));
#1108 = ORIENTED_EDGE('',*,*,#1109,.T.);
#1109 = EDGE_CURVE('',#1102,#1070,#1110,.T.);
#1110 = CIRCLE('',#1111,0.2);
#1111 = AXIS2_PLACEMENT_3D('',#1112,#1113,#1114);
#1112 = CARTESIAN_POINT('',(30.190000000001,2.6,1.2));
#1113 = DIRECTION('',(0.,0.,1.));
#1114 = DIRECTION('',(1.,0.,0.));
#1115 = ORIENTED_EDGE('',*,*,#1077,.F.);
#1116 = ORIENTED_EDGE('',*,*,#1117,.F.);
#1117 = EDGE_CURVE('',#1100,#1078,#1118,.T.);
#1118 = CIRCLE('',#1119,0.2);
#1119 = AXIS2_PLACEMENT_3D('',#1120,#1121,#1122);
#1120 = CARTESIAN_POINT('',(30.190000000001,2.6,0.));
#1121 = DIRECTION('',(0.,0.,1.));
#1122 = DIRECTION('',(1.,0.,0.));
#1123 = CYLINDRICAL_SURFACE('',#1124,0.2);
#1124 = AXIS2_PLACEMENT_3D('',#1125,#1126,#1127);
#1125 = CARTESIAN_POINT('',(30.190000000001,2.6,0.));
#1126 = DIRECTION('',(-0.,-0.,-1.));
#1127 = DIRECTION('',(1.,0.,0.));
#1128 = ADVANCED_FACE('',(#1129),#1154,.F.);
#1129 = FACE_BOUND('',#1130,.F.);
#1130 = EDGE_LOOP('',(#1131,#1132,#1140,#1148));
#1131 = ORIENTED_EDGE('',*,*,#1099,.T.);
#1132 = ORIENTED_EDGE('',*,*,#1133,.T.);
#1133 = EDGE_CURVE('',#1102,#1134,#1136,.T.);
#1134 = VERTEX_POINT('',#1135);
#1135 = CARTESIAN_POINT('',(31.76,2.8,1.2));
#1136 = LINE('',#1137,#1138);
#1137 = CARTESIAN_POINT('',(30.190000000001,2.8,1.2));
#1138 = VECTOR('',#1139,1.);
#1139 = DIRECTION('',(1.,0.,0.));
#1140 = ORIENTED_EDGE('',*,*,#1141,.F.);
#1141 = EDGE_CURVE('',#1142,#1134,#1144,.T.);
#1142 = VERTEX_POINT('',#1143);
#1143 = CARTESIAN_POINT('',(31.76,2.8,0.));
#1144 = LINE('',#1145,#1146);
#1145 = CARTESIAN_POINT('',(31.76,2.8,0.));
#1146 = VECTOR('',#1147,1.);
#1147 = DIRECTION('',(0.,0.,1.));
#1148 = ORIENTED_EDGE('',*,*,#1149,.F.);
#1149 = EDGE_CURVE('',#1100,#1142,#1150,.T.);
#1150 = LINE('',#1151,#1152);
#1151 = CARTESIAN_POINT('',(30.190000000001,2.8,0.));
#1152 = VECTOR('',#1153,1.);
#1153 = DIRECTION('',(1.,0.,0.));
#1154 = PLANE('',#1155);
#1155 = AXIS2_PLACEMENT_3D('',#1156,#1157,#1158);
#1156 = CARTESIAN_POINT('',(30.190000000001,2.8,0.));
#1157 = DIRECTION('',(0.,1.,0.));
#1158 = DIRECTION('',(1.,0.,0.));
#1159 = ADVANCED_FACE('',(#1160),#1178,.F.);
#1160 = FACE_BOUND('',#1161,.T.);
#1161 = EDGE_LOOP('',(#1162,#1163,#1170,#1171));
#1162 = ORIENTED_EDGE('',*,*,#47,.T.);
#1163 = ORIENTED_EDGE('',*,*,#1164,.T.);
#1164 = EDGE_CURVE('',#50,#1134,#1165,.T.);
#1165 = CIRCLE('',#1166,0.2);
#1166 = AXIS2_PLACEMENT_3D('',#1167,#1168,#1169);
#1167 = CARTESIAN_POINT('',(31.76,2.6,1.2));
#1168 = DIRECTION('',(0.,0.,1.));
#1169 = DIRECTION('',(1.,0.,0.));
#1170 = ORIENTED_EDGE('',*,*,#1141,.F.);
#1171 = ORIENTED_EDGE('',*,*,#1172,.F.);
#1172 = EDGE_CURVE('',#48,#1142,#1173,.T.);
#1173 = CIRCLE('',#1174,0.2);
#1174 = AXIS2_PLACEMENT_3D('',#1175,#1176,#1177);
#1175 = CARTESIAN_POINT('',(31.76,2.6,0.));
#1176 = DIRECTION('',(0.,0.,1.));
#1177 = DIRECTION('',(1.,0.,0.));
#1178 = CYLINDRICAL_SURFACE('',#1179,0.2);
#1179 = AXIS2_PLACEMENT_3D('',#1180,#1181,#1182);
#1180 = CARTESIAN_POINT('',(31.76,2.6,0.));
#1181 = DIRECTION('',(-0.,-0.,-1.));
#1182 = DIRECTION('',(1.,0.,0.));
#1183 = ADVANCED_FACE('',(#1184),#1222,.F.);
#1184 = FACE_BOUND('',#1185,.F.);
#1185 = EDGE_LOOP('',(#1186,#1187,#1188,#1189,#1190,#1191,#1192,#1193,
    #1194,#1195,#1196,#1197,#1198,#1199,#1200,#1201,#1202,#1203,#1204,
    #1205,#1206,#1207,#1208,#1209,#1210,#1211,#1212,#1213,#1214,#1215,
    #1216,#1217,#1218,#1219,#1220,#1221));
#1186 = ORIENTED_EDGE('',*,*,#73,.T.);
#1187 = ORIENTED_EDGE('',*,*,#104,.T.);
#1188 = ORIENTED_EDGE('',*,*,#136,.T.);
#1189 = ORIENTED_EDGE('',*,*,#168,.T.);
#1190 = ORIENTED_EDGE('',*,*,#199,.T.);
#1191 = ORIENTED_EDGE('',*,*,#230,.T.);
#1192 = ORIENTED_EDGE('',*,*,#262,.T.);
#1193 = ORIENTED_EDGE('',*,*,#294,.T.);
#1194 = ORIENTED_EDGE('',*,*,#325,.T.);
#1195 = ORIENTED_EDGE('',*,*,#357,.F.);
#1196 = ORIENTED_EDGE('',*,*,#389,.F.);
#1197 = ORIENTED_EDGE('',*,*,#421,.F.);
#1198 = ORIENTED_EDGE('',*,*,#453,.T.);
#1199 = ORIENTED_EDGE('',*,*,#484,.T.);
#1200 = ORIENTED_EDGE('',*,*,#515,.T.);
#1201 = ORIENTED_EDGE('',*,*,#547,.F.);
#1202 = ORIENTED_EDGE('',*,*,#579,.F.);
#1203 = ORIENTED_EDGE('',*,*,#611,.F.);
#1204 = ORIENTED_EDGE('',*,*,#643,.T.);
#1205 = ORIENTED_EDGE('',*,*,#674,.T.);
#1206 = ORIENTED_EDGE('',*,*,#705,.T.);
#1207 = ORIENTED_EDGE('',*,*,#737,.F.);
#1208 = ORIENTED_EDGE('',*,*,#769,.F.);
#1209 = ORIENTED_EDGE('',*,*,#801,.F.);
#1210 = ORIENTED_EDGE('',*,*,#833,.T.);
#1211 = ORIENTED_EDGE('',*,*,#864,.T.);
#1212 = ORIENTED_EDGE('',*,*,#895,.T.);
#1213 = ORIENTED_EDGE('',*,*,#927,.F.);
#1214 = ORIENTED_EDGE('',*,*,#959,.F.);
#1215 = ORIENTED_EDGE('',*,*,#991,.F.);
#1216 = ORIENTED_EDGE('',*,*,#1023,.T.);
#1217 = ORIENTED_EDGE('',*,*,#1054,.T.);
#1218 = ORIENTED_EDGE('',*,*,#1085,.T.);
#1219 = ORIENTED_EDGE('',*,*,#1117,.F.);
#1220 = ORIENTED_EDGE('',*,*,#1149,.T.);
#1221 = ORIENTED_EDGE('',*,*,#1172,.F.);
#1222 = PLANE('',#1223);
#1223 = AXIS2_PLACEMENT_3D('',#1224,#1225,#1226);
#1224 = CARTESIAN_POINT('',(16.467487515354,8.78230669649,0.));
#1225 = DIRECTION('',(0.,0.,1.));
#1226 = DIRECTION('',(1.,0.,0.));
#1227 = ADVANCED_FACE('',(#1228),#1266,.T.);
#1228 = FACE_BOUND('',#1229,.T.);
#1229 = EDGE_LOOP('',(#1230,#1231,#1232,#1233,#1234,#1235,#1236,#1237,
    #1238,#1239,#1240,#1241,#1242,#1243,#1244,#1245,#1246,#1247,#1248,
    #1249,#1250,#1251,#1252,#1253,#1254,#1255,#1256,#1257,#1258,#1259,
    #1260,#1261,#1262,#1263,#1264,#1265));
#1230 = ORIENTED_EDGE('',*,*,#57,.T.);
#1231 = ORIENTED_EDGE('',*,*,#88,.T.);
#1232 = ORIENTED_EDGE('',*,*,#119,.T.);
#1233 = ORIENTED_EDGE('',*,*,#152,.T.);
#1234 = ORIENTED_EDGE('',*,*,#183,.T.);
#1235 = ORIENTED_EDGE('',*,*,#214,.T.);
#1236 = ORIENTED_EDGE('',*,*,#245,.T.);
#1237 = ORIENTED_EDGE('',*,*,#278,.T.);
#1238 = ORIENTED_EDGE('',*,*,#309,.T.);
#1239 = ORIENTED_EDGE('',*,*,#349,.F.);
#1240 = ORIENTED_EDGE('',*,*,#382,.F.);
#1241 = ORIENTED_EDGE('',*,*,#413,.F.);
#1242 = ORIENTED_EDGE('',*,*,#437,.T.);
#1243 = ORIENTED_EDGE('',*,*,#468,.T.);
#1244 = ORIENTED_EDGE('',*,*,#499,.T.);
#1245 = ORIENTED_EDGE('',*,*,#539,.F.);
#1246 = ORIENTED_EDGE('',*,*,#572,.F.);
#1247 = ORIENTED_EDGE('',*,*,#603,.F.);
#1248 = ORIENTED_EDGE('',*,*,#627,.T.);
#1249 = ORIENTED_EDGE('',*,*,#658,.T.);
#1250 = ORIENTED_EDGE('',*,*,#689,.T.);
#1251 = ORIENTED_EDGE('',*,*,#729,.F.);
#1252 = ORIENTED_EDGE('',*,*,#762,.F.);
#1253 = ORIENTED_EDGE('',*,*,#793,.F.);
#1254 = ORIENTED_EDGE('',*,*,#817,.T.);
#1255 = ORIENTED_EDGE('',*,*,#848,.T.);
#1256 = ORIENTED_EDGE('',*,*,#879,.T.);
#1257 = ORIENTED_EDGE('',*,*,#919,.F.);
#1258 = ORIENTED_EDGE('',*,*,#952,.F.);
#1259 = ORIENTED_EDGE('',*,*,#983,.F.);
#1260 = ORIENTED_EDGE('',*,*,#1007,.T.);
#1261 = ORIENTED_EDGE('',*,*,#1038,.T.);
#1262 = ORIENTED_EDGE('',*,*,#1069,.T.);
#1263 = ORIENTED_EDGE('',*,*,#1109,.F.);
#1264 = ORIENTED_EDGE('',*,*,#1133,.T.);
#1265 = ORIENTED_EDGE('',*,*,#1164,.F.);
#1266 = PLANE('',#1267);
#1267 = AXIS2_PLACEMENT_3D('',#1268,#1269,#1270);
#1268 = CARTESIAN_POINT('',(16.467487515354,8.78230669649,1.2));
#1269 = DIRECTION('',(0.,0.,1.));
#1270 = DIRECTION('',(1.,0.,0.));
#1271 = ( GEOMETRIC_REPRESENTATION_CONTEXT(3) 
GLOBAL_UNCERTAINTY_ASSIGNED_CONTEXT((#1275)) 
GLOBAL_UNIT_ASSIGNED_CONTEXT((#1272,#1273,#1274)) REPRESENTATION_CONTEXT
('Context #1','3D Context with UNIT and UNCERTAINTY') );
#1272 = ( LENGTH_UNIT() NAMED_UNIT(*) SI_UNIT(.MILLI.,.METRE.) );
#1273 = ( NAMED_UNIT(*) PLANE_ANGLE_UNIT() SI_UNIT($,.RADIAN.) );
#1274 = ( NAMED_UNIT(*) SI_UNIT($,.STERADIAN.) SOLID_ANGLE_UNIT() );
#1275 = UNCERTAINTY_MEASURE_WITH_UNIT(LENGTH_MEASURE(1.E-07),#1272,
  'distance_accuracy_value','confusion accuracy');
#1276 = CONTEXT_DEPENDENT_SHAPE_REPRESENTATION(#1277,#1279);
#1277 = ( REPRESENTATION_RELATIONSHIP('','',#40,#10) 
REPRESENTATION_RELATIONSHIP_WITH_TRANSFORMATION(#1278) 
SHAPE_REPRESENTATION_RELATIONSHIP() );
#1278 = ITEM_DEFINED_TRANSFORMATION('','',#11,#15);
#1279 = PRODUCT_DEFINITION_SHAPE('Placement','Placement of an item',
  #1280);
#1280 = NEXT_ASSEMBLY_USAGE_OCCURRENCE('1','Body','',#5,#35,$);
#1281 = PRODUCT_RELATED_PRODUCT_CATEGORY('part',$,(#37));
#1282 = SHAPE_DEFINITION_REPRESENTATION(#1283,#1289);
#1283 = PRODUCT_DEFINITION_SHAPE('','',#1284);
#1284 = PRODUCT_DEFINITION('design','',#1285,#1288);
#1285 = PRODUCT_DEFINITION_FORMATION('','',#1286);
#1286 = PRODUCT('Transformer','Transformer','',(#1287));
#1287 = PRODUCT_CONTEXT('',#2,'mechanical');
#1288 = PRODUCT_DEFINITION_CONTEXT('part definition',#2,'design');
#1289 = ADVANCED_BREP_SHAPE_REPRESENTATION('',(#11,#1290),#1506);
#1290 = MANIFOLD_SOLID_BREP('',#1291);
#1291 = CLOSED_SHELL('',(#1292,#1332,#1363,#1394,#1425,#1456,#1475,#1492
    ));
#1292 = ADVANCED_FACE('',(#1293),#1327,.F.);
#1293 = FACE_BOUND('',#1294,.F.);
#1294 = EDGE_LOOP('',(#1295,#1305,#1313,#1321));
#1295 = ORIENTED_EDGE('',*,*,#1296,.T.);
#1296 = EDGE_CURVE('',#1297,#1299,#1301,.T.);
#1297 = VERTEX_POINT('',#1298);
#1298 = CARTESIAN_POINT('',(9.75,19.,1.2));
#1299 = VERTEX_POINT('',#1300);
#1300 = CARTESIAN_POINT('',(9.75,19.,9.2));
#1301 = LINE('',#1302,#1303);
#1302 = CARTESIAN_POINT('',(9.75,19.,1.2));
#1303 = VECTOR('',#1304,1.);
#1304 = DIRECTION('',(0.,0.,1.));
#1305 = ORIENTED_EDGE('',*,*,#1306,.T.);
#1306 = EDGE_CURVE('',#1299,#1307,#1309,.T.);
#1307 = VERTEX_POINT('',#1308);
#1308 = CARTESIAN_POINT('',(9.75,6.,9.2));
#1309 = LINE('',#1310,#1311);
#1310 = CARTESIAN_POINT('',(9.75,19.,9.2));
#1311 = VECTOR('',#1312,1.);
#1312 = DIRECTION('',(0.,-1.,0.));
#1313 = ORIENTED_EDGE('',*,*,#1314,.F.);
#1314 = EDGE_CURVE('',#1315,#1307,#1317,.T.);
#1315 = VERTEX_POINT('',#1316);
#1316 = CARTESIAN_POINT('',(9.75,6.,1.2));
#1317 = LINE('',#1318,#1319);
#1318 = CARTESIAN_POINT('',(9.75,6.,1.2));
#1319 = VECTOR('',#1320,1.);
#1320 = DIRECTION('',(0.,0.,1.));
#1321 = ORIENTED_EDGE('',*,*,#1322,.F.);
#1322 = EDGE_CURVE('',#1297,#1315,#1323,.T.);
#1323 = LINE('',#1324,#1325);
#1324 = CARTESIAN_POINT('',(9.75,19.,1.2));
#1325 = VECTOR('',#1326,1.);
#1326 = DIRECTION('',(0.,-1.,0.));
#1327 = PLANE('',#1328);
#1328 = AXIS2_PLACEMENT_3D('',#1329,#1330,#1331);
#1329 = CARTESIAN_POINT('',(9.75,19.,1.2));
#1330 = DIRECTION('',(1.,0.,0.));
#1331 = DIRECTION('',(0.,-1.,0.));
#1332 = ADVANCED_FACE('',(#1333),#1358,.T.);
#1333 = FACE_BOUND('',#1334,.T.);
#1334 = EDGE_LOOP('',(#1335,#1343,#1344,#1352));
#1335 = ORIENTED_EDGE('',*,*,#1336,.T.);
#1336 = EDGE_CURVE('',#1337,#1299,#1339,.T.);
#1337 = VERTEX_POINT('',#1338);
#1338 = CARTESIAN_POINT('',(22.75,19.,9.2));
#1339 = LINE('',#1340,#1341);
#1340 = CARTESIAN_POINT('',(22.75,19.,9.2));
#1341 = VECTOR('',#1342,1.);
#1342 = DIRECTION('',(-1.,0.,0.));
#1343 = ORIENTED_EDGE('',*,*,#1306,.T.);
#1344 = ORIENTED_EDGE('',*,*,#1345,.T.);
#1345 = EDGE_CURVE('',#1307,#1346,#1348,.T.);
#1346 = VERTEX_POINT('',#1347);
#1347 = CARTESIAN_POINT('',(22.75,6.,9.2));
#1348 = LINE('',#1349,#1350);
#1349 = CARTESIAN_POINT('',(9.75,6.,9.2));
#1350 = VECTOR('',#1351,1.);
#1351 = DIRECTION('',(1.,0.,0.));
#1352 = ORIENTED_EDGE('',*,*,#1353,.T.);
#1353 = EDGE_CURVE('',#1346,#1337,#1354,.T.);
#1354 = LINE('',#1355,#1356);
#1355 = CARTESIAN_POINT('',(22.75,6.,9.2));
#1356 = VECTOR('',#1357,1.);
#1357 = DIRECTION('',(0.,1.,0.));
#1358 = PLANE('',#1359);
#1359 = AXIS2_PLACEMENT_3D('',#1360,#1361,#1362);
#1360 = CARTESIAN_POINT('',(16.25,12.5,9.2));
#1361 = DIRECTION('',(0.,0.,1.));
#1362 = DIRECTION('',(1.,0.,0.));
#1363 = ADVANCED_FACE('',(#1364),#1389,.F.);
#1364 = FACE_BOUND('',#1365,.F.);
#1365 = EDGE_LOOP('',(#1366,#1376,#1382,#1383));
#1366 = ORIENTED_EDGE('',*,*,#1367,.F.);
#1367 = EDGE_CURVE('',#1368,#1370,#1372,.T.);
#1368 = VERTEX_POINT('',#1369);
#1369 = CARTESIAN_POINT('',(22.75,6.,5.2));
#1370 = VERTEX_POINT('',#1371);
#1371 = CARTESIAN_POINT('',(22.75,19.,5.2));
#1372 = LINE('',#1373,#1374);
#1373 = CARTESIAN_POINT('',(22.75,6.,5.2));
#1374 = VECTOR('',#1375,1.);
#1375 = DIRECTION('',(0.,1.,0.));
#1376 = ORIENTED_EDGE('',*,*,#1377,.T.);
#1377 = EDGE_CURVE('',#1368,#1346,#1378,.T.);
#1378 = LINE('',#1379,#1380);
#1379 = CARTESIAN_POINT('',(22.75,6.,1.2));
#1380 = VECTOR('',#1381,1.);
#1381 = DIRECTION('',(0.,0.,1.));
#1382 = ORIENTED_EDGE('',*,*,#1353,.T.);
#1383 = ORIENTED_EDGE('',*,*,#1384,.F.);
#1384 = EDGE_CURVE('',#1370,#1337,#1385,.T.);
#1385 = LINE('',#1386,#1387);
#1386 = CARTESIAN_POINT('',(22.75,19.,1.2));
#1387 = VECTOR('',#1388,1.);
#1388 = DIRECTION('',(0.,0.,1.));
#1389 = PLANE('',#1390);
#1390 = AXIS2_PLACEMENT_3D('',#1391,#1392,#1393);
#1391 = CARTESIAN_POINT('',(22.75,6.,1.2));
#1392 = DIRECTION('',(-1.,0.,0.));
#1393 = DIRECTION('',(0.,1.,0.));
#1394 = ADVANCED_FACE('',(#1395),#1420,.T.);
#1395 = FACE_BOUND('',#1396,.F.);
#1396 = EDGE_LOOP('',(#1397,#1398,#1406,#1414));
#1397 = ORIENTED_EDGE('',*,*,#1367,.T.);
#1398 = ORIENTED_EDGE('',*,*,#1399,.T.);
#1399 = EDGE_CURVE('',#1370,#1400,#1402,.T.);
#1400 = VERTEX_POINT('',#1401);
#1401 = CARTESIAN_POINT('',(32.75,19.,5.2));
#1402 = LINE('',#1403,#1404);
#1403 = CARTESIAN_POINT('',(22.75,19.,5.2));
#1404 = VECTOR('',#1405,1.);
#1405 = DIRECTION('',(1.,0.,0.));
#1406 = ORIENTED_EDGE('',*,*,#1407,.T.);
#1407 = EDGE_CURVE('',#1400,#1408,#1410,.T.);
#1408 = VERTEX_POINT('',#1409);
#1409 = CARTESIAN_POINT('',(32.75,6.,5.2));
#1410 = LINE('',#1411,#1412);
#1411 = CARTESIAN_POINT('',(32.75,19.,5.2));
#1412 = VECTOR('',#1413,1.);
#1413 = DIRECTION('',(0.,-1.,0.));
#1414 = ORIENTED_EDGE('',*,*,#1415,.F.);
#1415 = EDGE_CURVE('',#1368,#1408,#1416,.T.);
#1416 = LINE('',#1417,#1418);
#1417 = CARTESIAN_POINT('',(22.75,6.,5.2));
#1418 = VECTOR('',#1419,1.);
#1419 = DIRECTION('',(1.,0.,0.));
#1420 = PLANE('',#1421);
#1421 = AXIS2_PLACEMENT_3D('',#1422,#1423,#1424);
#1422 = CARTESIAN_POINT('',(27.75,12.5,5.2));
#1423 = DIRECTION('',(0.,0.,1.));
#1424 = DIRECTION('',(1.,0.,0.));
#1425 = ADVANCED_FACE('',(#1426),#1451,.T.);
#1426 = FACE_BOUND('',#1427,.T.);
#1427 = EDGE_LOOP('',(#1428,#1436,#1437,#1445));
#1428 = ORIENTED_EDGE('',*,*,#1429,.T.);
#1429 = EDGE_CURVE('',#1430,#1400,#1432,.T.);
#1430 = VERTEX_POINT('',#1431);
#1431 = CARTESIAN_POINT('',(32.75,19.,1.2));
#1432 = LINE('',#1433,#1434);
#1433 = CARTESIAN_POINT('',(32.75,19.,1.2));
#1434 = VECTOR('',#1435,1.);
#1435 = DIRECTION('',(0.,0.,1.));
#1436 = ORIENTED_EDGE('',*,*,#1407,.T.);
#1437 = ORIENTED_EDGE('',*,*,#1438,.F.);
#1438 = EDGE_CURVE('',#1439,#1408,#1441,.T.);
#1439 = VERTEX_POINT('',#1440);
#1440 = CARTESIAN_POINT('',(32.75,6.,1.2));
#1441 = LINE('',#1442,#1443);
#1442 = CARTESIAN_POINT('',(32.75,6.,1.2));
#1443 = VECTOR('',#1444,1.);
#1444 = DIRECTION('',(0.,0.,1.));
#1445 = ORIENTED_EDGE('',*,*,#1446,.F.);
#1446 = EDGE_CURVE('',#1430,#1439,#1447,.T.);
#1447 = LINE('',#1448,#1449);
#1448 = CARTESIAN_POINT('',(32.75,19.,1.2));
#1449 = VECTOR('',#1450,1.);
#1450 = DIRECTION('',(0.,-1.,0.));
#1451 = PLANE('',#1452);
#1452 = AXIS2_PLACEMENT_3D('',#1453,#1454,#1455);
#1453 = CARTESIAN_POINT('',(32.75,19.,1.2));
#1454 = DIRECTION('',(1.,0.,0.));
#1455 = DIRECTION('',(0.,-1.,0.));
#1456 = ADVANCED_FACE('',(#1457),#1470,.T.);
#1457 = FACE_BOUND('',#1458,.T.);
#1458 = EDGE_LOOP('',(#1459,#1460,#1461,#1462,#1468,#1469));
#1459 = ORIENTED_EDGE('',*,*,#1384,.F.);
#1460 = ORIENTED_EDGE('',*,*,#1399,.T.);
#1461 = ORIENTED_EDGE('',*,*,#1429,.F.);
#1462 = ORIENTED_EDGE('',*,*,#1463,.F.);
#1463 = EDGE_CURVE('',#1297,#1430,#1464,.T.);
#1464 = LINE('',#1465,#1466);
#1465 = CARTESIAN_POINT('',(22.75,19.,1.2));
#1466 = VECTOR('',#1467,1.);
#1467 = DIRECTION('',(1.,0.,0.));
#1468 = ORIENTED_EDGE('',*,*,#1296,.T.);
#1469 = ORIENTED_EDGE('',*,*,#1336,.F.);
#1470 = PLANE('',#1471);
#1471 = AXIS2_PLACEMENT_3D('',#1472,#1473,#1474);
#1472 = CARTESIAN_POINT('',(20.604838709677,19.,4.554838709677));
#1473 = DIRECTION('',(0.,1.,0.));
#1474 = DIRECTION('',(0.,0.,1.));
#1475 = ADVANCED_FACE('',(#1476),#1487,.T.);
#1476 = FACE_BOUND('',#1477,.T.);
#1477 = EDGE_LOOP('',(#1478,#1479,#1480,#1486));
#1478 = ORIENTED_EDGE('',*,*,#1463,.T.);
#1479 = ORIENTED_EDGE('',*,*,#1446,.T.);
#1480 = ORIENTED_EDGE('',*,*,#1481,.F.);
#1481 = EDGE_CURVE('',#1315,#1439,#1482,.T.);
#1482 = LINE('',#1483,#1484);
#1483 = CARTESIAN_POINT('',(22.75,6.,1.2));
#1484 = VECTOR('',#1485,1.);
#1485 = DIRECTION('',(1.,0.,0.));
#1486 = ORIENTED_EDGE('',*,*,#1322,.F.);
#1487 = PLANE('',#1488);
#1488 = AXIS2_PLACEMENT_3D('',#1489,#1490,#1491);
#1489 = CARTESIAN_POINT('',(21.25,12.5,1.2));
#1490 = DIRECTION('',(-0.,-0.,-1.));
#1491 = DIRECTION('',(-1.,0.,0.));
#1492 = ADVANCED_FACE('',(#1493),#1501,.T.);
#1493 = FACE_BOUND('',#1494,.T.);
#1494 = EDGE_LOOP('',(#1495,#1496,#1497,#1498,#1499,#1500));
#1495 = ORIENTED_EDGE('',*,*,#1314,.F.);
#1496 = ORIENTED_EDGE('',*,*,#1481,.T.);
#1497 = ORIENTED_EDGE('',*,*,#1438,.T.);
#1498 = ORIENTED_EDGE('',*,*,#1415,.F.);
#1499 = ORIENTED_EDGE('',*,*,#1377,.T.);
#1500 = ORIENTED_EDGE('',*,*,#1345,.F.);
#1501 = PLANE('',#1502);
#1502 = AXIS2_PLACEMENT_3D('',#1503,#1504,#1505);
#1503 = CARTESIAN_POINT('',(20.604838709677,6.,4.554838709677));
#1504 = DIRECTION('',(-0.,-1.,-0.));
#1505 = DIRECTION('',(0.,0.,-1.));
#1506 = ( GEOMETRIC_REPRESENTATION_CONTEXT(3) 
GLOBAL_UNCERTAINTY_ASSIGNED_CONTEXT((#1510)) 
GLOBAL_UNIT_ASSIGNED_CONTEXT((#1507,#1508,#1509)) REPRESENTATION_CONTEXT
('Context #1','3D Context with UNIT and UNCERTAINTY') );
#1507 = ( LENGTH_UNIT() NAMED_UNIT(*) SI_UNIT(.MILLI.,.METRE.) );
#1508 = ( NAMED_UNIT(*) PLANE_ANGLE_UNIT() SI_UNIT($,.RADIAN.) );
#1509 = ( NAMED_UNIT(*) SI_UNIT($,.STERADIAN.) SOLID_ANGLE_UNIT() );
#1510 = UNCERTAINTY_MEASURE_WITH_UNIT(LENGTH_MEASURE(1.E-07),#1507,
  'distance_accuracy_value','confusion accuracy');
#1511 = CONTEXT_DEPENDENT_SHAPE_REPRESENTATION(#1512,#1514);
#1512 = ( REPRESENTATION_RELATIONSHIP('','',#1289,#10) 
REPRESENTATION_RELATIONSHIP_WITH_TRANSFORMATION(#1513) 
SHAPE_REPRESENTATION_RELATIONSHIP() );
#1513 = ITEM_DEFINED_TRANSFORMATION('','',#11,#19);
#1514 = PRODUCT_DEFINITION_SHAPE('Placement','Placement of an item',
  #1515);
#1515 = NEXT_ASSEMBLY_USAGE_OCCURRENCE('2','Transformer','',#5,#1284,$);
#1516 = PRODUCT_RELATED_PRODUCT_CATEGORY('part',$,(#1286));
#1517 = SHAPE_DEFINITION_REPRESENTATION(#1518,#1524);
#1518 = PRODUCT_DEFINITION_SHAPE('','',#1519);
#1519 = PRODUCT_DEFINITION('design','',#1520,#1523);
#1520 = PRODUCT_DEFINITION_FORMATION('','',#1521);
#1521 = PRODUCT('Back_side','Back_side','',(#1522));
#1522 = PRODUCT_CONTEXT('',#2,'mechanical');
#1523 = PRODUCT_DEFINITION_CONTEXT('part definition',#2,'design');
#1524 = SHAPE_REPRESENTATION('',(#11,#1525,#1675),#1825);
#1525 = MANIFOLD_SOLID_BREP('',#1526);
#1526 = CLOSED_SHELL('',(#1527,#1567,#1598,#1629,#1651,#1663));
#1527 = ADVANCED_FACE('',(#1528),#1562,.F.);
#1528 = FACE_BOUND('',#1529,.F.);
#1529 = EDGE_LOOP('',(#1530,#1540,#1548,#1556));
#1530 = ORIENTED_EDGE('',*,*,#1531,.T.);
#1531 = EDGE_CURVE('',#1532,#1534,#1536,.T.);
#1532 = VERTEX_POINT('',#1533);
#1533 = CARTESIAN_POINT('',(8.1,19.,0.));
#1534 = VERTEX_POINT('',#1535);
#1535 = CARTESIAN_POINT('',(8.1,19.,-3.8));
#1536 = LINE('',#1537,#1538);
#1537 = CARTESIAN_POINT('',(8.1,19.,0.));
#1538 = VECTOR('',#1539,1.);
#1539 = DIRECTION('',(0.,0.,-1.));
#1540 = ORIENTED_EDGE('',*,*,#1541,.T.);
#1541 = EDGE_CURVE('',#1534,#1542,#1544,.T.);
#1542 = VERTEX_POINT('',#1543);
#1543 = CARTESIAN_POINT('',(8.1,4.,-3.8));
#1544 = LINE('',#1545,#1546);
#1545 = CARTESIAN_POINT('',(8.1,19.,-3.8));
#1546 = VECTOR('',#1547,1.);
#1547 = DIRECTION('',(0.,-1.,0.));
#1548 = ORIENTED_EDGE('',*,*,#1549,.F.);
#1549 = EDGE_CURVE('',#1550,#1542,#1552,.T.);
#1550 = VERTEX_POINT('',#1551);
#1551 = CARTESIAN_POINT('',(8.1,4.,0.));
#1552 = LINE('',#1553,#1554);
#1553 = CARTESIAN_POINT('',(8.1,4.,0.));
#1554 = VECTOR('',#1555,1.);
#1555 = DIRECTION('',(0.,0.,-1.));
#1556 = ORIENTED_EDGE('',*,*,#1557,.F.);
#1557 = EDGE_CURVE('',#1532,#1550,#1558,.T.);
#1558 = LINE('',#1559,#1560);
#1559 = CARTESIAN_POINT('',(8.1,19.,0.));
#1560 = VECTOR('',#1561,1.);
#1561 = DIRECTION('',(0.,-1.,0.));
#1562 = PLANE('',#1563);
#1563 = AXIS2_PLACEMENT_3D('',#1564,#1565,#1566);
#1564 = CARTESIAN_POINT('',(8.1,19.,0.));
#1565 = DIRECTION('',(-1.,-0.,-0.));
#1566 = DIRECTION('',(0.,-1.,0.));
#1567 = ADVANCED_FACE('',(#1568),#1593,.F.);
#1568 = FACE_BOUND('',#1569,.F.);
#1569 = EDGE_LOOP('',(#1570,#1571,#1579,#1587));
#1570 = ORIENTED_EDGE('',*,*,#1549,.T.);
#1571 = ORIENTED_EDGE('',*,*,#1572,.T.);
#1572 = EDGE_CURVE('',#1542,#1573,#1575,.T.);
#1573 = VERTEX_POINT('',#1574);
#1574 = CARTESIAN_POINT('',(0.5,4.,-3.8));
#1575 = LINE('',#1576,#1577);
#1576 = CARTESIAN_POINT('',(8.1,4.,-3.8));
#1577 = VECTOR('',#1578,1.);
#1578 = DIRECTION('',(-1.,0.,0.));
#1579 = ORIENTED_EDGE('',*,*,#1580,.F.);
#1580 = EDGE_CURVE('',#1581,#1573,#1583,.T.);
#1581 = VERTEX_POINT('',#1582);
#1582 = CARTESIAN_POINT('',(0.5,4.,0.));
#1583 = LINE('',#1584,#1585);
#1584 = CARTESIAN_POINT('',(0.5,4.,0.));
#1585 = VECTOR('',#1586,1.);
#1586 = DIRECTION('',(0.,0.,-1.));
#1587 = ORIENTED_EDGE('',*,*,#1588,.F.);
#1588 = EDGE_CURVE('',#1550,#1581,#1589,.T.);
#1589 = LINE('',#1590,#1591);
#1590 = CARTESIAN_POINT('',(8.1,4.,0.));
#1591 = VECTOR('',#1592,1.);
#1592 = DIRECTION('',(-1.,0.,0.));
#1593 = PLANE('',#1594);
#1594 = AXIS2_PLACEMENT_3D('',#1595,#1596,#1597);
#1595 = CARTESIAN_POINT('',(8.1,4.,0.));
#1596 = DIRECTION('',(0.,1.,0.));
#1597 = DIRECTION('',(-1.,0.,0.));
#1598 = ADVANCED_FACE('',(#1599),#1624,.F.);
#1599 = FACE_BOUND('',#1600,.F.);
#1600 = EDGE_LOOP('',(#1601,#1602,#1610,#1618));
#1601 = ORIENTED_EDGE('',*,*,#1580,.T.);
#1602 = ORIENTED_EDGE('',*,*,#1603,.T.);
#1603 = EDGE_CURVE('',#1573,#1604,#1606,.T.);
#1604 = VERTEX_POINT('',#1605);
#1605 = CARTESIAN_POINT('',(0.5,19.,-3.8));
#1606 = LINE('',#1607,#1608);
#1607 = CARTESIAN_POINT('',(0.5,4.,-3.8));
#1608 = VECTOR('',#1609,1.);
#1609 = DIRECTION('',(0.,1.,0.));
#1610 = ORIENTED_EDGE('',*,*,#1611,.F.);
#1611 = EDGE_CURVE('',#1612,#1604,#1614,.T.);
#1612 = VERTEX_POINT('',#1613);
#1613 = CARTESIAN_POINT('',(0.5,19.,0.));
#1614 = LINE('',#1615,#1616);
#1615 = CARTESIAN_POINT('',(0.5,19.,0.));
#1616 = VECTOR('',#1617,1.);
#1617 = DIRECTION('',(0.,0.,-1.));
#1618 = ORIENTED_EDGE('',*,*,#1619,.F.);
#1619 = EDGE_CURVE('',#1581,#1612,#1620,.T.);
#1620 = LINE('',#1621,#1622);
#1621 = CARTESIAN_POINT('',(0.5,4.,0.));
#1622 = VECTOR('',#1623,1.);
#1623 = DIRECTION('',(0.,1.,0.));
#1624 = PLANE('',#1625);
#1625 = AXIS2_PLACEMENT_3D('',#1626,#1627,#1628);
#1626 = CARTESIAN_POINT('',(0.5,4.,0.));
#1627 = DIRECTION('',(1.,0.,0.));
#1628 = DIRECTION('',(0.,1.,0.));
#1629 = ADVANCED_FACE('',(#1630),#1646,.F.);
#1630 = FACE_BOUND('',#1631,.F.);
#1631 = EDGE_LOOP('',(#1632,#1633,#1639,#1640));
#1632 = ORIENTED_EDGE('',*,*,#1611,.T.);
#1633 = ORIENTED_EDGE('',*,*,#1634,.T.);
#1634 = EDGE_CURVE('',#1604,#1534,#1635,.T.);
#1635 = LINE('',#1636,#1637);
#1636 = CARTESIAN_POINT('',(0.5,19.,-3.8));
#1637 = VECTOR('',#1638,1.);
#1638 = DIRECTION('',(1.,0.,0.));
#1639 = ORIENTED_EDGE('',*,*,#1531,.F.);
#1640 = ORIENTED_EDGE('',*,*,#1641,.F.);
#1641 = EDGE_CURVE('',#1612,#1532,#1642,.T.);
#1642 = LINE('',#1643,#1644);
#1643 = CARTESIAN_POINT('',(0.5,19.,0.));
#1644 = VECTOR('',#1645,1.);
#1645 = DIRECTION('',(1.,0.,0.));
#1646 = PLANE('',#1647);
#1647 = AXIS2_PLACEMENT_3D('',#1648,#1649,#1650);
#1648 = CARTESIAN_POINT('',(0.5,19.,0.));
#1649 = DIRECTION('',(0.,-1.,0.));
#1650 = DIRECTION('',(1.,0.,0.));
#1651 = ADVANCED_FACE('',(#1652),#1658,.T.);
#1652 = FACE_BOUND('',#1653,.F.);
#1653 = EDGE_LOOP('',(#1654,#1655,#1656,#1657));
#1654 = ORIENTED_EDGE('',*,*,#1557,.T.);
#1655 = ORIENTED_EDGE('',*,*,#1588,.T.);
#1656 = ORIENTED_EDGE('',*,*,#1619,.T.);
#1657 = ORIENTED_EDGE('',*,*,#1641,.T.);
#1658 = PLANE('',#1659);
#1659 = AXIS2_PLACEMENT_3D('',#1660,#1661,#1662);
#1660 = CARTESIAN_POINT('',(4.3,11.5,0.));
#1661 = DIRECTION('',(0.,0.,1.));
#1662 = DIRECTION('',(1.,0.,0.));
#1663 = ADVANCED_FACE('',(#1664),#1670,.F.);
#1664 = FACE_BOUND('',#1665,.T.);
#1665 = EDGE_LOOP('',(#1666,#1667,#1668,#1669));
#1666 = ORIENTED_EDGE('',*,*,#1541,.T.);
#1667 = ORIENTED_EDGE('',*,*,#1572,.T.);
#1668 = ORIENTED_EDGE('',*,*,#1603,.T.);
#1669 = ORIENTED_EDGE('',*,*,#1634,.T.);
#1670 = PLANE('',#1671);
#1671 = AXIS2_PLACEMENT_3D('',#1672,#1673,#1674);
#1672 = CARTESIAN_POINT('',(4.3,11.5,-3.8));
#1673 = DIRECTION('',(0.,0.,1.));
#1674 = DIRECTION('',(1.,0.,0.));
#1675 = MANIFOLD_SOLID_BREP('',#1676);
#1676 = CLOSED_SHELL('',(#1677,#1717,#1748,#1779,#1801,#1813));
#1677 = ADVANCED_FACE('',(#1678),#1712,.F.);
#1678 = FACE_BOUND('',#1679,.F.);
#1679 = EDGE_LOOP('',(#1680,#1690,#1698,#1706));
#1680 = ORIENTED_EDGE('',*,*,#1681,.T.);
#1681 = EDGE_CURVE('',#1682,#1684,#1686,.T.);
#1682 = VERTEX_POINT('',#1683);
#1683 = CARTESIAN_POINT('',(29.,19.,0.));
#1684 = VERTEX_POINT('',#1685);
#1685 = CARTESIAN_POINT('',(29.,19.,-2.4));
#1686 = LINE('',#1687,#1688);
#1687 = CARTESIAN_POINT('',(29.,19.,0.));
#1688 = VECTOR('',#1689,1.);
#1689 = DIRECTION('',(0.,0.,-1.));
#1690 = ORIENTED_EDGE('',*,*,#1691,.T.);
#1691 = EDGE_CURVE('',#1684,#1692,#1694,.T.);
#1692 = VERTEX_POINT('',#1693);
#1693 = CARTESIAN_POINT('',(33.,19.,-2.4));
#1694 = LINE('',#1695,#1696);
#1695 = CARTESIAN_POINT('',(29.,19.,-2.4));
#1696 = VECTOR('',#1697,1.);
#1697 = DIRECTION('',(1.,0.,0.));
#1698 = ORIENTED_EDGE('',*,*,#1699,.F.);
#1699 = EDGE_CURVE('',#1700,#1692,#1702,.T.);
#1700 = VERTEX_POINT('',#1701);
#1701 = CARTESIAN_POINT('',(33.,19.,0.));
#1702 = LINE('',#1703,#1704);
#1703 = CARTESIAN_POINT('',(33.,19.,0.));
#1704 = VECTOR('',#1705,1.);
#1705 = DIRECTION('',(0.,0.,-1.));
#1706 = ORIENTED_EDGE('',*,*,#1707,.F.);
#1707 = EDGE_CURVE('',#1682,#1700,#1708,.T.);
#1708 = LINE('',#1709,#1710);
#1709 = CARTESIAN_POINT('',(29.,19.,0.));
#1710 = VECTOR('',#1711,1.);
#1711 = DIRECTION('',(1.,0.,0.));
#1712 = PLANE('',#1713);
#1713 = AXIS2_PLACEMENT_3D('',#1714,#1715,#1716);
#1714 = CARTESIAN_POINT('',(29.,19.,0.));
#1715 = DIRECTION('',(0.,-1.,0.));
#1716 = DIRECTION('',(1.,0.,0.));
#1717 = ADVANCED_FACE('',(#1718),#1743,.F.);
#1718 = FACE_BOUND('',#1719,.F.);
#1719 = EDGE_LOOP('',(#1720,#1721,#1729,#1737));
#1720 = ORIENTED_EDGE('',*,*,#1699,.T.);
#1721 = ORIENTED_EDGE('',*,*,#1722,.T.);
#1722 = EDGE_CURVE('',#1692,#1723,#1725,.T.);
#1723 = VERTEX_POINT('',#1724);
#1724 = CARTESIAN_POINT('',(33.,4.,-2.4));
#1725 = LINE('',#1726,#1727);
#1726 = CARTESIAN_POINT('',(33.,19.,-2.4));
#1727 = VECTOR('',#1728,1.);
#1728 = DIRECTION('',(0.,-1.,0.));
#1729 = ORIENTED_EDGE('',*,*,#1730,.F.);
#1730 = EDGE_CURVE('',#1731,#1723,#1733,.T.);
#1731 = VERTEX_POINT('',#1732);
#1732 = CARTESIAN_POINT('',(33.,4.,0.));
#1733 = LINE('',#1734,#1735);
#1734 = CARTESIAN_POINT('',(33.,4.,0.));
#1735 = VECTOR('',#1736,1.);
#1736 = DIRECTION('',(0.,0.,-1.));
#1737 = ORIENTED_EDGE('',*,*,#1738,.F.);
#1738 = EDGE_CURVE('',#1700,#1731,#1739,.T.);
#1739 = LINE('',#1740,#1741);
#1740 = CARTESIAN_POINT('',(33.,19.,0.));
#1741 = VECTOR('',#1742,1.);
#1742 = DIRECTION('',(0.,-1.,0.));
#1743 = PLANE('',#1744);
#1744 = AXIS2_PLACEMENT_3D('',#1745,#1746,#1747);
#1745 = CARTESIAN_POINT('',(33.,19.,0.));
#1746 = DIRECTION('',(-1.,-0.,-0.));
#1747 = DIRECTION('',(0.,-1.,0.));
#1748 = ADVANCED_FACE('',(#1749),#1774,.F.);
#1749 = FACE_BOUND('',#1750,.F.);
#1750 = EDGE_LOOP('',(#1751,#1752,#1760,#1768));
#1751 = ORIENTED_EDGE('',*,*,#1730,.T.);
#1752 = ORIENTED_EDGE('',*,*,#1753,.T.);
#1753 = EDGE_CURVE('',#1723,#1754,#1756,.T.);
#1754 = VERTEX_POINT('',#1755);
#1755 = CARTESIAN_POINT('',(29.,4.,-2.4));
#1756 = LINE('',#1757,#1758);
#1757 = CARTESIAN_POINT('',(33.,4.,-2.4));
#1758 = VECTOR('',#1759,1.);
#1759 = DIRECTION('',(-1.,0.,0.));
#1760 = ORIENTED_EDGE('',*,*,#1761,.F.);
#1761 = EDGE_CURVE('',#1762,#1754,#1764,.T.);
#1762 = VERTEX_POINT('',#1763);
#1763 = CARTESIAN_POINT('',(29.,4.,0.));
#1764 = LINE('',#1765,#1766);
#1765 = CARTESIAN_POINT('',(29.,4.,0.));
#1766 = VECTOR('',#1767,1.);
#1767 = DIRECTION('',(0.,0.,-1.));
#1768 = ORIENTED_EDGE('',*,*,#1769,.F.);
#1769 = EDGE_CURVE('',#1731,#1762,#1770,.T.);
#1770 = LINE('',#1771,#1772);
#1771 = CARTESIAN_POINT('',(33.,4.,0.));
#1772 = VECTOR('',#1773,1.);
#1773 = DIRECTION('',(-1.,0.,0.));
#1774 = PLANE('',#1775);
#1775 = AXIS2_PLACEMENT_3D('',#1776,#1777,#1778);
#1776 = CARTESIAN_POINT('',(33.,4.,0.));
#1777 = DIRECTION('',(0.,1.,0.));
#1778 = DIRECTION('',(-1.,0.,0.));
#1779 = ADVANCED_FACE('',(#1780),#1796,.F.);
#1780 = FACE_BOUND('',#1781,.F.);
#1781 = EDGE_LOOP('',(#1782,#1783,#1789,#1790));
#1782 = ORIENTED_EDGE('',*,*,#1761,.T.);
#1783 = ORIENTED_EDGE('',*,*,#1784,.T.);
#1784 = EDGE_CURVE('',#1754,#1684,#1785,.T.);
#1785 = LINE('',#1786,#1787);
#1786 = CARTESIAN_POINT('',(29.,4.,-2.4));
#1787 = VECTOR('',#1788,1.);
#1788 = DIRECTION('',(0.,1.,0.));
#1789 = ORIENTED_EDGE('',*,*,#1681,.F.);
#1790 = ORIENTED_EDGE('',*,*,#1791,.F.);
#1791 = EDGE_CURVE('',#1762,#1682,#1792,.T.);
#1792 = LINE('',#1793,#1794);
#1793 = CARTESIAN_POINT('',(29.,4.,0.));
#1794 = VECTOR('',#1795,1.);
#1795 = DIRECTION('',(0.,1.,0.));
#1796 = PLANE('',#1797);
#1797 = AXIS2_PLACEMENT_3D('',#1798,#1799,#1800);
#1798 = CARTESIAN_POINT('',(29.,4.,0.));
#1799 = DIRECTION('',(1.,0.,0.));
#1800 = DIRECTION('',(0.,1.,0.));
#1801 = ADVANCED_FACE('',(#1802),#1808,.T.);
#1802 = FACE_BOUND('',#1803,.F.);
#1803 = EDGE_LOOP('',(#1804,#1805,#1806,#1807));
#1804 = ORIENTED_EDGE('',*,*,#1707,.T.);
#1805 = ORIENTED_EDGE('',*,*,#1738,.T.);
#1806 = ORIENTED_EDGE('',*,*,#1769,.T.);
#1807 = ORIENTED_EDGE('',*,*,#1791,.T.);
#1808 = PLANE('',#1809);
#1809 = AXIS2_PLACEMENT_3D('',#1810,#1811,#1812);
#1810 = CARTESIAN_POINT('',(31.,11.5,0.));
#1811 = DIRECTION('',(0.,0.,1.));
#1812 = DIRECTION('',(1.,0.,0.));
#1813 = ADVANCED_FACE('',(#1814),#1820,.F.);
#1814 = FACE_BOUND('',#1815,.T.);
#1815 = EDGE_LOOP('',(#1816,#1817,#1818,#1819));
#1816 = ORIENTED_EDGE('',*,*,#1691,.T.);
#1817 = ORIENTED_EDGE('',*,*,#1722,.T.);
#1818 = ORIENTED_EDGE('',*,*,#1753,.T.);
#1819 = ORIENTED_EDGE('',*,*,#1784,.T.);
#1820 = PLANE('',#1821);
#1821 = AXIS2_PLACEMENT_3D('',#1822,#1823,#1824);
#1822 = CARTESIAN_POINT('',(31.,11.5,-2.4));
#1823 = DIRECTION('',(0.,0.,1.));
#1824 = DIRECTION('',(1.,0.,0.));
#1825 = ( GEOMETRIC_REPRESENTATION_CONTEXT(3) 
GLOBAL_UNCERTAINTY_ASSIGNED_CONTEXT((#1829)) 
GLOBAL_UNIT_ASSIGNED_CONTEXT((#1826,#1827,#1828)) REPRESENTATION_CONTEXT
('Context #1','3D Context with UNIT and UNCERTAINTY') );
#1826 = ( LENGTH_UNIT() NAMED_UNIT(*) SI_UNIT(.MILLI.,.METRE.) );
#1827 = ( NAMED_UNIT(*) PLANE_ANGLE_UNIT() SI_UNIT($,.RADIAN.) );
#1828 = ( NAMED_UNIT(*) SI_UNIT($,.STERADIAN.) SOLID_ANGLE_UNIT() );
#1829 = UNCERTAINTY_MEASURE_WITH_UNIT(LENGTH_MEASURE(1.E-07),#1826,
  'distance_accuracy_value','confusion accuracy');
#1830 = CONTEXT_DEPENDENT_SHAPE_REPRESENTATION(#1831,#1833);
#1831 = ( REPRESENTATION_RELATIONSHIP('','',#1524,#10) 
REPRESENTATION_RELATIONSHIP_WITH_TRANSFORMATION(#1832) 
SHAPE_REPRESENTATION_RELATIONSHIP() );
#1832 = ITEM_DEFINED_TRANSFORMATION('','',#11,#23);
#1833 = PRODUCT_DEFINITION_SHAPE('Placement','Placement of an item',
  #1834);
#1834 = NEXT_ASSEMBLY_USAGE_OCCURRENCE('3','Back_side','',#5,#1519,$);
#1835 = PRODUCT_RELATED_PRODUCT_CATEGORY('part',$,(#1521));
#1836 = MECHANICAL_DESIGN_GEOMETRIC_PRESENTATION_REPRESENTATION('',(
    #1837),#1271);
#1837 = STYLED_ITEM('color',(#1838),#41);
#1838 = PRESENTATION_STYLE_ASSIGNMENT((#1839,#1845));
#1839 = SURFACE_STYLE_USAGE(.BOTH.,#1840);
#1840 = SURFACE_SIDE_STYLE('',(#1841));
#1841 = SURFACE_STYLE_FILL_AREA(#1842);
#1842 = FILL_AREA_STYLE('',(#1843));
#1843 = FILL_AREA_STYLE_COLOUR('',#1844);
#1844 = COLOUR_RGB('',0.,0.560784336289,0.);
#1845 = CURVE_STYLE('',#1846,POSITIVE_LENGTH_MEASURE(0.1),#1847);
#1846 = DRAUGHTING_PRE_DEFINED_CURVE_FONT('continuous');
#1847 = COLOUR_RGB('',9.803921802644E-02,9.803921802644E-02,
  9.803921802644E-02);
#1848 = MECHANICAL_DESIGN_GEOMETRIC_PRESENTATION_REPRESENTATION('',(
    #1849),#1506);
#1849 = STYLED_ITEM('color',(#1850),#1290);
#1850 = PRESENTATION_STYLE_ASSIGNMENT((#1851,#1857));
#1851 = SURFACE_STYLE_USAGE(.BOTH.,#1852);
#1852 = SURFACE_SIDE_STYLE('',(#1853));
#1853 = SURFACE_STYLE_FILL_AREA(#1854);
#1854 = FILL_AREA_STYLE('',(#1855));
#1855 = FILL_AREA_STYLE_COLOUR('',#1856);
#1856 = COLOUR_RGB('',0.129411774038,0.129411774038,0.129411774038);
#1857 = CURVE_STYLE('',#1858,POSITIVE_LENGTH_MEASURE(0.1),#1847);
#1858 = DRAUGHTING_PRE_DEFINED_CURVE_FONT('continuous');
#1859 = MECHANICAL_DESIGN_GEOMETRIC_PRESENTATION_REPRESENTATION('',(
    #1860,#1870),#1825);
#1860 = STYLED_ITEM('color',(#1861),#1525);
#1861 = PRESENTATION_STYLE_ASSIGNMENT((#1862,#1868));
#1862 = SURFACE_STYLE_USAGE(.BOTH.,#1863);
#1863 = SURFACE_SIDE_STYLE('',(#1864));
#1864 = SURFACE_STYLE_FILL_AREA(#1865);
#1865 = FILL_AREA_STYLE('',(#1866));
#1866 = FILL_AREA_STYLE_COLOUR('',#1867);
#1867 = COLOUR_RGB('',1.,0.576470603584,0.);
#1868 = CURVE_STYLE('',#1869,POSITIVE_LENGTH_MEASURE(0.1),#1847);
#1869 = DRAUGHTING_PRE_DEFINED_CURVE_FONT('continuous');
#1870 = STYLED_ITEM('color',(#1871),#1675);
#1871 = PRESENTATION_STYLE_ASSIGNMENT((#1872,#1877));
#1872 = SURFACE_STYLE_USAGE(.BOTH.,#1873);
#1873 = SURFACE_SIDE_STYLE('',(#1874));
#1874 = SURFACE_STYLE_FILL_AREA(#1875);
#1875 = FILL_AREA_STYLE('',(#1876));
#1876 = FILL_AREA_STYLE_COLOUR('',#1867);
#1877 = CURVE_STYLE('',#1878,POSITIVE_LENGTH_MEASURE(0.1),#1847);
#1878 = DRAUGHTING_PRE_DEFINED_CURVE_FONT('continuous');
ENDSEC;
END-ISO-10303-21;
